<?xml version="1.0" encoding="UTF-8"?>
<svg width="578px" height="246px" viewBox="0 0 578 246" version="1.1" xmlns="http://www.w3.org/2000/svg" xmlns:xlink="http://www.w3.org/1999/xlink">
    <!-- Generator: Sketch 57.1 (83088) - https://sketch.com -->
    <title>WelcomeToFirefly</title>
    <desc>Created with Sketch.</desc>
    <g id="HF-Design" stroke="none" stroke-width="1" fill="none" fill-rule="evenodd">
        <g id="TabletLandingPage" transform="translate(-309.000000, -223.000000)" fill="#3E8C0D">
            <g id="WelcomeToFirefly" transform="translate(309.000000, 59.000000)">
                <path d="M577.549291,193.321655 C578.671995,201.71993 576.594735,210.233258 571.730121,217.170622 C551.66004,245.792309 541.625,269.068768 541.625,287 C541.625,304.726606 551.432313,327.67714 571.04694,355.8516 L571.644324,356.70697 C582.339509,371.972883 578.634203,393.01851 563.368291,403.713696 C556.424931,408.578162 547.905142,410.651336 539.503025,409.520981 C434.095835,395.340327 350.42816,388.25 288.5,388.25 C227.39608,388.25 145.127484,395.152844 41.6942112,408.958532 L38.5533915,409.379 C20.0795578,411.859436 3.09276579,398.894226 0.612329687,380.420392 C-0.512496303,372.042894 1.54718124,363.548287 6.38407546,356.616321 C25.7113585,328.917539 35.375,305.712099 35.375,287 C35.375,268.447813 25.8758214,245.478755 6.87746406,218.092826 L6.2988476,217.261598 C-4.37445304,201.980376 -0.638994568,180.940078 14.6422276,170.266777 C21.5685439,165.429032 30.0573932,163.364968 38.4317026,164.482366 C144.691585,178.660789 228.047685,185.75 288.5,185.75 C348.546013,185.75 431.188971,178.755762 536.428872,164.767286 L539.624877,164.341252 C558.100132,161.871431 575.079471,174.8464 577.549291,193.321655 Z M477.189187,295.816506 C475.820046,295.713352 474.557981,295.959992 473.402953,296.556433 C472.247925,297.152874 471.259116,297.995828 470.436495,299.08532 C469.613875,300.174812 469.010463,301.451309 468.626242,302.914849 C468.266626,304.203313 468.219545,305.491048 468.484998,306.778092 C468.75045,308.065137 469.015899,309.352162 469.281352,310.639207 C470.560823,318.049649 472.908104,325.007512 476.323265,331.513002 C479.738426,338.018492 483.996372,344.084427 489.097231,349.71099 C487.028022,352.365991 484.980729,355.024029 482.955289,357.685182 C480.929849,360.346335 478.838787,362.998221 476.682041,365.640921 C476.133627,366.367249 475.379392,367.287803 474.419314,368.40261 C473.459235,369.517418 472.489944,370.697861 471.511411,371.943975 C470.532878,373.190089 469.648048,374.404719 468.856894,375.5879 C468.06574,376.771082 467.571039,377.750428 467.372778,378.525967 C466.902438,380.602272 466.9785,382.442907 467.600965,384.047928 C468.22343,385.652948 469.163857,386.900937 470.422274,387.791931 C471.680691,388.682926 473.159942,389.113985 474.860071,389.085122 C476.5602,389.056259 478.302652,388.408488 480.087481,387.141791 C480.873903,386.627446 481.753291,385.769114 482.725673,384.566769 C483.698054,383.364424 484.660839,382.071484 485.614057,380.687912 C486.567274,379.304339 487.492442,377.96148 488.389589,376.659294 C489.286735,375.357108 490.065574,374.261481 490.726131,373.37238 C495.276214,367.673897 499.744842,361.919429 504.132151,356.108803 C508.519461,350.298177 512.662548,344.319426 516.561537,338.17237 C517.470986,336.782647 518.679228,334.854712 520.186301,332.388508 C521.693374,329.922304 523.196994,327.321757 524.697206,324.586787 C526.197418,321.851818 527.510232,319.179822 528.635687,316.570718 C529.761142,313.961615 530.340895,311.900718 530.374964,310.387968 C530.395312,308.337687 529.90073,306.616764 528.891205,305.225147 C527.88168,303.83353 526.635584,302.855012 525.152881,302.289564 C523.670178,301.724115 522.094873,301.658936 520.42692,302.094022 C518.758967,302.529109 517.276759,303.548201 515.98025,305.151328 L515.98025,305.151328 L515.344302,305.86535 C512.993551,311.158793 510.439373,316.311979 507.681689,321.325064 C504.924006,326.338149 501.906829,331.292366 498.63007,336.187866 C492.400682,329.063695 488.144274,320.92255 485.860719,311.764187 C485.570662,310.652218 485.364714,309.418188 485.242871,308.06206 C485.121028,306.705931 484.930459,305.36248 484.671158,304.031667 C484.411857,302.700853 484.030836,301.442218 483.528085,300.255724 C483.025333,299.06923 482.248032,298.089647 481.196157,297.316947 C479.893971,296.419801 478.558328,295.919659 477.189187,295.816506 Z M100.399095,294.39694 L100.00248,294.398212 C98.670231,294.428199 97.3541608,294.589792 96.0542305,294.882997 C94.7543002,295.176201 93.4597758,295.51327 92.1706185,295.894214 C90.8814612,296.275158 89.6665952,296.535651 88.5259839,296.6757 C84.5115211,297.346738 80.50828,297.927335 76.5161407,298.417508 C72.5240014,298.907681 68.5261468,299.532147 64.522457,300.290925 C62.6137379,300.70341 60.7350616,301.179 58.8863718,301.717708 C57.0376819,302.256415 55.5522716,303.396204 54.4300964,305.137107 C53.6050132,306.396222 53.224019,307.645322 53.2871021,308.884446 C53.3501853,310.123569 53.6299193,311.313808 54.1263126,312.455197 C54.6227058,313.596585 55.1848952,314.729877 55.8128974,315.855106 C56.4408997,316.980336 56.8741752,318.151721 57.112737,319.369299 C57.4713572,320.839321 57.7179951,322.122684 57.852658,323.219426 C57.987321,324.316167 58.1192887,325.390958 58.2485651,326.44383 C58.3778415,327.496702 58.4905679,328.59612 58.5867477,329.742118 C58.6829275,330.888116 58.877228,332.28923 59.1696549,333.945505 C58.2137403,334.864435 57.4987309,335.931895 57.024605,337.147918 C56.5504792,338.36394 56.3915232,339.608043 56.5477322,340.880263 C56.7039412,342.152483 57.1372167,343.323869 57.8475718,344.394456 C58.4987306,345.375827 59.3668539,346.143454 60.4519641,346.697356 L60.7532831,346.843121 L64.5669182,377.902687 C64.6638755,378.692341 64.8924384,379.465823 65.2526137,380.223158 C65.612789,380.980493 66.0553104,381.683175 66.5801913,382.331224 C67.859297,384.044473 69.3208009,385.067343 70.9647469,385.399865 C72.608693,385.732386 74.1441082,385.543861 75.5710385,384.834283 C76.9979688,384.124706 78.1955373,382.997995 79.16378,381.454116 C80.0674732,380.013163 80.5608528,378.389862 80.643931,376.584173 L80.6554534,376.194448 L77.0518913,346.84579 C79.5085924,346.544145 82.0556879,346.253667 84.6932542,345.974345 C87.3308205,345.695024 89.9521879,345.2841 92.557435,344.74156 C95.1626822,344.199021 97.680541,343.489093 100.111087,342.611756 C102.541633,341.734419 104.778203,340.54693 106.820864,339.049254 C108.534113,337.770148 109.559676,336.330579 109.897584,334.730502 C110.235492,333.130426 110.074288,331.636187 109.413966,330.247739 C108.753645,328.859292 107.69543,327.675579 106.239291,326.696563 C104.783152,325.717547 103.16694,325.248037 101.390607,325.288019 C99.8774929,325.295682 98.3170612,325.643136 96.7092657,326.33039 C95.1014702,327.017644 93.5625844,327.540573 92.0925619,327.899193 C89.3387687,328.682627 86.519602,329.295959 83.6349773,329.739209 C80.7503526,330.182458 77.9042538,330.576445 75.0965954,330.921183 C74.5579436,326.534216 74.1047055,323.205558 73.7368672,320.935109 C73.369029,318.66466 72.9950324,316.706714 72.6148661,315.061213 C75.4887177,314.530224 78.3759924,314.108915 81.2767766,313.797275 C84.1775608,313.485634 87.0702219,313.108195 89.9548466,312.664946 C92.4007747,312.275561 94.9809663,311.891958 97.6954988,311.514124 C100.410031,311.136291 102.832461,310.193163 104.962861,308.684714 C106.192767,307.821204 107.083252,306.732198 107.634345,305.417663 C108.185437,304.103128 108.402117,302.785142 108.284391,301.463666 C108.166665,300.142189 107.72531,298.905 106.960312,297.752061 C106.195314,296.599121 105.106308,295.708636 103.693261,295.080577 C102.790634,294.692658 101.82275,294.469505 100.78959,294.411113 L100.399095,294.39694 Z M428.162008,268.421461 C426.289596,268.523854 424.52124,269.212121 422.856887,270.486283 C421.275751,271.696738 420.365706,273.246176 420.126726,275.13464 L420.094569,275.435636 L413.680677,348.74676 C413.642155,349.187069 413.641885,349.697269 413.679868,350.277376 C413.717851,350.857482 413.805643,351.375386 413.943244,351.831105 C414.356049,353.198259 415.108705,354.484208 416.201235,355.688991 C417.293765,356.893773 418.575882,357.959841 420.047624,358.887225 C421.519367,359.814608 423.036216,360.479723 424.598216,360.882588 C426.160216,361.285453 427.620919,361.324513 428.980369,360.99977 C430.707475,360.529721 431.953246,359.729183 432.717719,358.598131 C433.482193,357.467079 433.902117,356.217166 433.977504,354.848355 C434.052892,353.479545 433.820066,352.083789 433.279021,350.661047 C432.79208,349.38058 432.163158,348.285363 431.392241,347.375372 L431.130009,347.078902 L429.998963,346.314432 C430.279635,344.120591 430.579833,341.19643 430.899566,337.541863 C431.2193,333.887297 431.593786,329.860453 432.023038,325.461213 C432.45229,321.061973 432.876854,316.462736 433.296745,311.663365 C433.716635,306.863995 434.101022,302.216876 434.449916,297.721869 C434.79881,293.226863 435.138897,289.086092 435.470187,285.299432 C435.801477,281.512772 436.067275,278.474684 436.26759,276.185076 C436.352338,275.216396 436.147037,274.266721 435.651679,273.336024 C435.156321,272.405327 434.497234,271.571237 433.674399,270.833729 C432.851563,270.096221 431.949212,269.507051 430.967319,269.066203 C429.985425,268.625355 429.050331,268.410443 428.162008,268.421461 Z M147.133283,293.042631 C145.78812,293.555726 144.593897,294.414976 143.550576,295.620408 C142.507256,296.82584 141.806551,298.234595 141.448441,299.846715 C141.029812,301.993123 141.009588,304.14075 141.387766,306.289659 C141.765944,308.438569 142.010546,310.572316 142.12158,312.690967 C142.410568,316.853944 142.6557,320.990844 142.85698,325.101745 L143.142456,331.25835 C143.343736,335.369252 143.588867,339.506152 143.877855,343.669129 C143.928746,344.640177 143.963349,345.722712 143.981667,346.916765 C143.999985,348.110819 144.08451,349.301385 144.235243,350.4885 C144.385977,351.675614 144.64474,352.81279 145.01154,353.900061 C145.37834,354.987332 145.937971,355.953833 146.690452,356.799592 C148.009607,358.32381 149.472909,359.220822 151.080402,359.490655 C152.687895,359.760488 154.159574,359.550583 155.495484,358.860935 C156.831394,358.171286 157.99314,357.114571 158.980756,355.69076 C159.90253,354.361869 160.430734,352.880126 160.565381,351.245493 L160.58821,350.892874 L160.539633,349.965969 L159.873434,337.254133 C159.651367,333.016833 159.385164,328.781909 159.07482,324.549236 C158.882061,322.222422 158.716072,319.865907 158.576851,317.479646 L158.477453,315.684372 L158.005562,306.680155 C157.876023,304.208396 157.766148,302.111847 157.675933,300.390444 C157.585718,298.669041 156.788141,296.962605 155.28318,295.271086 C154.145206,293.825892 152.8387,292.964922 151.363622,292.688149 C149.888545,292.411377 148.478446,292.529536 147.133283,293.042631 Z M216.213709,284.552911 C213.793698,285.207248 211.45695,286.230583 209.203394,287.622948 C206.949839,289.015314 204.811949,290.662156 202.789662,292.563525 C200.883541,291.341704 198.684735,290.506202 196.19318,290.056994 C193.701624,289.607785 191.50493,290.060877 189.60303,291.416282 C188.200894,292.452504 187.237153,293.642624 186.711781,294.986677 C186.186408,296.330731 186.06358,297.699119 186.343293,299.091882 C186.623006,300.484646 187.223147,301.754826 188.143735,302.90246 C189.064322,304.050095 190.26949,304.94559 191.759275,305.588974 C192.092185,307.065031 192.244712,308.093385 192.216859,308.674066 C192.190995,309.21327 192.161205,309.350521 192.127489,309.085822 L192.125018,309.072745 L196.000474,345.941288 C196.231478,348.139137 197.058264,349.874357 198.480859,351.146999 C199.903454,352.41964 201.490369,353.141687 203.241652,353.31316 C204.992935,353.484634 206.684132,353.084672 208.315293,352.113264 C209.946455,351.141856 211.05137,349.603583 211.630073,347.4984 C211.988383,346.340788 212.129318,345.170039 212.052881,343.986126 L212.019351,343.591001 L208.485019,309.964073 C209.271757,308.992532 210.156824,307.899564 211.140248,306.685138 C212.123671,305.470711 213.204232,304.334976 214.381963,303.277897 C215.559694,302.220819 216.802154,301.356939 218.10938,300.686233 C219.416606,300.015528 220.79199,299.782085 222.235574,299.985899 C222.975847,300.263634 223.467418,300.50084 223.710303,300.697524 C223.953189,300.894209 224.356847,301.140655 224.921292,301.43687 C226.670066,302.853 228.439736,303.622501 230.230356,303.745397 C232.020976,303.868293 233.580304,303.482192 234.908387,302.587081 C236.236469,301.69197 237.210638,300.389649 237.830921,298.680079 C238.451204,296.97051 238.42606,295.039929 237.755487,292.888281 C237.334662,291.421463 236.534408,290.150095 235.354698,289.074138 C234.174989,287.998181 232.928174,287.129284 231.614217,286.46742 C228.977063,285.055778 226.356053,284.220209 223.751107,283.960689 C221.14616,283.701169 218.63372,283.898574 216.213709,284.552911 Z M365.951007,255.171271 C362.415078,255.436465 359.21069,256.364633 356.337748,257.955801 C353.464805,259.546969 351.05599,261.80109 349.111228,264.718232 C347.166467,267.635374 345.928911,271.17125 345.398521,275.325967 C344.95653,277.977914 344.757637,280.629821 344.801836,283.281768 C344.846035,285.933715 344.912333,288.629821 345.000731,291.370166 C343.851554,291.458564 342.768692,291.657457 341.752112,291.966851 C340.735533,292.276245 339.785266,292.917122 338.901284,293.889503 C337.663708,295.215476 336.956533,296.651926 336.779737,298.198895 C336.60294,299.745864 336.846032,301.204413 337.509018,302.574586 C338.172005,303.944758 339.18857,305.093918 340.558742,306.022099 C341.83757,306.888402 343.251136,307.350424 344.799478,307.408177 L345.133328,307.414365 L345.133328,342.287293 C345.133328,343.082877 345.265923,343.878449 345.531118,344.674033 C345.796313,345.469617 346.1499,346.220991 346.591891,346.928177 C347.65267,348.78454 348.978624,349.977898 350.569792,350.508287 C352.16096,351.038677 353.707906,351.038677 355.210676,350.508287 C356.713446,349.977898 358.039399,349.005532 359.188576,347.59116 C360.261142,346.27108 360.948674,344.720008 361.251191,342.937902 L361.310123,342.552486 L361.310123,307.149171 C362.547699,307.149171 363.962049,307.17127 365.553217,307.21547 C367.144386,307.259669 368.779728,307.21547 370.459295,307.082873 C372.138861,306.950276 373.730005,306.707184 375.232775,306.353591 C376.735545,305.999998 378.061499,305.38122 379.210676,304.497238 C380.448251,303.524857 381.310121,302.375697 381.796311,301.049724 C382.282502,299.72375 382.392998,298.419896 382.127803,297.138122 C381.862608,295.856347 381.288028,294.662989 380.404046,293.558011 C379.520064,292.453033 378.370904,291.635362 376.956532,291.104972 C376.249346,290.839778 375.27698,290.662984 374.039405,290.574586 C372.80183,290.486187 371.453777,290.441989 369.995206,290.441989 C368.536635,290.441989 367.055987,290.486187 365.553217,290.574586 C364.050447,290.662984 362.636097,290.751381 361.310123,290.839779 C361.310123,288.80662 361.288024,286.751392 361.243825,284.674033 C361.199626,282.596675 361.221725,280.541447 361.310123,278.508287 C361.310123,277.624305 361.464818,276.718237 361.774212,275.790055 C362.083606,274.861874 362.52559,274.022103 363.100179,273.270718 C363.674767,272.519333 364.359843,271.922654 365.155427,271.480663 C365.951011,271.038672 366.83498,270.906076 367.807361,271.082873 C368.779742,271.259669 369.707909,271.52486 370.591891,271.878453 C371.475874,272.232046 372.404041,272.585634 373.376422,272.939227 C374.96759,273.734811 376.580834,274.30939 378.216201,274.662983 C379.851568,275.016576 381.50901,274.839783 383.188576,274.132597 C384.426152,273.602207 385.376418,272.828734 386.039405,271.812155 C386.702392,270.795575 387.144376,269.690614 387.365372,268.497238 C387.586368,267.303861 387.52007,266.110503 387.166477,264.917127 C386.812884,263.723751 386.238304,262.685087 385.44272,261.801105 C384.293543,260.56353 382.989689,259.546965 381.531118,258.751381 C380.072547,257.955797 378.5477,257.29282 376.956532,256.762431 C373.155408,255.436457 369.486937,254.906076 365.951007,255.171271 Z M289.265084,284.65817 C285.041772,285.153955 281.033297,286.2499 277.239539,287.946038 C273.44578,289.642176 270.445635,291.809454 268.239012,294.447936 C266.525178,296.571552 264.993834,299.059492 263.644936,301.911829 C262.296037,304.764165 261.279551,307.744885 260.595447,310.854078 C259.911342,313.963271 259.607814,317.098976 259.684854,320.261286 C259.761893,323.423597 260.369424,326.37649 261.507465,329.120055 C263.139447,333.171131 265.156855,336.498322 267.559751,339.101729 C269.962647,341.705135 272.740324,343.718682 275.892864,345.14243 C279.045404,346.566177 282.583464,347.448314 286.507149,347.788868 C290.430834,348.129422 294.686506,348.051692 299.274293,347.555676 C301.13944,347.382978 303.186679,347.027933 305.41607,346.49053 C307.645462,345.953126 309.499427,345.094378 310.978021,343.914257 C312.799475,342.455204 313.956232,340.921555 314.448329,339.313264 C314.940425,337.704974 314.896617,336.236402 314.316904,334.907506 C313.737191,333.57861 312.712765,332.480488 311.243595,331.613109 C309.866248,330.79994 308.173538,330.368558 306.16542,330.318952 L305.759591,330.314121 L304.891409,330.507627 C302.340544,331.238191 299.644906,331.81876 296.804415,332.249351 C293.963924,332.679943 291.235805,332.751346 288.619977,332.463565 C286.004148,332.175783 283.607845,331.464439 281.430995,330.329511 C279.254145,329.194582 277.521761,327.373329 276.233791,324.865696 C279.106591,324.670921 282.065177,324.588652 285.109637,324.618885 C288.154097,324.649119 291.171607,324.513214 294.162257,324.211166 C297.152908,323.909118 300.100513,323.414147 303.00516,322.726239 C305.909808,322.03833 308.701563,320.889556 311.380511,319.279882 C314.166616,317.605821 316.17522,315.48741 317.406383,312.924584 C318.637546,310.361758 319.241504,307.665371 319.218274,304.835342 C319.195044,302.005313 318.544742,299.223962 317.26735,296.491205 C315.989958,293.758448 314.2144,291.470915 311.940624,289.628537 C309.21637,287.400529 305.81191,285.891204 301.727142,285.100518 C297.642374,284.309832 293.488397,284.162384 289.265084,284.65817 Z M294.90295,300.412722 C297.604435,300.539652 300.049028,301.331363 302.236801,302.78788 C302.858824,303.216282 303.196851,303.778852 303.250891,304.475609 C303.304931,305.172366 303.24641,305.863824 303.075326,306.550003 C302.77593,307.750817 301.640211,308.65199 299.668137,309.25355 C297.696063,309.85511 295.359434,310.274656 292.658179,310.512202 C289.956924,310.749748 287.116302,310.90698 284.136229,310.983904 C281.156156,311.060828 278.465576,311.164368 276.064409,311.294525 C277.241763,308.399417 278.510677,306.233235 279.871191,304.795913 C281.146672,303.448423 282.813358,302.458726 284.871295,301.826797 L285.288099,301.705181 L287.924723,300.996006 C289.875412,300.480219 292.201464,300.285793 294.90295,300.412722 Z M148.400041,266.500326 L148.0661,266.504403 C145.945137,266.571298 143.976187,267.426891 142.159192,269.071208 C140.414876,270.649752 139.424012,272.984177 139.186573,276.074549 L139.160817,276.464782 L139.341809,277.384748 C139.945119,280.451314 141.254813,282.63989 143.270931,283.950542 C145.28705,285.261195 147.392758,285.748337 149.588119,285.411984 C151.78348,285.075632 153.699039,284.0458 155.334854,282.322459 C156.970668,280.599118 157.62164,278.241399 157.287788,275.249231 C157.04684,272.340713 155.979904,270.139415 154.086948,268.645268 C152.393251,267.308401 150.608312,266.596391 148.732087,266.509223 L148.400041,266.500326 Z M92.0666444,233.446072 L91.8986526,233.456034 C91.5837191,233.489135 91.3065075,233.602062 91.0670096,233.79482 C90.8674279,233.955452 90.7228177,234.168492 90.6331761,234.433947 L90.5859873,234.599509 L87.5782199,247.358803 L82.0684149,235.595293 C81.9158017,235.259403 81.6927336,235.010526 81.3992039,234.848654 C81.1056743,234.686782 80.8014473,234.622397 80.4865138,234.655498 C80.1715803,234.688599 79.8915315,234.814393 79.6463591,235.032886 C79.4420487,235.214962 79.2946801,235.440512 79.2042504,235.709541 L79.1568252,235.876175 L76.0758127,248.416928 L70.5712342,236.703144 C70.4203631,236.38383 70.2036164,236.155237 69.9209878,236.017357 C69.6383591,235.879477 69.3312949,235.827959 68.9997859,235.862802 C68.5853997,235.906356 68.2379551,236.068561 67.9574416,236.349422 C67.676928,236.630284 67.5584499,236.977902 67.6020036,237.392289 C67.6173346,237.538152 67.6614155,237.702444 67.7342475,237.885165 L67.7942624,238.025662 L74.6946785,252.257334 C74.8455496,252.576648 75.0838863,252.811352 75.4096957,252.961452 C75.7355052,253.111552 76.0807346,253.167438 76.4453945,253.12911 C76.8100543,253.090783 77.1361204,252.964342 77.4236026,252.749782 C77.6700158,252.565874 77.8467333,252.333888 77.9537587,252.053819 L78.0014638,251.909777 L80.9724961,239.757649 L86.3305846,251.034351 C86.4814558,251.353665 86.7239363,251.587933 87.0580334,251.737162 C87.3921306,251.886391 87.7415038,251.941842 88.1061637,251.903514 C88.4708235,251.865187 88.7968896,251.738745 89.0843718,251.524186 C89.330785,251.340277 89.5075026,251.108291 89.6145279,250.828222 L89.662233,250.684181 L93.4529273,235.328827 C93.506188,235.038334 93.5249784,234.818501 93.509299,234.669322 C93.4657453,234.254936 93.2858698,233.938675 92.9696672,233.720531 C92.7438082,233.564714 92.4971336,233.475213 92.2296393,233.452026 L92.0666444,233.446072 Z M105.214602,237.33539 C104.070896,237.455598 103.075251,237.828377 102.227638,238.453739 C101.380025,239.0791 100.758119,239.898589 100.3619,240.91223 C99.9656811,241.92587 99.8329043,243.054253 99.9635655,244.297411 C100.169139,246.253314 100.903001,247.734704 102.165173,248.741626 C103.427345,249.748549 105.036359,250.149217 106.992261,249.943643 C107.638704,249.875699 108.30827,249.708965 109.000979,249.443435 C109.693689,249.177905 110.305267,248.858061 110.835731,248.483894 C111.412437,248.07135 111.673783,247.608166 111.619777,247.094327 C111.581449,246.729667 111.463943,246.448747 111.267252,246.251559 C111.070562,246.054371 110.831329,245.970586 110.549547,246.000203 C110.317491,246.024593 109.966773,246.195521 109.497384,246.512993 C109.007935,246.799056 108.567137,247.029727 108.174976,247.205013 C107.782814,247.3803 107.321534,247.495815 106.791119,247.551564 C105.746866,247.66132 104.922947,247.475594 104.319337,246.994383 C103.762159,246.550189 103.368562,245.828211 103.138536,244.828432 L103.084437,244.572699 L110.419036,243.801802 C111.048903,243.7356 111.326377,243.346133 111.251464,242.633389 C111.126029,241.439957 110.793381,240.427525 110.25351,239.596065 C109.713639,238.764604 109.012355,238.151221 108.149635,237.755899 C107.286916,237.360576 106.308581,237.220408 105.214602,237.33539 Z M119.388926,230.599523 L119.200892,230.611591 C118.753355,230.658629 118.397622,230.821705 118.133684,231.100824 C117.902739,231.345054 117.792173,231.666442 117.801987,232.064996 L117.813562,232.24053 L119.37365,247.083769 C119.424172,247.564457 119.607967,247.918011 119.925041,248.144443 C120.242115,248.370875 120.624414,248.460571 121.071951,248.413533 C121.519488,248.366495 121.878929,248.198839 122.150284,247.910561 C122.387719,247.658317 122.501935,247.332422 122.492933,246.932866 L122.481531,246.757117 L120.921443,231.913878 C120.870921,231.43319 120.683417,231.084215 120.358927,230.866942 C120.127148,230.711747 119.863983,230.623979 119.569427,230.603637 L119.388926,230.599523 Z M135.124848,234.191696 C133.898265,234.320615 132.840463,234.699928 131.951411,235.329644 C131.06236,235.959361 130.407738,236.786478 129.987527,237.811019 C129.567317,238.835561 129.423415,239.977681 129.555818,241.237416 C129.688222,242.49715 130.052701,243.573268 130.649267,244.465804 C131.245833,245.358341 132.031076,246.013173 133.00502,246.430323 C133.978964,246.847473 135.070924,246.992457 136.280931,246.86528 C136.993675,246.790367 137.679817,246.621891 138.339375,246.359845 C138.998934,246.097799 139.568203,245.774023 140.047199,245.388508 C140.31156,245.193137 140.495007,244.985325 140.597546,244.765066 C140.700085,244.544806 140.736546,244.293789 140.706929,244.012007 C140.670344,243.663922 140.548693,243.383438 140.341973,243.170545 C140.135253,242.957653 139.899293,242.865145 139.634086,242.893019 C139.451756,242.912183 139.273349,242.96864 139.098858,243.062394 C138.924368,243.156147 138.72065,243.290677 138.487697,243.465988 C138.112535,243.723281 137.769881,243.931068 137.459726,244.089355 C137.149571,244.247643 136.787305,244.348562 136.372919,244.392116 C135.345241,244.50013 134.518498,244.247668 133.892663,243.634725 C133.266828,243.021781 132.888586,242.093744 132.757925,240.850585 C132.625522,239.590851 132.801678,238.596165 133.286398,237.866498 C133.771118,237.13683 134.527306,236.717996 135.554984,236.609982 C135.985946,236.564687 136.373708,236.586775 136.718283,236.676248 C137.062858,236.76572 137.428794,236.899032 137.816102,237.076185 C138.027202,237.171307 138.236558,237.249853 138.444174,237.311825 C138.65179,237.373796 138.84676,237.3952 139.02909,237.376036 C139.310872,237.346419 139.527022,237.210583 139.677545,236.968522 C139.828068,236.72646 139.884166,236.423104 139.845838,236.058445 C139.790089,235.52803 139.47872,235.116661 138.911721,234.824326 C138.381356,234.561657 137.779236,234.373568 137.105342,234.260053 C136.431449,234.146538 135.77129,234.123752 135.124848,234.191696 Z M152.267919,232.389887 C151.02476,232.520548 149.961944,232.892008 149.079438,233.504279 C148.196932,234.116549 147.548856,234.926219 147.13519,235.933314 C146.721525,236.940409 146.581767,238.082094 146.715913,239.358404 C146.850058,240.634713 147.224567,241.726536 147.839451,242.633906 C148.454335,243.541275 149.257024,244.202653 150.247543,244.618061 C151.238063,245.033468 152.354885,245.175839 153.598044,245.045178 C154.841202,244.914517 155.904019,244.543057 156.786525,243.930786 C157.669031,243.318516 158.312528,242.505137 158.717034,241.490626 C159.121541,240.476114 159.256719,239.330721 159.122574,238.054411 C158.988428,236.778102 158.618498,235.689987 158.012774,234.790034 C157.407049,233.890082 156.608939,233.232411 155.618419,232.817004 C154.6279,232.401597 153.511078,232.259226 152.267919,232.389887 Z M180.499909,229.422585 C179.604835,229.516661 178.822715,229.808344 178.153524,230.297643 C177.484334,230.786941 177.004001,231.39883 176.712511,232.133326 C175.938942,230.672844 174.640527,230.038431 172.817228,230.230067 C171.988455,230.317175 171.273295,230.568304 170.671725,230.983461 C170.136997,231.352489 169.71685,231.835261 169.411274,232.431789 L169.302054,232.660819 L169.239337,232.064106 C169.192299,231.616569 169.019404,231.287006 168.720648,231.075407 C168.421892,230.863809 168.057039,230.780659 167.626077,230.825955 C167.17854,230.872993 166.818664,231.036505 166.546438,231.316495 C166.308241,231.561487 166.192929,231.876958 166.200502,232.262917 L166.211271,232.432644 L167.222584,242.054643 C167.273107,242.535331 167.456902,242.888886 167.773976,243.115318 C168.091049,243.341749 168.473349,243.431445 168.920886,243.384407 C169.368423,243.337369 169.727864,243.169713 169.999218,242.881435 C170.236654,242.629192 170.350869,242.303296 170.341867,241.90374 L170.330465,241.727992 L169.747719,236.183532 C169.646674,235.222156 169.803169,234.439016 170.217207,233.834087 C170.631245,233.229158 171.244354,232.884016 172.056551,232.798651 C172.719569,232.728965 173.233151,232.871895 173.597312,233.227446 C173.928369,233.550675 174.148536,234.103688 174.25782,234.8865 L174.287279,235.128238 L174.930129,241.244548 C174.980651,241.725236 175.16859,242.078355 175.493952,242.303915 C175.819313,242.529476 176.205757,242.618736 176.653294,242.571698 C177.100831,242.52466 177.456128,242.35744 177.719195,242.070033 C177.949378,241.818552 178.059515,241.493085 178.049606,241.093624 L178.03801,240.917896 L177.455264,235.373437 C177.354219,234.412061 177.514857,233.628484 177.937183,233.022685 C178.359509,232.416885 178.976761,232.071307 179.788958,231.985942 C180.451976,231.916256 180.965558,232.059186 181.32972,232.414738 C181.660776,232.737966 181.880944,233.290979 181.990228,234.073791 L182.019687,234.315529 L182.662537,240.431839 C182.713059,240.912527 182.896854,241.266081 183.213928,241.492513 C183.531002,241.718945 183.913301,241.808641 184.360838,241.761603 C184.824951,241.712822 185.188535,241.544731 185.451602,241.257324 C185.681786,241.005843 185.791922,240.680376 185.782014,240.280915 L185.770418,240.105187 L185.127568,233.988878 C184.9429,232.23188 184.456969,230.996754 183.66976,230.283461 C182.882552,229.570169 181.825945,229.283213 180.499909,229.422585 Z M107.540787,240.094854 C108.016529,240.528755 108.332794,241.187114 108.489592,242.06995 L108.528401,242.316289 L102.909352,242.906875 C102.904276,241.901895 103.126636,241.107642 103.576438,240.524093 C104.02624,239.940543 104.673806,239.604348 105.519154,239.515498 C106.347926,239.428391 107.021797,239.621507 107.540787,240.094854 Z M154.912023,235.543277 C155.512994,236.158834 155.880547,237.104753 156.014693,238.381063 C156.15058,239.673948 155.988162,240.679758 155.527434,241.398525 C155.066706,242.117292 154.330801,242.529804 153.319699,242.636076 C152.325172,242.740605 151.527871,242.489238 150.92777,241.881969 C150.32767,241.2747 149.959682,240.324637 149.823794,239.031752 C149.689648,237.755443 149.856646,236.75334 150.324791,236.025415 C150.792936,235.297489 151.52426,234.881268 152.518787,234.776739 C153.513314,234.67221 154.311051,234.927721 154.912023,235.543277 Z M198.040789,227.578964 C196.897083,227.699173 195.901439,228.071952 195.053826,228.697313 C194.206213,229.322675 193.584306,230.142164 193.188087,231.155804 C192.791868,232.169445 192.659092,233.297827 192.789753,234.540986 C192.995327,236.496889 193.729188,237.978279 194.991361,238.985201 C196.253533,239.992123 197.862546,240.392791 199.818449,240.187218 C200.464891,240.119274 201.134457,239.952539 201.827167,239.687009 C202.519876,239.421479 203.131454,239.101636 203.661918,238.727469 C204.238625,238.314925 204.499971,237.851741 204.445964,237.337902 C204.407637,236.973242 204.29013,236.692322 204.09344,236.495134 C203.89675,236.297946 203.657517,236.214161 203.375734,236.243777 C203.143678,236.268168 202.792961,236.439096 202.323572,236.756568 C201.834123,237.04263 201.393324,237.273302 201.001163,237.448588 C200.609002,237.623874 200.147721,237.73939 199.617307,237.795139 C198.573053,237.904894 197.749134,237.719169 197.145525,237.237958 C196.588347,236.793763 196.194749,236.071786 195.964724,235.072006 L195.910625,234.816274 L203.245224,234.045376 C203.875091,233.979175 204.152564,233.589708 204.077652,232.876963 C203.952217,231.683531 203.619569,230.6711 203.079698,229.839639 C202.539827,229.008178 201.838542,228.394796 200.975823,227.999473 C200.113104,227.604151 199.134769,227.463982 198.040789,227.578964 Z M225.023286,221.255133 L224.852864,221.26676 C224.372176,221.317283 224.004883,221.489953 223.750975,221.784777 C223.528805,222.042748 223.421843,222.359175 223.430085,222.734066 L223.440671,222.898313 L223.681087,225.185713 L222.437934,225.316374 C221.990397,225.363412 221.656914,225.499012 221.437476,225.723178 C221.218038,225.947345 221.128355,226.250041 221.168425,226.631277 C221.208494,227.012512 221.359151,227.289948 221.620401,227.463592 C221.84433,227.61243 222.136686,227.6802 222.497477,227.666904 L222.683576,227.6535 L223.926728,227.522839 L224.496409,232.942984 C224.780221,235.643275 226.245466,236.990226 228.892187,236.983873 L229.143779,236.979313 L229.820307,236.958482 C230.420508,236.928916 230.871323,236.793552 231.172768,236.552387 C231.474212,236.311222 231.604027,235.991739 231.562215,235.593928 C231.493923,234.94417 231.094253,234.613919 230.363196,234.603166 L230.201468,234.605751 L229.524939,234.626582 C228.448879,234.660298 227.824688,234.127618 227.652348,233.028526 L227.627808,232.8401 L227.034609,227.196188 L229.147968,226.974065 C229.595506,226.927027 229.928988,226.791427 230.148426,226.56726 C230.367865,226.343094 230.457548,226.040397 230.417478,225.659162 C230.377409,225.277927 230.226751,225.000491 229.965502,224.826847 C229.741573,224.678009 229.449217,224.610239 229.088425,224.623535 L228.902327,224.636939 L226.788968,224.859062 L226.548552,222.571661 C226.501514,222.124124 226.323169,221.782565 226.013512,221.546975 C225.781269,221.370282 225.505589,221.273569 225.186467,221.256835 L225.023286,221.255133 Z M242.558076,222.900009 C241.314917,223.03067 240.252101,223.40213 239.369594,224.014401 C238.487088,224.626671 237.839012,225.436342 237.425347,226.443436 C237.011682,227.450531 236.871924,228.592216 237.006069,229.868526 C237.140215,231.144835 237.514724,232.236658 238.129608,233.144028 C238.744491,234.051397 239.547181,234.712776 240.5377,235.128183 C241.528219,235.54359 242.645042,235.685961 243.8882,235.5553 C245.131359,235.424639 246.194175,235.053179 247.076681,234.440908 C247.959188,233.828638 248.602684,233.015259 249.007191,232.000748 C249.411697,230.986236 249.546876,229.840843 249.41273,228.564533 C249.278585,227.288224 248.908655,226.200109 248.30293,225.300156 C247.697205,224.400204 246.899095,223.742534 245.908576,223.327126 C244.918056,222.911719 243.801234,222.769348 242.558076,222.900009 Z M245.202179,226.053399 C245.803151,226.668956 246.170704,227.614875 246.304849,228.891185 C246.440737,230.18407 246.278319,231.18988 245.817591,231.908647 C245.356862,232.627414 244.620958,233.039927 243.609856,233.146198 C242.615329,233.250727 241.818027,232.99936 241.217927,232.392091 C240.617827,231.784822 240.249838,230.834759 240.11395,229.541874 C239.979805,228.265565 240.146802,227.263463 240.614947,226.535537 C241.083092,225.807612 241.814417,225.391391 242.808944,225.286862 C243.803471,225.182333 244.601208,225.437843 245.202179,226.053399 Z M200.366975,230.338428 C200.842716,230.772329 201.158981,231.430689 201.315779,232.313525 L201.354588,232.559864 L195.73554,233.15045 C195.730463,232.14547 195.952823,231.351217 196.402625,230.767667 C196.852428,230.184117 197.499993,229.847922 198.345341,229.759073 C199.174113,229.671965 199.847985,229.865082 200.366975,230.338428 Z" id="Combined-Shape"></path>
            </g>
        </g>
    </g>
</svg>