<?xml version="1.0" encoding="UTF-8"?>
<svg width="1024px" height="1024px" viewBox="0 0 1024 1024" version="1.1" xmlns="http://www.w3.org/2000/svg" xmlns:xlink="http://www.w3.org/1999/xlink">
    <!-- Generator: Sketch 56 (81588) - https://sketch.com -->
    <title>LambdaHat</title>
    <desc>Created with Sketch.</desc>
    <defs>
        <path d="M125.049394,214.018284 C147.961775,221.702085 192.929204,229.599707 259.951678,237.711149 C326.974153,245.822591 397.435801,247.244791 471.336623,241.977748 C442.714312,270.735606 389.154141,288.0374 310.656109,293.883131 C192.90906,302.651728 4.54166856,260.038703 0.462001731,247.001327 C-2.25777616,238.309742 39.2713545,227.315395 125.049394,214.018284 Z" id="path-1"></path>
        <filter x="-0.3%" y="-1.9%" width="100.6%" height="107.4%" filterUnits="objectBoundingBox" id="filter-2">
            <feOffset dx="0" dy="3" in="SourceAlpha" result="shadowOffsetOuter1"></feOffset>
            <feColorMatrix values="0 0 0 0 0.4   0 0 0 0 0   0 0 0 0 0.0648031357  0 0 0 1 0" type="matrix" in="shadowOffsetOuter1"></feColorMatrix>
        </filter>
    </defs>
    <g id="LambdaHat" stroke="none" stroke-width="1" fill="none" fill-rule="evenodd">
        <rect id="Frame" x="0" y="0" width="1024" height="1024"></rect>
        <g id="Group" transform="translate(171.500000, 88.523274)">
            <g id="Rectangle">
                <use fill="black" fill-opacity="1" filter="url(#filter-2)" xlink:href="#path-1"></use>
                <use fill="#951922" fill-rule="evenodd" xlink:href="#path-1"></use>
            </g>
            <g id="Group-2" transform="translate(107.524303, 6.003210)">
                <path d="M42.0938158,41.1499409 C71.7037757,14.717182 130.019775,1.50080257 217.041815,1.50080257 C315.176652,1.50080257 380.90928,19.0088709 414.239701,54.0250077 C447.570121,89.0411445 463.804601,147.318735 462.943141,228.857778 C403.418989,239.291344 332.538795,243.332169 250.302558,240.980254 C126.948203,237.452381 0.975697392,226.553162 0.975697392,218.046634 C0.975697392,209.540105 11.0182771,197.278178 11.0182771,166.870458 C11.0182771,136.462737 15.7239181,64.6903022 42.0938158,41.1499409 Z" id="Rectangle" fill="#C7CBD1"></path>
                <path d="M42.0938158,41.1499409 C71.7037757,14.717182 130.019775,1.50080257 217.041815,1.50080257 C232.267807,-1.71886206 250.563285,5.29583309 271.92825,22.544888 C293.293215,39.7939429 303.975697,112.605732 303.975697,240.980254 C350.429841,243.332169 332.538795,243.332169 250.302558,240.980254 C126.948203,237.452381 0.975697392,226.553162 0.975697392,218.046634 C0.975697392,209.540105 11.0182771,197.278178 11.0182771,166.870458 C11.0182771,136.462737 15.7239181,64.6903022 42.0938158,41.1499409 Z" id="Rectangle-Copy" fill-opacity="0.2" fill="#ABB0BA"></path>
                <path d="M209.475697,3.00160514 C156.520412,7.07101544 122.345609,23.96899 106.951288,53.6955287 C91.5569666,83.4220675 86.3333373,141.564221 91.2803995,228.12199" id="Line" stroke="#ABB0BA" stroke-width="4.5" stroke-linecap="round" stroke-linejoin="round"></path>
                <path d="M218.475697,3.00160514 C233.401449,4.33041467 251.218966,10.8448423 271.92825,22.544888 C292.637534,34.2449337 303.320016,106.772775 303.975697,240.128411" id="Line-2" stroke="#ABB0BA" stroke-width="4.5" stroke-linecap="round" stroke-linejoin="round"></path>
            </g>
            <ellipse id="Oval" fill="#951922" cx="327.274303" cy="6.75361156" rx="23.25" ry="6.75361156"></ellipse>
            <path d="M165.478426,102.141281 C178.204396,105.487274 188.906012,107.16027 197.583275,107.16027 C206.260538,107.16027 219.086693,106.038127 236.061741,103.79384 L236.061741,163.618723 L197.542514,192.341192 L163.461707,159.860478 L165.478426,102.141281 Z M192.463214,123.304274 L178.273215,155.504835 L186.088023,154.821128 L197.811741,136.128194 L209.153421,154.821128 L221.061741,154.821128 L202.457703,123.304274 L192.463214,123.304274 Z" id="LambdaLogo" fill="#951922" transform="translate(199.761724, 147.241237) rotate(5.000000) translate(-199.761724, -147.241237) "></path>
        </g>
    </g>
</svg>