<?xml version="1.0" encoding="UTF-8"?>
<svg width="1024px" height="1024px" viewBox="0 0 1024 1024" version="1.1" xmlns="http://www.w3.org/2000/svg" xmlns:xlink="http://www.w3.org/1999/xlink">
    <!-- Generator: Sketch 55.2 (78181) - https://sketchapp.com -->
    <title>LambdaHat</title>
    <desc>Created with Sketch.</desc>
    <defs>
        <path d="M84.0329292,142.602557 C99.3078503,147.722352 129.286136,152.984618 173.967786,158.389354 C218.649435,163.79409 265.623867,164.741716 314.891082,161.232232 C295.809542,180.393885 260.102761,191.922246 207.770739,195.817316 C129.272707,201.659921 3.69444571,173.26643 0.974667821,164.579494 C-0.838517437,158.788203 26.8475697,151.462557 84.0329292,142.602557 Z" id="path-1"></path>
        <filter x="-0.3%" y="-1.9%" width="100.6%" height="107.4%" filterUnits="objectBoundingBox" id="filter-2">
            <feOffset dx="0" dy="2" in="SourceAlpha" result="shadowOffsetOuter1"></feOffset>
            <feColorMatrix values="0 0 0 0 0.4   0 0 0 0 0   0 0 0 0 0.0648031357  0 0 0 1 0" type="matrix" in="shadowOffsetOuter1"></feColorMatrix>
        </filter>
    </defs>
    <g id="LambdaHat" stroke="none" stroke-width="1" fill="none" fill-rule="evenodd">
        <rect id="Frame" x="0" y="0" width="1024" height="1024"></rect>
        <g id="Group" transform="translate(285.000000, 230.000000)">
            <g id="Rectangle">
                <use fill="black" fill-opacity="1" filter="url(#filter-2)" xlink:href="#path-1"></use>
                <use fill="#951922" fill-rule="evenodd" xlink:href="#path-1"></use>
            </g>
            <g id="Group-2" transform="translate(72.349535, 4.000000)">
                <path d="M28.0625439,27.4186238 C47.8025171,9.80620792 86.6798502,1 144.694543,1 C210.117768,1 253.93952,12.6658039 276.1598,35.9974116 C298.380081,59.3290193 309.203067,98.1599697 308.628761,152.490263 C268.945993,159.442254 221.69253,162.134697 166.868372,160.567592 C84.6321352,158.216934 0.650464928,150.954674 0.650464928,145.286687 C0.650464928,139.618701 7.34551808,131.448454 7.34551808,111.187481 C7.34551808,90.9265084 10.4826121,43.1038056 28.0625439,27.4186238 Z" id="Rectangle" fill="#C7CBD1"></path>
                <path d="M28.0625439,27.4186238 C47.8025171,9.80620792 86.6798502,1 144.694543,1 C154.845204,-1.14529525 167.04219,3.52866739 181.2855,15.0218879 C195.52881,26.5151085 202.650465,75.0303431 202.650465,160.567592 C233.619894,162.134697 221.69253,162.134697 166.868372,160.567592 C84.6321352,158.216934 0.650464928,150.954674 0.650464928,145.286687 C0.650464928,139.618701 7.34551808,131.448454 7.34551808,111.187481 C7.34551808,90.9265084 10.4826121,43.1038056 28.0625439,27.4186238 Z" id="Rectangle-Copy" fill-opacity="0.2" fill="#ABB0BA"></path>
                <path d="M139.650465,2 C104.346941,4.71148943 81.563739,15.9707816 71.3008584,35.7778764 C61.0379778,55.5849712 57.5555582,94.3256791 60.8535997,152" id="Line" stroke="#ABB0BA" stroke-width="3" stroke-linecap="round" stroke-linejoin="round"></path>
                <path d="M145.650465,2 C155.600966,2.8853993 167.479311,7.22602861 181.2855,15.0218879 C195.091689,22.8177473 202.213344,71.1437846 202.650465,160" id="Line-2" stroke="#ABB0BA" stroke-width="3" stroke-linecap="round" stroke-linejoin="round"></path>
            </g>
            <ellipse id="Oval" fill="#951922" cx="218.849535" cy="4.5" rx="15.5" ry="4.5"></ellipse>
            <path d="M106,69 L158,69 L158,108.861927 L132.320515,128 L106,108.861927 L106,69 Z M128.934316,82 L117,103 L124.684188,103 L132.5,90.5447083 L140.06112,103 L148,103 L135.597308,82 L128.934316,82 Z" id="LambdaLogo" fill="#951922" transform="translate(132.000000, 98.500000) rotate(5.000000) translate(-132.000000, -98.500000) "></path>
        </g>
    </g>
</svg>