<?xml version="1.0" encoding="UTF-8"?>
<svg width="1024px" height="1024px" viewBox="0 0 1024 1024" version="1.1" xmlns="http://www.w3.org/2000/svg" xmlns:xlink="http://www.w3.org/1999/xlink">
    <!-- Generator: Sketch 55.2 (78181) - https://sketchapp.com -->
    <title>NerdGlasses</title>
    <desc>Created with Sketch.</desc>
    <g id="NerdGlasses" stroke="none" stroke-width="1" fill="none" fill-rule="evenodd">
        <rect id="Frame" x="0" y="0" width="1024" height="1024"></rect>
        <path d="M500.773887,389.418385 C495.273927,389.157839 489.512303,387.788217 483.588877,384.238235 C469.398052,375.733524 433.614186,371.001915 422.935919,371.000037 C392.856726,370.992706 363.244068,372.084617 336,376.583124 L336.904474,398.627541 C344.691515,401.706051 347.064157,407.456524 348.130593,414.39822 C353.045942,446.393369 359.935761,473.602444 372.764208,484.790703 C381.874887,492.736528 393.32232,499.659806 414.74244,498.949781 C437.560578,498.193413 461.801363,491.411626 473.692866,476.560021 C484.132601,463.521569 495.02195,443.461744 498.964941,421.535315 C500.450593,413.273689 505.855275,409.62097 512,409.62097 C518.144717,409.62097 523.549415,413.273689 525.035067,421.535315 C528.978042,443.461744 539.867407,463.521569 550.307141,476.560021 C562.198644,491.411626 586.439429,498.193413 609.257552,498.949781 C630.677683,499.659806 642.125118,492.736528 651.235796,484.790703 C664.064243,473.602444 670.954061,446.393369 675.869402,414.39822 C676.935848,407.456524 679.308484,401.706051 687.095534,398.627541 L688,376.583124 C660.755935,372.084617 631.143272,370.992706 601.064088,371.000037 C590.385806,371.001915 554.601941,375.733524 540.41113,384.238235 C534.487704,387.788217 528.726066,389.157839 523.226121,389.418385 C515.749216,389.772587 508.250792,389.772587 500.773887,389.418385 Z M413.13887,381.89365 C419.758391,381.881467 426.462056,382.05503 432.802783,381.951701 C438.289654,381.862346 476.092614,380.744225 482.201091,405.278832 C488.023495,428.66443 479.386999,458.396036 461.000099,475.202767 C448.188516,486.913346 397.769826,499.621672 377.998222,474.513296 C364.446937,457.304244 361.579869,441.690225 360.136386,420.045021 C359.221944,406.332989 362.476671,392.34219 383.139462,385.226693 C391.349283,382.399527 402.106312,381.915021 413.13887,381.89365 L413.13887,381.89365 Z M587.752058,381.89365 C589.322789,381.88548 590.511354,381.941005 591.197215,381.952037 C597.537941,382.055365 604.241622,381.881803 610.861142,381.89365 C621.893701,381.915449 632.650721,382.399953 640.86054,385.227107 C661.523334,392.342575 664.778055,406.333318 663.863614,420.045295 C662.420139,441.690415 659.553064,457.30437 646.001784,474.513354 C626.230182,499.62163 575.811496,486.913354 562.999899,475.202822 C544.613014,458.396159 535.976503,428.664671 541.798908,405.279167 C547.143832,383.811471 576.757056,381.956229 587.752058,381.89365 L587.752058,381.89365 Z M345,387.340457 L360,387.340457 L360,390.971662 L345,390.971662 L345,387.340457 Z M664,387.340457 L679,387.340457 L679,390.971662 L664,390.971662 L664,387.340457 Z" id="path2998" fill="#000000" fill-rule="nonzero"></path>
    </g>
</svg>