<?xml version="1.0" encoding="UTF-8"?>
<svg width="1024px" height="1024px" viewBox="0 0 1024 1024" version="1.1" xmlns="http://www.w3.org/2000/svg" xmlns:xlink="http://www.w3.org/1999/xlink">
    <!-- Generator: Sketch 55.2 (78181) - https://sketchapp.com -->
    <title>NerdGlasses</title>
    <desc>Created with Sketch.</desc>
    <g id="NerdGlasses" stroke="none" stroke-width="1" fill="none" fill-rule="evenodd">
        <rect id="Frame" x="0" y="0" width="1024" height="1024"></rect>
        <g id="Hipster-glasses-by-Rones" transform="translate(247.000000, 300.136437)" fill="#000000" fill-rule="nonzero">
            <path d="M247.16083,27.6423592 C238.91089,27.2513321 230.268455,25.1957992 221.383316,19.8679768 C200.097078,7.10408538 146.42128,0.00287448013 130.403879,5.49051562e-05 C85.2850883,-0.0109475473 40.866102,1.62779655 0,8.37916695 L1.35671174,41.4634848 C13.037272,46.0837197 16.5962349,54.7140452 18.1958896,65.1321597 C25.5689135,113.150562 35.9036415,153.986012 55.1463125,170.77738 C68.8123304,182.702494 85.9834794,193.092968 118.113661,192.02736 C152.340868,190.892201 188.702045,180.714078 206.539299,158.424751 C222.198901,138.856608 238.532925,108.750772 244.447411,75.843531 C246.675889,63.4444609 254.782913,57.9624509 264,57.9624509 C273.217076,57.9624509 281.324122,63.4444609 283.5526,75.843531 C289.467064,108.750772 305.80111,138.856608 321.460712,158.424751 C339.297966,180.714078 375.659144,190.892201 409.886328,192.02736 C442.016525,193.092968 459.187676,182.702494 472.853694,170.77738 C492.096365,153.986012 502.431091,113.150562 509.804104,65.1321597 C511.403772,54.7140452 514.962726,46.0837197 526.643302,41.4634848 L528,8.37916695 C487.133902,1.62779655 442.714907,-0.0109465868 397.596132,5.49051562e-05 C381.578709,0.00287424 327.902911,7.10408538 306.616695,19.8679768 C297.731556,25.1957992 289.089099,27.2513321 280.839181,27.6423592 C269.623824,28.1739474 258.376187,28.1739474 247.16083,27.6423592 Z M115.708306,16.3492186 C125.637586,16.3309338 135.693085,16.5914177 145.204174,16.4363414 C153.43448,16.3022364 210.138921,14.6241574 219.301636,51.445759 C228.035243,86.5429243 215.080499,131.164196 187.500148,156.38778 C168.282774,173.963047 92.6547391,193.035736 62.9973334,155.35302 C42.6704056,129.52563 38.3698029,106.092072 36.204579,73.6068936 C34.8329166,53.0278401 39.7150062,32.0304132 70.7091927,21.3514567 C83.0239248,17.1084396 99.1594674,16.3812922 115.708306,16.3492186 L115.708306,16.3492186 Z M377.628087,16.3492186 C379.984184,16.3369559 381.767031,16.4202891 382.795822,16.4368451 C392.306912,16.5919208 402.362432,16.3314379 412.291713,16.3492186 C428.840551,16.3819342 444.976082,17.1090784 457.29081,21.3520788 C488.285,32.0309912 493.167083,53.028334 491.795421,73.6073053 C489.630208,106.092356 485.329597,129.525821 465.002676,155.353107 C435.345273,193.035672 359.717245,173.96306 340.499849,156.387863 C312.919521,131.164379 299.964755,86.5432866 308.698361,51.4462617 C316.715748,19.2274881 361.135584,16.4431364 377.628087,16.3492186 L377.628087,16.3492186 Z M13.5,24.5238005 L36,24.5238005 L36,29.9735217 L13.5,29.9735217 L13.5,24.5238005 Z M492,24.5238005 L514.5,24.5238005 L514.5,29.9735217 L492,29.9735217 L492,24.5238005 Z" id="path2998"></path>
        </g>
    </g>
</svg>