<?xml version="1.0" encoding="UTF-8"?>
<svg width="1024px" height="1024px" viewBox="0 0 1024 1024" version="1.1" xmlns="http://www.w3.org/2000/svg" xmlns:xlink="http://www.w3.org/1999/xlink">
    <!-- Generator: Sketch 56 (81588) - https://sketch.com -->
    <title>PinkHeadphone</title>
    <desc>Created with Sketch.</desc>
    <g id="PinkHeadphone" stroke="none" stroke-width="1" fill="none" fill-rule="evenodd">
        <g id="Right" transform="translate(774.500000, 400.000000) scale(-1, 1) translate(-774.500000, -400.000000) translate(723.000000, 286.000000)">
            <path d="M85.4505859,0 C101.217482,0 106.360305,12.9891105 100.879055,38.9673315 C98.9773573,63.697444 97.8260763,88.807374 97.425212,114.297121 C97.0243476,139.786869 98.1756287,166.137069 100.879055,193.347722 C106.360305,216.449241 101.217482,228 85.4505859,228 C80.0275886,228 71.6516138,223.977168 68.4304607,217.369719 C57.6037775,195.161289 61.8002422,143.398487 61.8002422,114 C61.8002422,86.2567806 61.1255261,33.6716467 70.2244713,9.72481036 C73.6359834,0.746305757 79.0013066,0 85.4505859,0 Z" id="Inside" fill="#FFCCE7"></path>
            <path d="M0.283565608,116.65231 C0.231933831,116.066801 0.195562573,115.471612 0.174958629,114.866745 C-1.13401964,76.438513 5.01740237,61.2815583 14.7581289,25.6075731 C27.2145469,26.4586693 18.0329727,19.5798148 26.9693332,19.2598943 C30.6008907,19.129885 37.7284714,20.3930414 48.0816602,16.3201615 C51.1112624,15.1283349 55.6232364,11.3565527 61.4845704,7.35299891 C65.8870022,4.3459408 69.374845,4.22107649 71.9480988,6.97840598 C66.4501869,50.6113504 64.1567223,85.7997462 65.0677049,112.543593 C65.1541211,115.080527 64.9753145,117.459567 64.5641539,119.680817 C64.5786228,120.097158 64.5859351,120.518214 64.5859351,120.94399 C64.5859351,147.620789 68.0572877,182.596414 74.9999928,225.870865 C72.5353901,228.709712 69.0640375,228.709712 64.5859351,225.870865 C58.6238542,222.091267 54.0109659,218.49445 50.9590036,217.415115 C40.5294027,213.726658 33.4869324,215.239329 29.8725446,215.239329 C20.9784345,215.239329 29.8725446,208.058602 17.5189383,209.350809 C6.62811909,174.15702 8.95070771e-06,159.27588 8.95070771e-06,120.94399 C8.95070771e-06,119.458276 0.0970349379,118.027618 0.283565608,116.65231 Z" id="Outside" fill="#F54291"></path>
        </g>
        <g id="Left" transform="translate(198.000000, 286.000000)">
            <path d="M85.4505859,0 C101.217482,0 106.360305,12.9891105 100.879055,38.9673315 C98.9773573,63.697444 97.8260763,88.807374 97.425212,114.297121 C97.0243476,139.786869 98.1756287,166.137069 100.879055,193.347722 C106.360305,216.449241 101.217482,228 85.4505859,228 C80.0275886,228 71.6516138,223.977168 68.4304607,217.369719 C57.6037775,195.161289 61.8002422,143.398487 61.8002422,114 C61.8002422,86.2567806 61.1255261,33.6716467 70.2244713,9.72481036 C73.6359834,0.746305757 79.0013066,0 85.4505859,0 Z" id="Inside" fill="#FFCCE7"></path>
            <path d="M0.283565608,116.65231 C0.231933831,116.066801 0.195562573,115.471612 0.174958629,114.866745 C-1.13401964,76.438513 5.01740237,61.2815583 14.7581289,25.6075731 C27.2145469,26.4586693 18.0329727,19.5798148 26.9693332,19.2598943 C30.6008907,19.129885 37.7284714,20.3930414 48.0816602,16.3201615 C51.1112624,15.1283349 55.6232364,11.3565527 61.4845704,7.35299891 C65.8870022,4.3459408 69.374845,4.22107649 71.9480988,6.97840598 C66.4501869,50.6113504 64.1567223,85.7997462 65.0677049,112.543593 C65.1541211,115.080527 64.9753145,117.459567 64.5641539,119.680817 C64.5786228,120.097158 64.5859351,120.518214 64.5859351,120.94399 C64.5859351,147.620789 68.0572877,182.596414 74.9999928,225.870865 C72.5353901,228.709712 69.0640375,228.709712 64.5859351,225.870865 C58.6238542,222.091267 54.0109659,218.49445 50.9590036,217.415115 C40.5294027,213.726658 33.4869324,215.239329 29.8725446,215.239329 C20.9784345,215.239329 29.8725446,208.058602 17.5189383,209.350809 C6.62811909,174.15702 8.95070771e-06,159.27588 8.95070771e-06,120.94399 C8.95070771e-06,119.458276 0.0970349379,118.027618 0.283565608,116.65231 Z" id="Outside" fill="#F54291"></path>
        </g>
        <path d="M342.411393,212.235021 C300.201723,238.969181 274.658926,272.030024 265.668032,311.458752 C262.420455,325.700699 259.983123,349.013909 258.37319,381.344227 L258.342405,381.962452 L257.967777,382.455203 C251.666044,390.743943 244.979449,395 237.907269,395 C230.850856,395 224.947678,391.499856 220.342104,384.687747 L219.983117,384.156768 L219.99963,383.516036 C220.929177,347.449463 223.285585,322.517883 227.104329,308.616576 C241.238318,257.164864 270.410274,214.484662 314.574031,180.625921 L312.081548,177.795727 L313.786138,176.493982 C370.341544,133.304286 435.797763,111.703125 510.086523,111.703125 C584.375813,111.703125 651.103156,134.001684 710.204328,178.578139 L711.897699,179.855346 L710.664979,181.304327 C754.258199,215.036906 783.089626,257.45494 797.114421,308.509154 C800.933165,322.410461 803.289573,347.342041 804.21912,383.408614 L804.235633,384.049346 L803.876646,384.580325 C799.271072,391.392434 793.367894,394.892578 786.311481,394.892578 C779.239301,394.892578 772.552706,390.636521 766.250973,382.347781 L765.876345,381.85503 L765.84556,381.236805 C764.235627,348.906487 761.798295,325.593277 758.550718,311.35133 C749.681574,272.456525 724.706373,239.759309 683.514366,213.218076 L682.350378,214.586267 L680.897072,213.715748 C625.676871,180.639281 569.387782,164.114153 512,164.114153 C454.620203,164.114153 399.27288,180.63446 345.923058,213.699968 L344.485953,214.590667 L343.368517,213.321827 L342.411393,212.235021 Z" id="Top" stroke="#F76EAA" stroke-width="4" fill="#F76EAA"></path>
    </g>
</svg>