<?xml version="1.0" encoding="UTF-8"?>
<svg width="1024px" height="1024px" viewBox="0 0 1024 1024" version="1.1" xmlns="http://www.w3.org/2000/svg" xmlns:xlink="http://www.w3.org/1999/xlink">
    <!-- Generator: Sketch 55.2 (78181) - https://sketchapp.com -->
    <title>SunGlasses</title>
    <desc>Created with Sketch.</desc>
    <defs>
        <linearGradient x1="50%" y1="0%" x2="50%" y2="100%" id="linearGradient-1">
            <stop stop-color="#322B01" offset="0%"></stop>
            <stop stop-color="#615602" offset="100%"></stop>
        </linearGradient>
    </defs>
    <g id="SunGlasses" stroke="none" stroke-width="1" fill="none" fill-rule="evenodd">
        <rect id="Rectangle" x="0" y="0" width="1024" height="1024"></rect>
        <path d="M556.273598,303.242058 C546.458583,304.645126 538.718811,312.307507 537.217181,322.107927 C526.152834,394.319686 539.764171,440.685675 577.128418,462.736248 C647.203364,504.091095 690.542393,508.97966 720.103904,475.360496 C737.730036,455.314976 752.008585,426.098361 756.97061,398.206515 C762.58167,366.666403 756.208046,339.680563 736.831357,321.39616 C710.291269,296.352166 649.951695,289.850666 556.273598,303.242058 Z" id="Rectangle" stroke="#322B01" stroke-width="15" fill="url(#linearGradient-1)"></path>
        <path d="M287.773598,303.242058 C277.958583,304.645126 270.218811,312.307507 268.717181,322.107927 C257.652834,394.319686 271.264171,440.685675 308.628418,462.736248 C378.703364,504.091095 422.042393,508.97966 451.603904,475.360496 C469.230036,455.314976 483.508585,426.098361 488.47061,398.206515 C494.08167,366.666403 487.708046,339.680563 468.331357,321.39616 C441.791269,296.352166 381.451695,289.850666 287.773598,303.242058 Z" id="Rectangle-Copy" stroke="#322B01" stroke-width="15" fill="url(#linearGradient-1)" transform="translate(377.705406, 396.982760) scale(-1, 1) translate(-377.705406, -396.982760) "></path>
        <path d="M490,390.184591 L532.75,390.934992" id="Line-3" stroke="#322B01" stroke-width="15" stroke-linecap="square"></path>
    </g>
</svg>