<?xml version="1.0" encoding="UTF-8"?>
<svg width="1024px" height="768px" viewBox="0 0 1024 768" version="1.1" xmlns="http://www.w3.org/2000/svg" xmlns:xlink="http://www.w3.org/1999/xlink">
    <!-- Generator: Sketch 55.2 (78181) - https://sketchapp.com -->
    <title>NightSky</title>
    <desc>Created with Sketch.</desc>
    <defs>
        <linearGradient x1="50%" y1="0%" x2="50%" y2="100%" id="linearGradient-1">
            <stop stop-color="#03030F" offset="0%"></stop>
            <stop stop-color="#091326" offset="33.4187826%"></stop>
            <stop stop-color="#183C5F" offset="88.9038086%"></stop>
            <stop stop-color="#20507B" offset="100%"></stop>
        </linearGradient>
    </defs>
    <g id="NightSky" stroke="none" stroke-width="1" fill="none" fill-rule="evenodd">
        <rect id="Rectangle" fill="url(#linearGradient-1)" x="0" y="0" width="1024" height="768"></rect>
        <g id="Group" transform="translate(834.000000, 509.000000)" fill="#121212">
            <path d="M91.0928366,276.445017 C91.0928366,276.445017 105.075096,261.221779 102.21518,226.017413 C99.3552633,190.813048 92.3641336,165.282304 80.9239663,158.464919 C68.562209,151.096831 60.8746776,153.71605 57.7260583,160.050656 C55.3350709,164.861159 53.4359328,173.212393 59.4738659,174.798106 C66.5488449,176.656238 71.5494307,172.578058 68.0538659,169.406584 C64.558301,166.235109 62.9694307,165.442178 62.3337822,168.613703 C61.698209,171.785127 62.4926692,171.785127 62.4926692,171.785127 C62.4926692,171.785127 57.4082341,168.29651 60.2682006,164.4907 C63.1281671,160.684891 67.6050207,161.457327 70.7548951,165.124985 C74.5682843,169.56518 74.25046,174.005124 69.1659997,176.859356 C64.0815395,179.713588 51.6881755,180.665166 52.0059997,167.344832 C52.3237738,154.024499 61.0627361,147.047264 74.409347,148.632977 C82.6014809,149.606302 89.1861671,154.975826 93.3171295,161.636118 C97.4483428,168.296159 106.981565,189.862748 106.981565,189.862748 C106.981565,189.862748 110.794954,150.218689 106.981565,138.167376 C103.168175,126.115813 94.5881755,109.625056 85.6903512,109.625056 C76.7925269,109.625056 69.6424851,115.333771 69.6424851,121.359427 C69.6424851,127.385334 73.2969621,134.679761 77.1103512,129.605181 C80.9237403,124.530852 81.2415646,119.13933 78.6992466,121.993562 C76.1571546,124.847794 76.1571546,126.116564 76.1571546,126.116564 C76.1571546,126.116564 74.2805604,126.872715 74.8860332,122.94514 C75.5215813,118.822137 78.6994223,116.760636 81.8771629,118.029407 C85.0549035,119.298001 86.8026859,126.909546 82.194937,132.776856 C77.547573,138.694276 68.1938491,135.905688 64.7171127,128.01972 C61.2215479,120.090908 65.8093638,109.992609 78.6993721,105.819247 C87.7272382,102.896365 96.9905855,108.073043 103.168326,116.919483 C110.47728,127.385334 111.748326,140.388476 113.019372,150.853575 C114.290493,161.319426 115.243841,187.007514 115.243841,187.007514 C115.243841,187.007514 123.823841,160.366846 139.712795,151.487459 C155.601749,142.60732 167.041665,151.804602 167.360493,160.684791 C167.678293,169.56493 164.023841,177.335145 156.079238,176.70076 C148.134636,176.066475 145.251623,168.477806 150.200242,163.539023 C151.15359,162.58757 161.322586,162.58757 161.957983,165.75907 C162.532577,168.62633 162.91133,168.930494 159.415891,167.66195 C155.920326,166.393355 147.022502,166.393355 151.471288,171.150567 C155.920326,175.907703 161.322334,174.004799 162.911456,170.516282 C164.500351,167.027665 165.771372,161.31895 161.958109,157.195948 C158.144845,153.072946 146.704803,147.681424 137.17133,161.953085 C127.637857,176.224746 117.468987,202.231028 117.468987,222.527844 C117.468987,242.825412 122.871247,266.929792 124.142293,269.149638 C125.413414,271.369686 128.59133,276.761258 128.59133,276.761258 L91.0928366,276.445017 Z" id="path3870-copy" fill-rule="nonzero"></path>
            <circle id="Oval-Copy-4" cx="110" cy="81" r="81"></circle>
            <circle id="Oval-Copy-3" cx="50" cy="141" r="50"></circle>
            <circle id="Oval-Copy-2" cx="174" cy="132" r="50"></circle>
        </g>
        <g id="Group-Copy" transform="translate(94.000000, 580.000000)" fill="#121212">
            <path d="M0.34134514,113.64911 C10.1120927,120.187228 21.8607861,124 34.5,124 C68.4655121,124 96,96.4655121 96,62.5 C96,36.8988818 80.3570542,14.9513693 58.1079913,5.69429117 C65.9873899,2.03868198 74.7575198,0 84,0 C118.241654,0 146,27.9822031 146,62.5 C146,83.9045521 135.326184,102.795996 119.051489,114.060483 C125.043533,114.822228 128.825499,119.359681 128.985306,123.794239 C129.230446,130.618702 126.411522,136.59018 120.283316,136.102649 C114.155109,135.615196 111.931248,129.783238 115.748451,125.987741 C116.483832,125.256542 124.327862,125.256542 124.817987,127.693866 C125.26121,129.897381 125.553368,130.131133 122.8571,129.156246 C120.160736,128.18132 113.297246,128.18132 116.728894,131.837278 C120.160736,135.493178 124.327668,134.03078 125.553464,131.349825 C126.779086,128.668792 127.75951,124.281596 124.818084,121.113034 C121.876657,117.944471 113.052183,113.80104 105.698375,124.768934 C98.344566,135.736828 90.5006325,155.722879 90.5006325,171.321156 C90.5006325,186.920011 94.6677585,205.444434 95.6482017,207.150405 C96.6287031,208.856531 99.0800437,213 99.0800437,213 L70.1549338,212.756966 C70.1549338,212.756966 80.9403907,201.057777 78.7343449,174.00292 C77.2246904,155.488577 74.2227055,140.455714 69.6498238,131.130683 C62.6504318,140.748361 51.3052902,147 38.5,147 C18.9829899,147 2.85789327,132.477492 0.34134514,113.64911 Z M83.6707512,124.999137 C80.2724092,124.981324 76.9387561,124.687899 73.6906655,124.139903 C73.4006656,124.791442 73.0931026,125.433439 72.7685777,126.065291 C76.2567597,132.346928 82.4109782,146.21775 82.4109782,146.21775 C82.4109782,146.21775 83.435856,135.602588 83.6707512,124.999137 Z M87.8120624,124.883795 C88.3979615,133.654056 88.7842274,144.023478 88.7842274,144.023478 C88.7842274,144.023478 92.8343695,131.494501 100.465295,122.772085 C96.3993951,123.898262 92.166389,124.617549 87.8120624,124.883795 Z" id="Combined-Shape"></path>
            <circle id="Oval-Copy-2" cx="133.5" cy="101.5" r="38.5"></circle>
        </g>
        <g id="Group-2" transform="translate(-28.000000, 499.000000)" fill="#121212">
            <path d="M67.0928366,286.445017 C67.0928366,286.445017 81.075096,271.221779 78.2151797,236.017413 C75.3552633,200.813048 68.3641336,175.282304 56.9239663,168.464919 C44.562209,161.096831 36.8746776,163.71605 33.7260583,170.050656 C31.3350709,174.861159 29.4359328,183.212393 35.4738659,184.798106 C42.5488449,186.656238 47.5494307,182.578058 44.0538659,179.406584 C40.558301,176.235109 38.9694307,175.442178 38.3337822,178.613703 C37.698209,181.785127 38.4926692,181.785127 38.4926692,181.785127 C38.4926692,181.785127 33.4082341,178.29651 36.2682006,174.4907 C39.1281671,170.684891 43.6050207,171.457327 46.7548951,175.124985 C50.5682843,179.56518 50.25046,184.005124 45.1659997,186.859356 C40.0815395,189.713588 27.6881755,190.665166 28.0059997,177.344832 C28.3237738,164.024499 37.0627361,157.047264 50.409347,158.632977 C58.6014809,159.606302 65.1861671,164.975826 69.3171295,171.636118 C73.4483428,178.296159 82.9815646,199.862748 82.9815646,199.862748 C82.9815646,199.862748 86.7949537,160.218689 82.9815646,148.167376 C79.1681755,136.115813 70.5881755,119.625056 61.6903512,119.625056 C52.7925269,119.625056 45.6424851,125.333771 45.6424851,131.359427 C45.6424851,137.385334 49.2969621,144.679761 53.1103512,139.605181 C56.9237403,134.530852 57.2415646,129.13933 54.6992466,131.993562 C52.1571546,134.847794 52.1571546,136.116564 52.1571546,136.116564 C52.1571546,136.116564 50.2805604,136.872715 50.8860332,132.94514 C51.5215813,128.822137 54.6994223,126.760636 57.8771629,128.029407 C61.0549035,129.298001 62.8026859,136.909546 58.194937,142.776856 C53.547573,148.694276 44.1938491,145.905688 40.7171127,138.01972 C37.2215479,130.090908 41.8093638,119.992609 54.6993721,115.819247 C63.7272382,112.896365 72.9905855,118.073043 79.1683261,126.919483 C86.4772801,137.385334 87.7483261,150.388476 89.0193721,160.853575 C90.2904935,171.319426 91.2438408,197.007514 91.2438408,197.007514 C91.2438408,197.007514 99.8238408,170.366846 115.712795,161.487459 C131.601749,152.60732 143.041665,161.804602 143.360493,170.684791 C143.678293,179.56493 140.023841,187.335145 132.079238,186.70076 C124.134636,186.066475 121.251623,178.477806 126.200242,173.539023 C127.15359,172.58757 137.322586,172.58757 137.957983,175.75907 C138.532577,178.62633 138.91133,178.930494 135.415891,177.66195 C131.920326,176.393355 123.022502,176.393355 127.471288,181.150567 C131.920326,185.907703 137.322334,184.004799 138.911456,180.516282 C140.500351,177.027665 141.771372,171.31895 137.958109,167.195948 C134.144845,163.072946 122.704803,157.681424 113.17133,171.953085 C103.637857,186.224746 93.4689872,212.231028 93.4689872,232.527844 C93.4689872,252.825412 98.8712466,276.929792 100.142293,279.149638 C101.413414,281.369686 104.59133,286.761258 104.59133,286.761258 L67.0928366,286.445017 Z" id="path3870" fill-rule="nonzero"></path>
            <circle id="Oval" cx="156.5" cy="143.5" r="57.5"></circle>
            <circle id="Oval-Copy" cx="86" cy="86" r="86"></circle>
        </g>
        <g id="Group-3" transform="translate(918.500000, 758.500000) rotate(-9.000000) translate(-918.500000, -758.500000) translate(912.000000, 747.000000)" fill="#121212">
            <path d="M4.96948452,11.0805952 L-9.990897e-13,1 C4.33589202,5.33383536 7.13848641,8.78813674 8.40778316,11.3629042 C9.67707992,13.9376716 10.1874752,17.203767 9.93896903,21.1611905 L6.44732345,23 C6.73139425,17.6284976 6.23878127,13.6553626 4.96948452,11.0805952 Z" id="Combined-Shape"></path>
            <path d="M9.78433383,11.2876374 L8.62716266,4.0290115e-12 C11.2012768,5.67002687 12.6361151,9.94657428 12.9316777,12.8296422 C13.2272403,15.7127102 12.5638494,18.9612544 10.941505,22.5752749 L7,23 C9.15178512,18.0748262 10.0798964,14.1707054 9.78433383,11.2876374 Z" id="Combined-Shape-Copy"></path>
        </g>
    </g>
</svg>