<?xml version="1.0" encoding="UTF-8"?>
<svg width="1024px" height="1024px" viewBox="0 0 1024 1024" version="1.1" xmlns="http://www.w3.org/2000/svg" xmlns:xlink="http://www.w3.org/1999/xlink">
    <!-- Generator: Sketch 55.2 (78181) - https://sketchapp.com -->
    <title>Firefly</title>
    <desc>Created with Sketch.</desc>
    <g id="Firefly" stroke="none" stroke-width="1" fill="none" fill-rule="evenodd">
        <rect id="Frame" x="0" y="0" width="1024" height="1024"></rect>
        <path d="M309.561286,413.618026 C354.500779,438.837348 384.807215,486.492772 384.807215,541.128416 C384.807215,595.215835 355.105929,642.462413 310.909646,667.872877 C265.970153,642.653555 235.663717,594.998131 235.663717,540.362487 C235.663717,486.275068 265.365003,439.02849 309.561286,413.618026 Z" id="LeftBigWing" stroke="#C7CBD1" stroke-width="15" fill="#C7CBD1" transform="translate(310.235466, 540.745451) rotate(-59.000000) translate(-310.235466, -540.745451) "></path>
        <path d="M340.623088,557.609442 C369.438809,574.492345 388.750839,605.495449 388.750839,640.946527 C388.750839,677.375807 368.358351,709.108261 338.216247,725.648707 C309.400525,708.765804 290.088496,677.7627 290.088496,642.311623 C290.088496,605.882343 310.480984,574.149889 340.623088,557.609442 Z" id="LeftSmallWing" stroke="#E3E5E8" stroke-width="15" fill="#E3E5E8" transform="translate(339.419667, 641.629075) rotate(-109.000000) translate(-339.419667, -641.629075) "></path>
        <path d="M715.361701,415.637555 C761.855101,441.044997 793.209467,489.0559 793.209467,544.099092 C793.209467,598.58997 762.481176,646.188978 716.756683,671.788988 C670.263283,646.381546 638.908917,598.370642 638.908917,543.32745 C638.908917,488.836573 669.637208,441.237565 715.361701,415.637555 Z" id="RightBigWing" stroke="#C7CBD1" stroke-width="15" fill="#C7CBD1" transform="translate(716.059192, 543.713271) scale(-1, 1) rotate(-59.000000) translate(-716.059192, -543.713271) "></path>
        <path d="M687.068633,555.354938 C716.880738,572.363777 736.860535,603.598145 736.860535,639.313665 C736.860535,676.014685 715.76292,707.983843 684.578569,724.647671 C654.766463,707.638832 634.786667,676.404464 634.786667,640.688944 C634.786667,603.987924 655.884282,572.018766 687.068633,555.354938 Z" id="RightSmallWing" stroke="#E3E5E8" stroke-width="15" fill="#E3E5E8" transform="translate(685.823601, 640.001305) scale(-1, 1) rotate(-109.000000) translate(-685.823601, -640.001305) "></path>
        <path d="M438.86926,571.421872 C458.661515,580.24134 485.080757,585 511.5,585 C538.491901,585 565.483803,580.032809 585.408372,570.842647 C608.454497,589.160925 623,616.020065 623,645.9522 C623,701.154276 572.998757,726 511.971292,726 C450.943827,726 402,701.154276 402,645.9522 C402,616.334018 416.241973,589.724705 438.86926,571.421872 Z" id="Body" stroke="#3E8C0B" stroke-width="15" fill="#3E8C0B"></path>
        <path d="M630.214587,636.877779 C630.733367,640.984812 631,645.161895 631,649.395809 C631,709.119263 577.378757,736 511.933014,736 C446.487272,736 394,709.119263 394,649.395809 C394,643.50286 394.51653,637.720005 395.510528,632.08289 C429.080232,655.437043 472.790116,668 516.5,668 C557.116979,668 597.733958,657.152047 630.214587,636.877779 Z" id="BodyLightBottom" fill="#FBE66A"></path>
        <path d="M625.652526,677.59244 C592.973739,694.219612 553.498662,703.070886 514.023585,703.070886 C472.958952,703.070886 431.894318,693.492426 398.480485,675.54609 C395.56108,667.333756 394,658.19377 394,648.096152 C394,642.48732 394.486853,636.98022 395.424815,631.606829 C428.840953,654.124401 472.137061,666.229794 515.433168,666.229794 C556.462324,666.229794 597.49148,655.358873 630.112749,635.057962 C630.698441,639.33062 631,643.68188 631,648.096152 C631,659.040491 629.126519,668.859863 625.652526,677.59244 Z" id="BodyLightMid" fill="#F9DC28"></path>
        <path d="M630.997372,642.147021 C597.328908,658.953756 555.676246,667.932652 514.023585,667.932652 C471.106447,667.932652 428.189308,658.400324 394.00581,640.594772 C394.164909,627.858235 397.586781,615.734434 403.646938,604.713436 C435.782882,621.525855 475.608025,630.510014 515.433168,630.510014 C553.367946,630.510014 591.302723,622.358509 622.592092,607.054486 C628.016623,617.714255 631,629.346357 631,641.52528 C631,641.732989 630.999123,641.940236 630.997372,642.147021 Z" id="BodyLightTop" fill="#DFC104"></path>
        <path d="M471.342663,311.176154 C466.815899,284.115288 455.964944,259.383606 438.789797,236.981105 C421.61465,214.578604 400.132272,204.805013 374.342663,207.660331" id="LeftAntenna" stroke="#17191C" stroke-width="15" stroke-linecap="round" transform="translate(422.842663, 259.176154) rotate(-7.000000) translate(-422.842663, -259.176154) "></path>
        <path d="M661.017548,311.298023 C656.397449,284.237158 645.322762,259.505475 627.793489,237.102974 C610.264216,214.700473 588.338902,204.926882 562.017548,207.7822" id="RightAntenna" stroke="#17191C" stroke-width="15" stroke-linecap="round" transform="translate(611.517548, 259.298023) scale(-1, 1) rotate(-7.000000) translate(-611.517548, -259.298023) "></path>
        <path d="M419.723234,751.254611 L384.5,778.254611" id="LightLeft" stroke="#FBE66A" stroke-width="15" stroke-linecap="round"></path>
        <path d="M512.388383,778.377306 L512.388383,823.622694" id="LightMiddle" stroke="#FBE66A" stroke-width="15" stroke-linecap="round"></path>
        <path d="M614.388383,745.254611 L631.388383,785.254611" id="LightRight" stroke="#FBE66A" stroke-width="15" stroke-linecap="round" transform="translate(622.888383, 765.254611) rotate(-29.974508) translate(-622.888383, -765.254611) "></path>
        <path d="M512.5,576 C589.75,576 667,525.985704 667,440.601599 C667,355.217493 597.827994,286 512.5,286 C427.172006,286 358,355.217493 358,440.601599 C358,525.985704 435.25,576 512.5,576 Z" id="Head" stroke="#4AA810" stroke-width="15" fill="#4AA810"></path>
        <circle id="LeftEye" fill="#FFFFFF" cx="438" cy="428" r="64"></circle>
        <path d="M438.579457,467 C459.798537,467 477,449.112669 477,427.047529 C477,404.982388 459.74053,385.467483 438.579457,387.095058 C418.888601,388.609553 413.563622,396.063303 422.604522,409.456309 C409.432725,402.57857 401.950856,408.44231 400.158914,427.047529 C398.044329,449.002663 417.360377,467 438.579457,467 Z" id="LeftPupil" fill="#17191C"></path>
        <circle id="RightEye" fill="#FFFFFF" cx="587" cy="428" r="64"></circle>
        <path d="M587.159878,467.529706 C608.507597,467.529706 625.813343,449.584917 625.813343,427.448898 C625.813343,405.312879 608.449238,385.735287 587.159878,387.36809 C567.349647,388.887451 561.992386,396.365144 571.088095,409.801171 C557.836445,402.901339 550.309218,408.783915 548.506412,427.448898 C546.379007,449.474558 565.812158,467.529706 587.159878,467.529706 Z" id="RightPupil" fill="#17191C"></path>
        <path d="M482,523 C491.838825,529.854346 501.864403,533.281519 512.076733,533.281519 C522.289062,533.281519 532.878996,529.854346 543.846535,523" id="Smile" stroke="#3E8C0B" stroke-width="15" stroke-linecap="round"></path>
    </g>
</svg>