<?xml version="1.0" encoding="UTF-8"?>
<svg width="241px" height="236px" viewBox="0 0 241 236" version="1.1" xmlns="http://www.w3.org/2000/svg" xmlns:xlink="http://www.w3.org/1999/xlink">
    <!-- Generator: Sketch 56.3 (81716) - https://sketch.com -->
    <title>FireflySleeping</title>
    <desc>Created with Sketch.</desc>
    <g id="Tutorial-Draft" stroke="none" stroke-width="1" fill="none" fill-rule="evenodd">
        <g id="Book" transform="translate(-476.000000, -124.000000)">
            <g id="Stage" transform="translate(437.000000, 80.000000)">
                <g id="FireflySleeping" transform="translate(28.000000, 32.000000)">
                    <rect id="Frame" x="3.36201991" y="0.248668094" width="256" height="256"></rect>
                    <path d="M55.2247282,91.2069949 C72.0850285,100.669301 83.455331,118.549646 83.455331,139.048975 C83.455331,159.342609 72.3120675,177.069556 55.7306028,186.603578 C38.8703025,177.141273 27.5,159.260927 27.5,138.761598 C27.5,118.467964 38.6432636,100.741017 55.2247282,91.2069949 Z" id="LeftBigWing" stroke="#C7CBD1" stroke-width="5.625" fill="#C7CBD1" transform="translate(55.477666, 138.905287) rotate(-59.000000) translate(-55.477666, -138.905287) "></path>
                    <path d="M66.8784268,145.232667 C77.6894462,151.567143 84.9348912,163.199528 84.9348912,176.500795 C84.9348912,190.169084 77.2840822,202.075121 65.9754337,208.281107 C55.1644143,201.946631 47.9189693,190.314246 47.9189693,177.012979 C47.9189693,163.34469 55.5697783,151.438653 66.8784268,145.232667 Z" id="LeftSmallWing" stroke="#E3E5E8" stroke-width="5.625" fill="#E3E5E8" transform="translate(66.426930, 176.756887) rotate(-109.000000) translate(-66.426930, -176.756887) "></path>
                    <path d="M207.472039,91.9647234 C224.915331,101.497612 236.678793,119.511334 236.678793,140.163575 C236.678793,160.608587 225.15022,178.467765 207.995405,188.072906 C190.552113,178.540017 178.788651,160.526295 178.788651,139.874054 C178.788651,119.429042 190.317224,101.569864 207.472039,91.9647234 Z" id="RightBigWing" stroke="#C7CBD1" stroke-width="5.625" fill="#C7CBD1" transform="translate(207.733722, 140.018815) scale(-1, 1) rotate(-59.000000) translate(-207.733722, -140.018815) "></path>
                    <path d="M196.857107,144.386775 C208.041948,150.768503 215.537924,162.487658 215.537924,175.888144 C215.537924,189.65839 207.622567,201.653239 195.922891,207.905518 C184.73805,201.52379 177.242074,189.804635 177.242074,176.404149 C177.242074,162.633903 185.157431,150.639054 196.857107,144.386775 Z" id="RightSmallWing" stroke="#E3E5E8" stroke-width="5.625" fill="#E3E5E8" transform="translate(196.389999, 176.146147) scale(-1, 1) rotate(-109.000000) translate(-196.389999, -176.146147) "></path>
                    <path d="M103.738211,150.415099 C111.163825,153.72417 121.075739,155.509622 130.987652,155.509622 C141.114415,155.509622 151.241177,153.645928 158.716434,150.197774 C167.362828,157.070803 172.819978,167.14837 172.819978,178.378926 C172.819978,199.09078 154.060621,208.412912 131.164471,208.412912 C108.26832,208.412912 89.9056823,199.09078 89.9056823,178.378926 C89.9056823,167.266165 95.2489545,157.282334 103.738211,150.415099 Z" id="Body" stroke="#3E8C0B" stroke-width="5.625" fill="#3E8C0B"></path>
                    <path d="M175.526731,174.974198 C175.721366,176.515159 175.821401,178.082403 175.821401,179.67097 C175.821401,202.079249 155.7039,212.164919 131.15011,212.164919 C106.596319,212.164919 86.9042599,202.079249 86.9042599,179.67097 C86.9042599,177.459932 87.0980505,175.290201 87.4709765,173.175152 C100.065584,181.937646 116.464563,186.651275 132.863542,186.651275 C148.102131,186.651275 163.34072,182.581116 175.526731,174.974198 Z" id="BodyLightBottom" fill="#E3E5E8"></path>
                    <path d="M173.815147,190.250365 C161.554792,196.48889 146.744619,199.809894 131.934446,199.809894 C116.527906,199.809894 101.121367,196.216049 88.5852384,189.482573 C87.4899424,186.4013 86.9042599,182.971971 86.9042599,179.183338 C86.9042599,177.078901 87.0869165,175.012634 87.438819,172.996534 C99.9758123,181.445141 116.219551,185.987093 132.46329,185.987093 C147.856519,185.987093 163.249747,181.908316 175.488524,174.291401 C175.708263,175.894505 175.821401,177.527101 175.821401,179.183338 C175.821401,183.289661 175.118512,186.973896 173.815147,190.250365 Z" id="BodyLightMid" fill="#C7CBD1"></path>
                    <path d="M175.820415,176.951221 C163.188754,183.257118 147.5616,186.626006 131.934446,186.626006 C115.832888,186.626006 99.7313297,183.049471 86.9064395,176.368816 C86.9661302,171.590059 88.2499404,167.041201 90.523577,162.906116 C102.58027,169.214146 117.52178,172.585008 132.46329,172.585008 C146.695577,172.585008 160.927863,169.526558 172.66694,163.784479 C174.702104,167.784031 175.821401,172.148403 175.821401,176.717943 C175.821401,176.795876 175.821072,176.873635 175.820415,176.951221 Z" id="BodyLightTop" fill="#ABB0BA"></path>
                    <path d="M187.083194,52.81631 C185.349909,42.663078 181.194997,33.3837736 174.618459,24.9783969 C168.04192,16.5730202 159.816048,12.9060264 149.940844,13.9774154" id="RightAntenna" stroke="#17191C" stroke-width="5.625" stroke-linecap="round" transform="translate(168.512019, 33.306019) scale(-1, 1) rotate(-7.000000) translate(-168.512019, -33.306019) "></path>
                    <path d="M115.921382,52.7705873 C114.223114,42.617355 110.152141,33.33805 103.708463,24.9326724 C97.2647852,16.5272947 89.2050933,12.8602996 79.5293875,13.9316872" id="LeftAntenna" stroke="#17191C" stroke-width="5.625" stroke-linecap="round" transform="translate(97.725385, 33.260294) rotate(-7.000000) translate(-97.725385, -33.260294) "></path>
                    <path d="M96.5550465,217.888459 L83.3400707,228.018876" id="LightLeft" stroke="#736FDA" stroke-width="5.625" stroke-linecap="round"></path>
                    <path d="M131.320954,228.064911 L131.320954,245.04101" id="LightMiddle" stroke="#736FDA" stroke-width="5.625" stroke-linecap="round"></path>
                    <path d="M169.58924,215.637453 L175.966964,230.645082" id="LightRight" stroke="#736FDA" stroke-width="5.625" stroke-linecap="round" transform="translate(172.778102, 223.141268) rotate(-29.974508) translate(-172.778102, -223.141268) "></path>
                    <path d="M131.36283,152.132816 C160.345316,152.132816 189.327802,133.36742 189.327802,101.331249 C189.327802,69.2950777 163.376,43.3246297 131.36283,43.3246297 C99.3496605,43.3246297 73.3978587,69.2950777 73.3978587,101.331249 C73.3978587,133.36742 102.380345,152.132816 131.36283,152.132816 Z" id="Head" stroke="#4AA810" stroke-width="5.625" fill="#4AA810"></path>
                    <path d="M83.4120835,97.2820292 C89.1105193,101.282029 95.7771859,103.282029 103.412083,103.282029 C111.046981,103.282029 117.713648,101.282029 123.412083,97.2820292" id="Line-2" stroke="#000000" stroke-width="5" stroke-linecap="round" stroke-linejoin="round"></path>
                    <path d="M139,97 C144.698436,101 151.365102,103 159,103 C166.634898,103 173.301564,101 179,97" id="Line-2-Copy" stroke="#000000" stroke-width="5" stroke-linecap="round" stroke-linejoin="round"></path>
                    <path d="M119.919907,132.247182 C123.611216,134.818937 127.37259,136.104815 131.20403,136.104815 C135.035469,136.104815 139.008578,134.818937 143.123354,132.247182" id="Smile" stroke="#3E8C0B" stroke-width="5.625" stroke-linecap="round"></path>
                </g>
            </g>
        </g>
    </g>
</svg>