<?xml version="1.0" encoding="UTF-8"?>
<svg width="1024px" height="1024px" viewBox="0 0 1024 1024" version="1.1" xmlns="http://www.w3.org/2000/svg" xmlns:xlink="http://www.w3.org/1999/xlink">
    <!-- Generator: Sketch 55.2 (78181) - https://sketchapp.com -->
    <title>Firefly</title>
    <desc>Created with Sketch.</desc>
    <g id="Firefly" stroke="none" stroke-width="1" fill="none" fill-rule="evenodd">
        <rect id="Frame" x="0" y="0" width="1024" height="1024"></rect>
        <path d="M207.450833,363.833307 C274.892034,401.68253 320.373245,473.203913 320.373245,555.201228 C320.373245,636.375766 275.80019,707.283551 209.474332,745.419641 C142.03313,707.570418 96.5519203,636.049036 96.5519203,554.051721 C96.5519203,472.877183 141.124975,401.969397 207.450833,363.833307 Z" id="LeftBigWing" stroke="#C7CBD1" stroke-width="22.5" fill="#C7CBD1" transform="translate(208.462582, 554.626474) rotate(-59.000000) translate(-208.462582, -554.626474) "></path>
        <path d="M254.065628,579.935995 C297.309705,605.273899 326.291485,651.803438 326.291485,705.008506 C326.291485,759.681662 295.688249,807.305811 250.453655,832.129756 C207.209577,806.791851 178.227797,760.262313 178.227797,707.057245 C178.227797,652.384088 208.831034,604.759939 254.065628,579.935995 Z" id="LeftSmallWing" stroke="#E3E5E8" stroke-width="22.5" fill="#E3E5E8" transform="translate(252.259641, 706.032875) rotate(-109.000000) translate(-252.259641, -706.032875) "></path>
        <path d="M816.440075,366.864221 C886.213243,404.995776 933.267092,477.050663 933.267092,559.659627 C933.267092,641.439676 887.152801,712.876389 818.533541,751.296951 C748.760373,713.165396 701.706524,641.110509 701.706524,558.501545 C701.706524,476.721496 747.820816,405.284783 816.440075,366.864221 Z" id="RightBigWing" stroke="#C7CBD1" stroke-width="22.5" fill="#C7CBD1" transform="translate(817.486808, 559.080586) scale(-1, 1) rotate(-59.000000) translate(-817.486808, -559.080586) "></path>
        <path d="M773.98035,576.55243 C818.719712,602.079339 848.703617,648.955959 848.703617,702.557903 C848.703617,757.638887 817.042189,805.618282 770.243484,830.627398 C725.504122,805.100489 695.520216,758.223869 695.520216,704.621924 C695.520216,649.54094 727.181644,601.561545 773.98035,576.55243 Z" id="RightSmallWing" stroke="#E3E5E8" stroke-width="22.5" fill="#E3E5E8" transform="translate(772.111917, 703.589914) scale(-1, 1) rotate(-109.000000) translate(-772.111917, -703.589914) "></path>
        <path d="M401.504763,600.665725 C431.207222,613.902006 470.854876,621.043814 510.50253,621.043814 C551.00958,621.043814 591.51663,613.589041 621.417654,599.796423 C656.003233,627.288542 677.831833,667.598807 677.831833,712.521033 C677.831833,795.36845 602.794406,832.656977 511.209803,832.656977 C419.625201,832.656977 346.17465,795.36845 346.17465,712.521033 C346.17465,668.069989 367.547738,628.134664 401.504763,600.665725 Z" id="Body" stroke="#3E8C0B" stroke-width="22.5" fill="#3E8C0B"></path>
        <path d="M688.658846,698.902119 C689.437384,705.065964 689.837523,711.334941 689.837523,717.68921 C689.837523,807.322323 609.367521,847.665002 511.15236,847.665002 C412.937198,847.665002 334.16896,807.322323 334.16896,717.68921 C334.16896,708.845057 334.944123,700.166133 336.435826,691.705937 C386.814257,726.75591 452.410172,745.610428 518.006086,745.610428 C578.960443,745.610428 639.9148,729.329792 688.658846,698.902119 Z" id="BodyLightBottom" fill="#FBE66A"></path>
        <path d="M681.812508,760.006786 C632.771086,784.960889 573.530394,798.244903 514.289702,798.244903 C452.663546,798.244903 391.037389,783.869525 340.892874,756.935619 C336.51169,744.610526 334.16896,730.893212 334.16896,715.738681 C334.16896,707.320932 334.899586,699.055862 336.307196,690.991464 C386.455169,724.785893 451.430125,742.953699 516.40508,742.953699 C577.977995,742.953699 639.55091,726.638592 688.506016,696.170932 C689.384971,702.583348 689.837523,709.11373 689.837523,715.738681 C689.837523,732.163974 687.02597,746.900912 681.812508,760.006786 Z" id="BodyLightMid" fill="#F9DC28"></path>
        <path d="M689.833579,706.81021 C639.306936,732.033801 576.798319,745.509352 514.289702,745.509352 C449.883471,745.509352 385.477239,731.20321 334.177678,704.480591 C334.416441,685.365564 339.551682,667.170132 348.646228,650.62979 C396.872998,675.861912 456.639039,689.34536 516.40508,689.34536 C573.334228,689.34536 630.263376,677.11156 677.219684,654.143243 C685.360335,670.141453 689.837523,687.598942 689.837523,705.8771 C689.837523,706.18883 689.836207,706.499866 689.833579,706.81021 Z" id="BodyLightTop" fill="#DFC104"></path>
        <path d="M450.237448,210.087677 C443.444376,169.474748 427.160484,132.357528 401.385772,98.7360171 C375.611061,65.1145063 343.372294,50.4465261 304.66947,54.7320765" id="LeftAntenna" stroke="#17191C" stroke-width="22.5" stroke-linecap="round" transform="translate(377.453459, 132.046502) rotate(-7.000000) translate(-377.453459, -132.046502) "></path>
        <path d="M734.884698,210.270568 C727.951556,169.65764 711.331909,132.540422 685.025755,98.9189153 C658.719601,65.2974084 625.816114,50.6294331 586.315295,54.9149893" id="RightAntenna" stroke="#17191C" stroke-width="22.5" stroke-linecap="round" transform="translate(660.599997, 132.229403) scale(-1, 1) rotate(-7.000000) translate(-660.599997, -132.229403) "></path>
        <path d="M372.772106,870.559162 L319.912203,911.080831" id="LightLeft" stroke="#FBE66A" stroke-width="22.5" stroke-linecap="round"></path>
        <path d="M511.835737,911.264971 L511.835737,979.169367" id="LightMiddle" stroke="#FBE66A" stroke-width="22.5" stroke-linecap="round"></path>
        <path d="M664.90888,861.555138 L690.419777,921.585657" id="LightRight" stroke="#FBE66A" stroke-width="22.5" stroke-linecap="round" transform="translate(677.664328, 891.570398) rotate(-29.974508) translate(-677.664328, -891.570398) "></path>
        <path d="M512.003241,607.536591 C627.933185,607.536591 743.863128,532.475007 743.863128,404.330323 C743.863128,276.185638 640.055921,172.303847 512.003241,172.303847 C383.950562,172.303847 280.143355,276.185638 280.143355,404.330323 C280.143355,532.475007 396.073298,607.536591 512.003241,607.536591 Z" id="Head" stroke="#4AA810" stroke-width="22.5" fill="#4AA810"></path>
        <ellipse id="LeftEye" fill="#FFFFFF" cx="400.200254" cy="385.417811" rx="96.0455192" ry="96.0513644"></ellipse>
        <path d="M401.069852,443.949111 C432.913564,443.949111 458.727993,417.10376 458.727993,383.98834 C458.727993,350.87292 432.826512,321.5849 401.069852,324.027569 C371.519563,326.300527 363.528308,337.487135 377.096088,357.587392 C357.329024,347.265264 346.100899,356.06558 343.411712,383.98834 C340.23833,416.938662 369.22614,443.949111 401.069852,443.949111 Z" id="LeftPupil" fill="#17191C"></path>
        <ellipse id="RightEye" fill="#FFFFFF" cx="623.806229" cy="385.417811" rx="96.0455192" ry="96.0513644"></ellipse>
        <path d="M624.046159,444.744096 C656.082921,444.744096 682.053849,417.812511 682.053849,384.590717 C682.053849,351.368922 655.995342,321.986822 624.046159,324.437337 C594.316722,326.717597 586.277021,337.940138 599.927055,358.104962 C580.040154,347.749677 568.743959,356.578262 566.038469,384.590717 C562.845849,417.646883 592.009396,444.744096 624.046159,444.744096 Z" id="RightPupil" fill="#17191C"></path>
        <path d="M466.231549,527.994055 C480.996784,538.281076 496.042281,543.424586 511.368039,543.424586 C526.693798,543.424586 542.586231,538.281076 559.045338,527.994055" id="Smile" stroke="#3E8C0B" stroke-width="22.5" stroke-linecap="round"></path>
    </g>
</svg>