<?xml version="1.0" encoding="UTF-8"?>
<svg width="1024px" height="1024px" viewBox="0 0 1024 1024" version="1.1" xmlns="http://www.w3.org/2000/svg" xmlns:xlink="http://www.w3.org/1999/xlink">
    <!-- Generator: Sketch 55.2 (78181) - https://sketchapp.com -->
    <title>HoldBoard</title>
    <desc>Created with Sketch.</desc>
    <g id="HoldBoard" stroke="none" stroke-width="1" fill="none" fill-rule="evenodd">
        <rect id="Rectangle" x="0" y="0" width="1024" height="1024"></rect>
        <rect id="Rectangle" stroke="#FFFFFF" stroke-width="12" fill="#FFFFFF" x="360" y="543" width="304" height="157.518072" rx="20"></rect>
        <rect id="Rectangle-Copy" stroke="#5B4EFF" stroke-width="12" fill="#FFFFFF" x="364" y="546" width="297" height="152" rx="20"></rect>
        <path d="M673.5,592 C679.29899,592 684,587.29899 684,581.5 C684,575.70101 679.29899,571 673.5,571 C667.70101,571 667,575.70101 667,581.5 C667,587.29899 667.70101,592 673.5,592 Z" id="Oval" fill="#4AA810"></path>
        <path d="M347.5,592 C353.29899,592 358,587.29899 358,581.5 C358,575.70101 353.29899,571 347.5,571 C341.70101,571 341,575.70101 341,581.5 C341,587.29899 341.70101,592 347.5,592 Z" id="Oval" fill="#4AA810" transform="translate(349.500000, 581.500000) scale(-1, 1) translate(-349.500000, -581.500000) "></path>
    </g>
</svg>