<?xml version="1.0" encoding="UTF-8"?>
<svg width="1024px" height="1024px" viewBox="0 0 1024 1024" version="1.1" xmlns="http://www.w3.org/2000/svg" xmlns:xlink="http://www.w3.org/1999/xlink">
    <!-- Generator: Sketch 55.2 (78181) - https://sketchapp.com -->
    <title>BodyLight</title>
    <desc>Created with Sketch.</desc>
    <g id="BodyLight" stroke="none" stroke-width="1" fill="none" fill-rule="evenodd">
        <rect id="Rectangle" x="0" y="0" width="1024" height="1024"></rect>
        <path d="M688.658846,698.902119 C689.437384,705.065964 689.837523,711.334941 689.837523,717.68921 C689.837523,807.322323 609.367521,847.665002 511.15236,847.665002 C412.937198,847.665002 334.16896,807.322323 334.16896,717.68921 C334.16896,708.845057 334.944123,700.166133 336.435826,691.705937 C386.814257,726.75591 452.410172,745.610428 518.006086,745.610428 C578.960443,745.610428 639.9148,729.329792 688.658846,698.902119 Z" id="BodyLightBottom" fill="#FBE66A"></path>
        <path d="M681.812508,760.006786 C632.771086,784.960889 573.530394,798.244903 514.289702,798.244903 C452.663546,798.244903 391.037389,783.869525 340.892874,756.935619 C336.51169,744.610526 334.16896,730.893212 334.16896,715.738681 C334.16896,707.320932 334.899586,699.055862 336.307196,690.991464 C386.455169,724.785893 451.430125,742.953699 516.40508,742.953699 C577.977995,742.953699 639.55091,726.638592 688.506016,696.170932 C689.384971,702.583348 689.837523,709.11373 689.837523,715.738681 C689.837523,732.163974 687.02597,746.900912 681.812508,760.006786 Z" id="BodyLightMid" fill="#F9DC28"></path>
        <path d="M689.833579,706.81021 C639.306936,732.033801 576.798319,745.509352 514.289702,745.509352 C449.883471,745.509352 385.477239,731.20321 334.177678,704.480591 C334.416441,685.365564 339.551682,667.170132 348.646228,650.62979 C396.872998,675.861912 456.639039,689.34536 516.40508,689.34536 C573.334228,689.34536 630.263376,677.11156 677.219684,654.143243 C685.360335,670.141453 689.837523,687.598942 689.837523,705.8771 C689.837523,706.18883 689.836207,706.499866 689.833579,706.81021 Z" id="BodyLightTop" fill="#DFC104"></path>
    </g>
</svg>