<?xml version="1.0" encoding="UTF-8"?>
<svg width="1024px" height="1024px" viewBox="0 0 1024 1024" version="1.1" xmlns="http://www.w3.org/2000/svg" xmlns:xlink="http://www.w3.org/1999/xlink">
    <!-- Generator: Sketch 55.2 (78181) - https://sketchapp.com -->
    <title>Eyes</title>
    <desc>Created with Sketch.</desc>
    <g id="Eyes" stroke="none" stroke-width="1" fill="none" fill-rule="evenodd">
        <rect id="Rectangle" x="0" y="0" width="1024" height="1024"></rect>
        <ellipse id="LeftEye" fill="#FFFFFF" cx="400.200254" cy="385.417811" rx="96.0455192" ry="96.0513644"></ellipse>
        <path d="M401.069852,443.949111 C432.913564,443.949111 458.727993,417.10376 458.727993,383.98834 C458.727993,350.87292 432.826512,321.5849 401.069852,324.027569 C371.519563,326.300527 363.528308,337.487135 377.096088,357.587392 C357.329024,347.265264 346.100899,356.06558 343.411712,383.98834 C340.23833,416.938662 369.22614,443.949111 401.069852,443.949111 Z" id="LeftPupil" fill="#17191C"></path>
        <ellipse id="RightEye" fill="#FFFFFF" cx="623.806229" cy="385.417811" rx="96.0455192" ry="96.0513644"></ellipse>
        <path d="M624.046159,444.744096 C656.082921,444.744096 682.053849,417.812511 682.053849,384.590717 C682.053849,351.368922 655.995342,321.986822 624.046159,324.437337 C594.316722,326.717597 586.277021,337.940138 599.927055,358.104962 C580.040154,347.749677 568.743959,356.578262 566.038469,384.590717 C562.845849,417.646883 592.009396,444.744096 624.046159,444.744096 Z" id="RightPupil" fill="#17191C"></path>
    </g>
</svg>