<?xml version="1.0" encoding="UTF-8"?>
<svg width="3072px" height="1024px" viewBox="0 0 3072 1024" version="1.1" xmlns="http://www.w3.org/2000/svg" xmlns:xlink="http://www.w3.org/1999/xlink">
    <!-- Generator: Sketch 56.2 (81672) - https://sketch.com -->
    <title>BlueBlockLeftSide</title>
    <desc>Created with Sketch.</desc>
    <defs>
        <radialGradient cx="50%" cy="50%" fx="50%" fy="50%" r="56.3022823%" gradientTransform="translate(0.500000,0.500000),scale(0.883117,1.000000),rotate(90.000000),translate(-0.500000,-0.500000)" id="radialGradient-1">
            <stop stop-color="#7166FF" offset="0%"></stop>
            <stop stop-color="#5B4EFF" offset="100%"></stop>
        </radialGradient>
        <path d="M2835.02605,210.269232 L2835.02605,201.972511 C2902.87783,279.82321 2945,388.491551 2945,508.718433 C2945,628.945314 2902.87783,737.613655 2835.02605,815.464354 L2835.02605,813.54804 C2822.44874,829.682763 2804.82298,842.117015 2783.64421,848.160968 C2765.74138,853.27004 2746.76777,853.279889 2728.85965,848.189406 C2642.4976,823.64052 2571.23052,811.366077 2515.05839,811.366077 C2459.14104,811.366077 2388.26536,823.529427 2302.43134,847.856127 C2249.29569,862.915596 2194.01263,832.048758 2178.95316,778.913113 C2173.88961,761.046963 2173.90085,742.123781 2178.98562,724.263659 C2203.0815,639.627511 2215.12943,568.958096 2215.12943,512.255412 C2215.12943,455.451286 2203.03835,384.630409 2178.85618,299.792782 C2163.71684,246.67984 2194.50052,191.35043 2247.61347,176.211086 C2265.48984,171.115594 2284.43264,171.103541 2302.31548,176.176281 C2389.19835,200.821925 2460.11266,213.144747 2515.05839,213.144747 C2570.25214,213.144747 2641.55893,200.710432 2728.97876,175.841801 C2769.20849,164.397508 2810.69563,179.292567 2835.02605,210.269232 Z" id="path-2"></path>
        <filter x="-9.1%" y="-7.4%" width="118.2%" height="120.6%" filterUnits="objectBoundingBox" id="filter-3">
            <feOffset dx="0" dy="20" in="SourceAlpha" result="shadowOffsetOuter1"></feOffset>
            <feGaussianBlur stdDeviation="20" in="shadowOffsetOuter1" result="shadowBlurOuter1"></feGaussianBlur>
            <feColorMatrix values="0 0 0 0 0   0 0 0 0 0   0 0 0 0 0  0 0 0 0.5 0" type="matrix" in="shadowBlurOuter1"></feColorMatrix>
        </filter>
        <radialGradient cx="50%" cy="50%" fx="50%" fy="50%" r="56.3022823%" gradientTransform="translate(0.500000,0.500000),scale(0.800000,1.000000),rotate(90.000000),translate(-0.500000,-0.500000)" id="radialGradient-4">
            <stop stop-color="#7166FF" offset="0%"></stop>
            <stop stop-color="#5B4EFF" offset="100%"></stop>
        </radialGradient>
        <path d="M180.818111,221.451937 C193.396818,200.188243 213.829835,183.518804 239.464539,176.211495 C257.340987,171.115719 276.28394,171.103449 294.166973,176.176064 C381.057124,200.822903 451.977098,213.146322 506.926894,213.146322 C562.124709,213.146322 633.437192,200.711407 720.864342,175.841576 C761.154628,164.380462 802.705868,179.337934 827.020877,210.40976 L827.020877,202.895817 C894.875847,280.746107 937,389.413875 937,509.640123 C937,629.866371 894.875847,738.53414 827.020877,816.384429 L827.020877,813.406438 C814.436692,829.609639 796.770314,842.098788 775.5302,848.160562 C757.627292,853.269921 738.653516,853.279986 720.745198,848.189625 C634.375948,823.639542 563.10318,811.3645 506.926894,811.3645 C451.005398,811.3645 380.124052,823.528446 294.282854,847.856338 C242.900711,862.418333 189.510942,834.035389 172.426187,784.099504 C119.112548,709.569707 87,613.409671 87,508.438249 C87,398.068516 122.500346,297.43975 180.818111,221.451937 Z" id="path-5"></path>
        <filter x="-8.2%" y="-7.4%" width="116.5%" height="120.6%" filterUnits="objectBoundingBox" id="filter-6">
            <feOffset dx="0" dy="20" in="SourceAlpha" result="shadowOffsetOuter1"></feOffset>
            <feGaussianBlur stdDeviation="20" in="shadowOffsetOuter1" result="shadowBlurOuter1"></feGaussianBlur>
            <feColorMatrix values="0 0 0 0 0   0 0 0 0 0   0 0 0 0 0  0 0 0 0.5 0" type="matrix" in="shadowBlurOuter1"></feColorMatrix>
        </filter>
        <linearGradient x1="51.6223145%" y1="50%" x2="51.6223145%" y2="106.302282%" id="linearGradient-7">
            <stop stop-color="#7166FF" offset="0%"></stop>
            <stop stop-color="#5B4EFF" offset="100%"></stop>
        </linearGradient>
        <radialGradient cx="50%" cy="50%" fx="50%" fy="50%" r="56.3022823%" gradientTransform="translate(0.500000,0.500000),scale(0.829268,1.000000),rotate(90.000000),translate(-0.500000,-0.500000)" id="radialGradient-8">
            <stop stop-color="#7166FF" offset="0%"></stop>
            <stop stop-color="#5B4EFF" offset="100%"></stop>
        </radialGradient>
        <path d="M760.026137,639.608576 C747.451269,655.795897 729.803149,668.275669 708.584947,674.341278 C690.693316,679.455926 671.729472,679.476943 653.826548,674.401966 C567.479544,649.925009 496.223607,637.686531 440.058739,637.686531 C384.148621,637.686531 313.284024,649.814239 227.464948,674.069656 C220.199265,676.123187 212.894069,677.318339 205.657576,677.715636 C182.751497,682.386043 160.829426,678.448399 145.008799,678.448399 C92.5368884,678.448399 50,526.61879 50,339.327474 C50,152.036159 92.5368884,0.206549764 145.008799,0.206549764 C156.242857,0.206549764 170.553427,-0.739080158 186.108228,1.41634549 C199.849819,-0.529526957 213.898286,0.399525163 227.349281,4.20459726 C314.216911,28.778064 385.120064,41.0647974 440.058739,41.0647974 C495.245397,41.0647974 566.540979,28.6668936 653.945485,3.87108597 C694.215706,-7.55318489 735.726237,7.40499219 760.026137,38.4498393 L760.026137,29.9224345 C827.877861,107.564967 870,215.942738 870,335.848142 C870,455.753547 827.877861,564.131317 760.026137,641.77385 L760.026137,639.608576 Z" id="path-9"></path>
        <filter x="-8.5%" y="-7.4%" width="117.1%" height="120.6%" filterUnits="objectBoundingBox" id="filter-10">
            <feOffset dx="0" dy="20" in="SourceAlpha" result="shadowOffsetOuter1"></feOffset>
            <feGaussianBlur stdDeviation="20" in="shadowOffsetOuter1" result="shadowBlurOuter1"></feGaussianBlur>
            <feColorMatrix values="0 0 0 0 0   0 0 0 0 0   0 0 0 0 0  0 0 0 0.5 0" type="matrix" in="shadowBlurOuter1"></feColorMatrix>
        </filter>
    </defs>
    <g id="BlueBlockLeftSide" stroke="none" stroke-width="1" fill="none" fill-rule="evenodd">
        <rect id="Rectangle" x="0" y="0" width="1024" height="1024"></rect>
        <rect id="Rectangle-Copy" x="1024" y="0" width="1024" height="1024"></rect>
        <rect id="Rectangle-Copy-2" x="2048" y="0" width="1024" height="1024"></rect>
        <g id="BlueBlockLeftSideEndState">
            <use fill="black" fill-opacity="1" filter="url(#filter-3)" xlink:href="#path-2"></use>
            <use fill="url(#radialGradient-1)" fill-rule="evenodd" xlink:href="#path-2"></use>
        </g>
        <g id="BlueBlock">
            <use fill="black" fill-opacity="1" filter="url(#filter-6)" xlink:href="#path-5"></use>
            <use fill="url(#radialGradient-4)" fill-rule="evenodd" xlink:href="#path-5"></use>
        </g>
        <g id="BlueBlockLeftSideMidState" transform="translate(1101.000000, 172.000000)">
            <g id="BlueKnob" transform="translate(0.000000, 193.000000)" fill="url(#linearGradient-7)">
                <g id="Group">
                    <path d="M40.9832957,133.773202 C18.2085636,132.471347 1.42108547e-14,103.074133 1.42108547e-14,67 C1.42108547e-14,30.925867 18.2085636,1.52865253 40.9832957,0.226798281 L40.983306,0.181818182 L223.831902,0.181818182 L223.831902,0.22679769 C246.606644,1.52865253 264.815208,30.925867 264.815208,67 C264.815208,103.074133 246.606644,132.471347 223.831912,133.773202 L223.831902,133.818182 L40.983306,133.818182 L40.983306,133.773202 Z" id="Combined-Shape"></path>
                </g>
                <g id="Group-Copy" transform="translate(0.000000, 160.000000)">
                    <path d="M40.9832957,133.773202 C18.2085636,132.471347 1.42108547e-14,103.074133 1.42108547e-14,67 C1.42108547e-14,30.925867 18.2085636,1.52865253 40.9832957,0.226798281 L40.983306,0.181818182 L223.831902,0.181818182 L223.831902,0.22679769 C246.606644,1.52865253 264.815208,30.925867 264.815208,67 C264.815208,103.074133 246.606644,132.471347 223.831912,133.773202 L223.831902,133.818182 L40.983306,133.818182 L40.983306,133.773202 Z" id="Combined-Shape"></path>
                </g>
            </g>
            <g id="BlueBlockMidStateLeft">
                <use fill="black" fill-opacity="1" filter="url(#filter-10)" xlink:href="#path-9"></use>
                <use fill="url(#radialGradient-8)" fill-rule="evenodd" xlink:href="#path-9"></use>
            </g>
        </g>
    </g>
</svg>