<?xml version="1.0" encoding="UTF-8"?>
<svg width="3072px" height="1024px" viewBox="0 0 3072 1024" version="1.1" xmlns="http://www.w3.org/2000/svg" xmlns:xlink="http://www.w3.org/1999/xlink">
    <!-- Generator: Sketch 56.2 (81672) - https://sketch.com -->
    <title>GreenBlockRightSide</title>
    <desc>Created with Sketch.</desc>
    <defs>
        <radialGradient cx="51.6223145%" cy="50%" fx="51.6223145%" fy="50%" r="56.3022823%" id="radialGradient-1">
            <stop stop-color="#7CD147" offset="0%"></stop>
            <stop stop-color="#4AA810" offset="100%"></stop>
        </radialGradient>
        <path d="M299.134664,174.901125 C386.070954,199.633708 457.026066,212 512,212 C567.222022,212 638.569788,199.521843 726.043297,174.565528 L726.043297,174.565527 C779.152587,159.413372 834.489422,190.18371 849.641577,243.293 C854.756961,261.222755 854.757758,280.225561 849.643877,298.155745 C824.547959,386.146535 812,457.427954 812,512 C812,566.477074 824.504322,637.605411 849.512967,725.385011 L849.512968,725.385011 C864.645539,778.499885 833.854798,833.82537 780.739924,848.957941 C762.824147,854.062194 743.838772,854.060596 725.923854,848.953328 C639.508984,824.317776 568.201033,812 512,812 C456.053832,812 385.13745,824.20631 299.250856,848.618931 L299.250856,848.618931 C246.12675,863.71906 190.820081,832.894536 175.719952,779.770431 C170.639428,761.896523 170.639557,742.960556 175.720325,725.086718 C199.906775,640.000225 212,568.971319 212,512 C212,454.926936 199.863542,383.74603 175.590626,298.457282 L175.590625,298.457282 C160.473078,245.338131 191.279465,190.021357 244.398616,174.90381 C262.28864,169.812364 281.24414,169.811434 299.134664,174.901125 Z" id="path-2"></path>
        <filter x="-1.3%" y="1.1%" width="102.7%" height="102.8%" filterUnits="objectBoundingBox" id="filter-3">
            <feOffset dx="0" dy="20" in="SourceAlpha" result="shadowOffsetOuter1"></feOffset>
            <feGaussianBlur stdDeviation="20" in="shadowOffsetOuter1" result="shadowBlurOuter1"></feGaussianBlur>
            <feColorMatrix values="0 0 0 0 0   0 0 0 0 0   0 0 0 0 0  0 0 0 0.5 0" type="matrix" in="shadowBlurOuter1"></feColorMatrix>
        </filter>
        <radialGradient cx="50%" cy="50%" fx="50%" fy="50%" r="56.3022823%" gradientTransform="translate(0.500000,0.500000),scale(0.949721,1.000000),rotate(90.000000),translate(-0.500000,-0.500000)" id="radialGradient-4">
            <stop stop-color="#7CD147" offset="0%"></stop>
            <stop stop-color="#4AA810" offset="100%"></stop>
        </radialGradient>
        <path d="M1766.95977,172.482548 C1779.03649,171.592201 1790.07534,172.20655 1799.11814,172.20655 C1851.51994,172.20655 1894,324.036159 1894,511.327474 C1894,698.61879 1851.51994,850.448399 1799.11814,850.448399 C1778.45252,850.448399 1747.36222,857.185098 1717.28362,842.584082 C1637.1826,820.652381 1570.58533,809.686531 1517.49181,809.686531 C1461.69986,809.686531 1390.99667,821.795361 1305.38222,846.01302 C1252.23896,861.045591 1196.97152,830.150774 1181.93895,777.007514 C1176.88855,759.153312 1176.90516,740.246062 1181.98692,722.40076 C1205.97151,638.175444 1217.9638,567.833745 1217.9638,511.375664 C1217.9638,454.816417 1205.92849,384.323752 1181.85787,299.897669 C1166.71517,246.785682 1197.49536,191.454327 1250.60735,176.311629 C1268.4691,171.219084 1287.39619,171.201706 1305.26726,176.261441 C1391.92734,200.797012 1462.66885,213.064797 1517.49181,213.064797 C1572.56242,213.064797 1643.69575,200.685923 1730.89178,175.928173 C1742.96828,172.49927 1755.15686,171.443265 1766.95976,172.482549 Z" id="path-5"></path>
        <filter x="-9.8%" y="-7.4%" width="119.6%" height="120.6%" filterUnits="objectBoundingBox" id="filter-6">
            <feOffset dx="0" dy="20" in="SourceAlpha" result="shadowOffsetOuter1"></feOffset>
            <feGaussianBlur stdDeviation="20" in="shadowOffsetOuter1" result="shadowBlurOuter1"></feGaussianBlur>
            <feColorMatrix values="0 0 0 0 0   0 0 0 0 0   0 0 0 0 0  0 0 0 0.5 0" type="matrix" in="shadowBlurOuter1"></feColorMatrix>
        </filter>
        <radialGradient cx="50%" cy="50%" fx="50%" fy="50%" r="56.3022823%" gradientTransform="translate(0.500000,0.500000),scale(0.883117,1.000000),rotate(90.000000),translate(-0.500000,-0.500000)" id="radialGradient-7">
            <stop stop-color="#7CD147" offset="0%"></stop>
            <stop stop-color="#4AA810" offset="100%"></stop>
        </radialGradient>
        <path d="M2836.02605,210.269232 L2836.02605,201.972511 C2903.87783,279.82321 2946,388.491551 2946,508.718433 C2946,628.945314 2903.87783,737.613655 2836.02605,815.464354 L2836.02605,813.54804 C2823.44874,829.682763 2805.82298,842.117015 2784.64421,848.160968 C2766.74138,853.27004 2747.76777,853.279889 2729.85965,848.189406 C2643.4976,823.64052 2572.23052,811.366077 2516.05839,811.366077 C2460.14104,811.366077 2389.26536,823.529427 2303.43134,847.856127 C2250.29569,862.915596 2195.01263,832.048758 2179.95316,778.913113 C2174.88961,761.046963 2174.90085,742.123781 2179.98562,724.263659 C2204.0815,639.627511 2216.12943,568.958096 2216.12943,512.255412 C2216.12943,455.451286 2204.03835,384.630409 2179.85618,299.792782 C2164.71684,246.67984 2195.50052,191.35043 2248.61347,176.211086 C2266.48984,171.115594 2285.43264,171.103541 2303.31548,176.176281 C2390.19835,200.821925 2461.11266,213.144747 2516.05839,213.144747 C2571.25214,213.144747 2642.55893,200.710432 2729.97876,175.841801 C2770.20849,164.397508 2811.69563,179.292567 2836.02605,210.269232 Z" id="path-8"></path>
        <filter x="-9.1%" y="-7.4%" width="118.2%" height="120.6%" filterUnits="objectBoundingBox" id="filter-9">
            <feOffset dx="0" dy="20" in="SourceAlpha" result="shadowOffsetOuter1"></feOffset>
            <feGaussianBlur stdDeviation="20" in="shadowOffsetOuter1" result="shadowBlurOuter1"></feGaussianBlur>
            <feColorMatrix values="0 0 0 0 0   0 0 0 0 0   0 0 0 0 0  0 0 0 0.5 0" type="matrix" in="shadowBlurOuter1"></feColorMatrix>
        </filter>
    </defs>
    <g id="GreenBlockRightSide" stroke="none" stroke-width="1" fill="none" fill-rule="evenodd">
        <rect id="Rectangle" x="0" y="0" width="1024" height="1024"></rect>
        <g id="GreenBlock">
            <use fill="black" fill-opacity="1" filter="url(#filter-3)" xlink:href="#path-2"></use>
            <use fill="url(#radialGradient-1)" fill-rule="evenodd" xlink:href="#path-2"></use>
        </g>
        <rect id="Rectangle-Copy" x="1024" y="0" width="1024" height="1024"></rect>
        <g id="GreenBlockRightSideMidState">
            <use fill="black" fill-opacity="1" filter="url(#filter-6)" xlink:href="#path-5"></use>
            <use fill="url(#radialGradient-4)" fill-rule="evenodd" xlink:href="#path-5"></use>
        </g>
        <rect id="Rectangle-Copy-2" x="2048" y="0" width="1024" height="1024"></rect>
        <g id="GreenBlockRightSideEndState">
            <use fill="black" fill-opacity="1" filter="url(#filter-9)" xlink:href="#path-8"></use>
            <use fill="url(#radialGradient-7)" fill-rule="evenodd" xlink:href="#path-8"></use>
        </g>
    </g>
</svg>