<?xml version="1.0" encoding="UTF-8"?>
<svg width="7168px" height="1024px" viewBox="0 0 7168 1024" version="1.1" xmlns="http://www.w3.org/2000/svg" xmlns:xlink="http://www.w3.org/1999/xlink">
    <!-- Generator: Sketch 56.2 (81672) - https://sketch.com -->
    <title>EyeLidForBlink</title>
    <desc>Created with Sketch.</desc>
    <g id="EyeLidForBlink" stroke="none" stroke-width="1" fill="none" fill-rule="evenodd">
        <g id="Group-Copy">
            <rect id="Rectangle" x="0" y="0" width="1024" height="1024"></rect>
            <path d="M546.993557,447.599588 C567.33333,461.500987 594.569666,470 624.5,470 C654.430334,470 681.66667,461.500987 702.006443,447.599588 C683.869001,470.390314 655.890638,485 624.5,485 C593.109362,485 565.130999,470.390314 546.993557,447.599588 Z M546.993557,324.400412 C565.130999,301.609686 593.109362,287 624.5,287 C655.890638,287 683.869001,301.609686 702.006443,324.400412 C681.66667,310.499013 654.430334,302 624.5,302 C594.569666,302 567.33333,310.499013 546.993557,324.400412 Z" id="Combined-Shape" fill="#4AA810"></path>
            <path d="M323,447.599588 C343.339774,461.500987 370.57611,470 400.506443,470 C430.436777,470 457.673113,461.500987 478.012887,447.599588 C459.875445,470.390314 431.897081,485 400.506443,485 C369.115805,485 341.137442,470.390314 323,447.599588 Z M323,324.400412 C341.137442,301.609686 369.115805,287 400.506443,287 C431.897081,287 459.875445,301.609686 478.012887,324.400412 C457.673113,310.499013 430.436777,302 400.506443,302 C370.57611,302 343.339774,310.499013 323,324.400412 Z" id="Combined-Shape" fill="#4AA810"></path>
        </g>
        <g id="Group-Copy" transform="translate(1024.000000, 0.000000)">
            <rect id="Rectangle" x="0" y="0" width="1024" height="1024"></rect>
            <path d="M538.660894,435.355297 C559.557424,451.072757 590.266552,461 624.5,461 C658.733448,461 689.442576,451.072757 710.339106,435.355297 C693.24223,465.026246 661.203675,485 624.5,485 C587.796325,485 555.75777,465.026246 538.660894,435.355297 Z M538.660894,336.644703 C555.75777,306.973754 587.796325,287 624.5,287 C661.203675,287 693.24223,306.973754 710.339106,336.644703 C689.442576,320.927243 658.733448,311 624.5,311 C590.266552,311 559.557424,320.927243 538.660894,336.644703 Z" id="Combined-Shape" fill="#4AA810"></path>
            <path d="M314.667338,435.355297 C335.563868,451.072757 366.272995,461 400.506443,461 C434.739891,461 465.449019,451.072757 486.345549,435.355297 C469.248674,465.026246 437.210119,485 400.506443,485 C363.802768,485 331.764213,465.026246 314.667338,435.355297 Z M314.667338,336.644703 C331.764213,306.973754 363.802768,287 400.506443,287 C437.210119,287 469.248674,306.973754 486.345549,336.644703 C465.449019,320.927243 434.739891,311 400.506443,311 C366.272995,311 335.563868,320.927243 314.667338,336.644703 Z" id="Combined-Shape" fill="#4AA810"></path>
        </g>
        <g id="Group-Copy" transform="translate(2048.000000, 0.000000)">
            <rect id="Rectangle" x="0" y="0" width="1024" height="1024"></rect>
            <path d="M525.907428,395.042517 C545.656604,400.399274 582.415152,404 624.5,404 C666.584848,404 703.343396,400.399274 723.092572,395.042517 C718.52553,445.48071 676.127877,485 624.5,485 C572.872123,485 530.47447,445.48071 525.907428,395.042517 Z M525.907428,376.957483 C530.47447,326.51929 572.872123,287 624.5,287 C676.127877,287 718.52553,326.51929 723.092572,376.957483 C703.343396,371.600726 666.584848,368 624.5,368 C582.415152,368 545.656604,371.600726 525.907428,376.957483 Z" id="Combined-Shape" fill="#4AA810"></path>
            <path d="M301.913871,395.042517 C321.663048,400.399274 358.421596,404 400.506443,404 C442.591291,404 479.349839,400.399274 499.099016,395.042517 C494.531973,445.48071 452.134321,485 400.506443,485 C348.878566,485 306.480913,445.48071 301.913871,395.042517 Z M301.913871,376.957483 C306.480913,326.51929 348.878566,287 400.506443,287 C452.134321,287 494.531973,326.51929 499.099016,376.957483 C479.349839,371.600726 442.591291,368 400.506443,368 C358.421596,368 321.663048,371.600726 301.913871,376.957483 Z" id="Combined-Shape" fill="#4AA810"></path>
        </g>
        <g id="Group-Copy" transform="translate(3072.000000, 0.000000)">
            <rect id="Rectangle" x="0" y="0" width="1024" height="1024"></rect>
            <path d="M525.501556,386.561073 C545.150221,386.673947 582.125129,386.75 624.5,386.75 C666.874871,386.75 703.849779,386.673947 723.498444,386.561073 C723.196455,440.979095 678.989044,485 624.5,485 C570.010956,485 525.803545,440.979095 525.501556,386.561073 Z M525.500176,386.188935 C525.500059,386.12597 525.5,386.062992 525.5,386 C525.5,331.32381 569.82381,287 624.5,287 C679.17619,287 723.5,331.32381 723.5,386 C723.5,386.062992 723.499941,386.12597 723.499824,386.188935 C703.85151,386.076056 666.875863,386 624.5,386 C582.124137,386 545.14849,386.076056 525.500176,386.188935 Z" id="Combined-Shape" fill="#4AA810"></path>
            <path d="M301.508,386.561073 C321.156665,386.673947 358.131572,386.75 400.506443,386.75 C442.881315,386.75 479.856222,386.673947 499.504887,386.561073 C499.202898,440.979095 454.995487,485 400.506443,485 C346.017399,485 301.809989,440.979095 301.508,386.561073 Z M301.50662,386.188935 C301.506502,386.12597 301.506443,386.062992 301.506443,386 C301.506443,331.32381 345.830253,287 400.506443,287 C455.182634,287 499.506443,331.32381 499.506443,386 C499.506443,386.062992 499.506385,386.12597 499.506267,386.188935 C479.857953,386.076056 442.882307,386 400.506443,386 C358.13058,386 321.154933,386.076056 301.50662,386.188935 Z" id="Combined-Shape" fill="#4AA810"></path>
        </g>
        <g id="Group-Copy" transform="translate(4096.000000, 0.000000)">
            <rect id="Rectangle" x="0" y="0" width="1024" height="1024"></rect>
            <path d="M525.907428,395.042517 C545.656604,400.399274 582.415152,404 624.5,404 C666.584848,404 703.343396,400.399274 723.092572,395.042517 C718.52553,445.48071 676.127877,485 624.5,485 C572.872123,485 530.47447,445.48071 525.907428,395.042517 Z M525.907428,376.957483 C530.47447,326.51929 572.872123,287 624.5,287 C676.127877,287 718.52553,326.51929 723.092572,376.957483 C703.343396,371.600726 666.584848,368 624.5,368 C582.415152,368 545.656604,371.600726 525.907428,376.957483 Z" id="Combined-Shape" fill="#4AA810"></path>
            <path d="M301.913871,395.042517 C321.663048,400.399274 358.421596,404 400.506443,404 C442.591291,404 479.349839,400.399274 499.099016,395.042517 C494.531973,445.48071 452.134321,485 400.506443,485 C348.878566,485 306.480913,445.48071 301.913871,395.042517 Z M301.913871,376.957483 C306.480913,326.51929 348.878566,287 400.506443,287 C452.134321,287 494.531973,326.51929 499.099016,376.957483 C479.349839,371.600726 442.591291,368 400.506443,368 C358.421596,368 321.663048,371.600726 301.913871,376.957483 Z" id="Combined-Shape" fill="#4AA810"></path>
        </g>
        <g id="Group-Copy" transform="translate(5120.000000, 0.000000)">
            <rect id="Rectangle" x="0" y="0" width="1024" height="1024"></rect>
            <path d="M532.832529,423.459837 C553.60072,438.955181 586.927704,449 624.5,449 C662.072296,449 695.39928,438.955181 716.167471,423.459837 C701.398286,459.563768 665.919618,485 624.5,485 C583.080382,485 547.601714,459.563768 532.832529,423.459837 Z M532.832529,348.540163 C547.601714,312.436232 583.080382,287 624.5,287 C665.919618,287 701.398286,312.436232 716.167471,348.540163 C695.39928,333.044819 662.072296,323 624.5,323 C586.927704,323 553.60072,333.044819 532.832529,348.540163 Z" id="Combined-Shape" fill="#4AA810"></path>
            <path d="M308.838972,423.459837 C329.607163,438.955181 362.934148,449 400.506443,449 C438.078739,449 471.405723,438.955181 492.173914,423.459837 C477.40473,459.563768 441.926062,485 400.506443,485 C359.086825,485 323.608157,459.563768 308.838972,423.459837 Z M308.838972,348.540163 C323.608157,312.436232 359.086825,287 400.506443,287 C441.926062,287 477.40473,312.436232 492.173914,348.540163 C471.405723,333.044819 438.078739,323 400.506443,323 C362.934148,323 329.607163,333.044819 308.838972,348.540163 Z" id="Combined-Shape" fill="#4AA810"></path>
        </g>
        <g id="Group-Copy" transform="translate(6144.000000, 0.000000)">
            <rect id="Rectangle" x="0" y="0" width="1024" height="1024"></rect>
            <path d="M538.660894,435.355297 C559.557424,451.072757 590.266552,461 624.5,461 C658.733448,461 689.442576,451.072757 710.339106,435.355297 C693.24223,465.026246 661.203675,485 624.5,485 C587.796325,485 555.75777,465.026246 538.660894,435.355297 Z M538.660894,336.644703 C555.75777,306.973754 587.796325,287 624.5,287 C661.203675,287 693.24223,306.973754 710.339106,336.644703 C689.442576,320.927243 658.733448,311 624.5,311 C590.266552,311 559.557424,320.927243 538.660894,336.644703 Z" id="Combined-Shape" fill="#4AA810"></path>
            <path d="M314.667338,435.355297 C335.563868,451.072757 366.272995,461 400.506443,461 C434.739891,461 465.449019,451.072757 486.345549,435.355297 C469.248674,465.026246 437.210119,485 400.506443,485 C363.802768,485 331.764213,465.026246 314.667338,435.355297 Z M314.667338,336.644703 C331.764213,306.973754 363.802768,287 400.506443,287 C437.210119,287 469.248674,306.973754 486.345549,336.644703 C465.449019,320.927243 434.739891,311 400.506443,311 C366.272995,311 335.563868,320.927243 314.667338,336.644703 Z" id="Combined-Shape" fill="#4AA810"></path>
        </g>
    </g>
</svg>