<?xml version="1.0" encoding="UTF-8"?>
<svg width="8192px" height="1024px" viewBox="0 0 8192 1024" version="1.1" xmlns="http://www.w3.org/2000/svg" xmlns:xlink="http://www.w3.org/1999/xlink">
    <!-- Generator: Sketch 56.2 (81672) - https://sketch.com -->
    <title>EyesMove</title>
    <desc>Created with Sketch.</desc>
    <g id="EyesMove" stroke="none" stroke-width="1" fill="none" fill-rule="evenodd">
        <g id="Group-Copy">
            <rect id="Rectangle" x="0" y="0" width="1024" height="1024"></rect>
            <circle id="Oval" fill="#FFFFFF" cx="401" cy="386" r="96"></circle>
            <circle id="Oval" fill="#FFFFFF" cx="624.5" cy="386" r="96"></circle>
            <path d="M401.869186,444.5 C433.697806,444.5 459.5,417.669004 459.5,384.571293 C459.5,351.473582 433.610795,322.201224 401.869186,324.642587 C372.332901,326.91433 364.345434,338.094955 377.906783,358.184463 C358.149088,347.867855 346.926284,356.663465 344.238371,384.571293 C341.066493,417.503995 370.040566,444.5 401.869186,444.5 Z" id="Oval" fill="#17191C"></path>
            <path d="M624.739816,445.29456 C656.761396,445.29456 682.720014,418.377376 682.720014,385.173348 C682.720014,351.969319 656.673858,322.602931 624.739816,325.052135 C595.02447,327.331176 586.988579,338.547716 600.632143,358.701757 C580.754668,348.352009 569.463826,357.175873 566.759618,385.173348 C563.568511,418.211837 592.718237,445.29456 624.739816,445.29456 Z" id="Oval" fill="#17191C"></path>
        </g>
        <g id="Group-Copy-2" transform="translate(1024.000000, 0.000000)">
            <rect id="Rectangle" x="0" y="0" width="1024" height="1024"></rect>
            <circle id="Oval" fill="#FFFFFF" cx="401" cy="386" r="96"></circle>
            <circle id="Oval" fill="#FFFFFF" cx="624.5" cy="386" r="96"></circle>
            <path d="M409.369186,450.5 C441.197806,450.5 467,423.669004 467,390.571293 C467,357.473582 441.110795,328.201224 409.369186,330.642587 C379.832901,332.91433 371.845434,344.094955 385.406783,364.184463 C365.649088,353.867855 354.426284,362.663465 351.738371,390.571293 C348.566493,423.503995 377.540566,450.5 409.369186,450.5 Z" id="Oval" fill="#17191C"></path>
            <path d="M632.239816,451.29456 C664.261396,451.29456 690.220014,424.377376 690.220014,391.173348 C690.220014,357.969319 664.173858,328.602931 632.239816,331.052135 C602.52447,333.331176 594.488579,344.547716 608.132143,364.701757 C588.254668,354.352009 576.963826,363.175873 574.259618,391.173348 C571.068511,424.211837 600.218237,451.29456 632.239816,451.29456 Z" id="Oval" fill="#17191C"></path>
        </g>
        <g id="Group-Copy-2" transform="translate(2048.000000, 0.000000)">
            <rect id="Rectangle" x="0" y="0" width="1024" height="1024"></rect>
            <circle id="Oval" fill="#FFFFFF" cx="401" cy="386" r="96"></circle>
            <circle id="Oval" fill="#FFFFFF" cx="624.5" cy="386" r="96"></circle>
            <path d="M401.869186,444.5 C433.697806,444.5 459.5,417.669004 459.5,384.571293 C459.5,351.473582 433.610795,322.201224 401.869186,324.642587 C372.332901,326.91433 364.345434,338.094955 377.906783,358.184463 C358.149088,347.867855 346.926284,356.663465 344.238371,384.571293 C341.066493,417.503995 370.040566,444.5 401.869186,444.5 Z" id="Oval" fill="#17191C"></path>
            <path d="M624.739816,445.29456 C656.761396,445.29456 682.720014,418.377376 682.720014,385.173348 C682.720014,351.969319 656.673858,322.602931 624.739816,325.052135 C595.02447,327.331176 586.988579,338.547716 600.632143,358.701757 C580.754668,348.352009 569.463826,357.175873 566.759618,385.173348 C563.568511,418.211837 592.718237,445.29456 624.739816,445.29456 Z" id="Oval" fill="#17191C"></path>
        </g>
        <g id="Group-Copy-2" transform="translate(3072.000000, 0.000000)">
            <rect id="Rectangle" x="0" y="0" width="1024" height="1024"></rect>
            <circle id="Oval" fill="#FFFFFF" cx="401" cy="386" r="96"></circle>
            <circle id="Oval" fill="#FFFFFF" cx="624.5" cy="386" r="96"></circle>
            <path d="M394.369186,452 C426.197806,452 452,425.169004 452,392.071293 C452,358.973582 426.110795,329.701224 394.369186,332.142587 C364.832901,334.41433 356.845434,345.594955 370.406783,365.684463 C350.649088,355.367855 339.426284,364.163465 336.738371,392.071293 C333.566493,425.003995 362.540566,452 394.369186,452 Z" id="Oval" fill="#17191C"></path>
            <path d="M617.239816,452.79456 C649.261396,452.79456 675.220014,425.877376 675.220014,392.673348 C675.220014,359.469319 649.173858,330.102931 617.239816,332.552135 C587.52447,334.831176 579.488579,346.047716 593.132143,366.201757 C573.254668,355.852009 561.963826,364.675873 559.259618,392.673348 C556.068511,425.711837 585.218237,452.79456 617.239816,452.79456 Z" id="Oval" fill="#17191C"></path>
        </g>
        <g id="Group-Copy-2" transform="translate(4096.000000, 0.000000)">
            <rect id="Rectangle" x="0" y="0" width="1024" height="1024"></rect>
            <circle id="Oval" fill="#FFFFFF" cx="401" cy="386" r="96"></circle>
            <circle id="Oval" fill="#FFFFFF" cx="624.5" cy="386" r="96"></circle>
            <path d="M401.869186,444.5 C433.697806,444.5 459.5,417.669004 459.5,384.571293 C459.5,351.473582 433.610795,322.201224 401.869186,324.642587 C372.332901,326.91433 364.345434,338.094955 377.906783,358.184463 C358.149088,347.867855 346.926284,356.663465 344.238371,384.571293 C341.066493,417.503995 370.040566,444.5 401.869186,444.5 Z" id="Oval" fill="#17191C"></path>
            <path d="M624.739816,445.29456 C656.761396,445.29456 682.720014,418.377376 682.720014,385.173348 C682.720014,351.969319 656.673858,322.602931 624.739816,325.052135 C595.02447,327.331176 586.988579,338.547716 600.632143,358.701757 C580.754668,348.352009 569.463826,357.175873 566.759618,385.173348 C563.568511,418.211837 592.718237,445.29456 624.739816,445.29456 Z" id="Oval" fill="#17191C"></path>
        </g>
        <g id="Group-Copy-2" transform="translate(5120.000000, 0.000000)">
            <rect id="Rectangle" x="0" y="0" width="1024" height="1024"></rect>
            <circle id="Oval" fill="#FFFFFF" cx="401" cy="386" r="96"></circle>
            <circle id="Oval" fill="#FFFFFF" cx="624.5" cy="386" r="96"></circle>
            <path d="M395.869186,438.5 C427.697806,438.5 453.5,411.669004 453.5,378.571293 C453.5,345.473582 427.610795,316.201224 395.869186,318.642587 C366.332901,320.91433 358.345434,332.094955 371.906783,352.184463 C352.149088,341.867855 340.926284,350.663465 338.238371,378.571293 C335.066493,411.503995 364.040566,438.5 395.869186,438.5 Z" id="Oval" fill="#17191C"></path>
            <path d="M618.739816,439.29456 C650.761396,439.29456 676.720014,412.377376 676.720014,379.173348 C676.720014,345.969319 650.673858,316.602931 618.739816,319.052135 C589.02447,321.331176 580.988579,332.547716 594.632143,352.701757 C574.754668,342.352009 563.463826,351.175873 560.759618,379.173348 C557.568511,412.211837 586.718237,439.29456 618.739816,439.29456 Z" id="Oval" fill="#17191C"></path>
        </g>
        <g id="Group-Copy-2" transform="translate(6144.000000, 0.000000)">
            <rect id="Rectangle" x="0" y="0" width="1024" height="1024"></rect>
            <circle id="Oval" fill="#FFFFFF" cx="401" cy="386" r="96"></circle>
            <circle id="Oval" fill="#FFFFFF" cx="624.5" cy="386" r="96"></circle>
            <path d="M401.869186,444.5 C433.697806,444.5 459.5,417.669004 459.5,384.571293 C459.5,351.473582 433.610795,322.201224 401.869186,324.642587 C372.332901,326.91433 364.345434,338.094955 377.906783,358.184463 C358.149088,347.867855 346.926284,356.663465 344.238371,384.571293 C341.066493,417.503995 370.040566,444.5 401.869186,444.5 Z" id="Oval" fill="#17191C"></path>
            <path d="M624.739816,445.29456 C656.761396,445.29456 682.720014,418.377376 682.720014,385.173348 C682.720014,351.969319 656.673858,322.602931 624.739816,325.052135 C595.02447,327.331176 586.988579,338.547716 600.632143,358.701757 C580.754668,348.352009 569.463826,357.175873 566.759618,385.173348 C563.568511,418.211837 592.718237,445.29456 624.739816,445.29456 Z" id="Oval" fill="#17191C"></path>
        </g>
        <g id="Group-Copy-2" transform="translate(7168.000000, 0.000000)">
            <rect id="Rectangle" x="0" y="0" width="1024" height="1024"></rect>
            <circle id="Oval" fill="#FFFFFF" cx="401" cy="386" r="96"></circle>
            <circle id="Oval" fill="#FFFFFF" cx="624.5" cy="386" r="96"></circle>
            <path d="M407.869186,438.5 C439.697806,438.5 465.5,411.669004 465.5,378.571293 C465.5,345.473582 439.610795,316.201224 407.869186,318.642587 C378.332901,320.91433 370.345434,332.094955 383.906783,352.184463 C364.149088,341.867855 352.926284,350.663465 350.238371,378.571293 C347.066493,411.503995 376.040566,438.5 407.869186,438.5 Z" id="Oval" fill="#17191C"></path>
            <path d="M630.739816,439.29456 C662.761396,439.29456 688.720014,412.377376 688.720014,379.173348 C688.720014,345.969319 662.673858,316.602931 630.739816,319.052135 C601.02447,321.331176 592.988579,332.547716 606.632143,352.701757 C586.754668,342.352009 575.463826,351.175873 572.759618,379.173348 C569.568511,412.211837 598.718237,439.29456 630.739816,439.29456 Z" id="Oval" fill="#17191C"></path>
        </g>
    </g>
</svg>