<?xml version="1.0" encoding="UTF-8"?>
<svg width="8192px" height="1024px" viewBox="0 0 8192 1024" version="1.1" xmlns="http://www.w3.org/2000/svg" xmlns:xlink="http://www.w3.org/1999/xlink">
    <!-- Generator: Sketch 56.2 (81672) - https://sketch.com -->
    <title>LeftSmallWingMove</title>
    <desc>Created with Sketch.</desc>
    <g id="LeftSmallWingMove" stroke="none" stroke-width="1" fill="none" fill-rule="evenodd">
        <g id="Group-Copy">
            <rect id="Rectangle" x="0" y="0" width="1024" height="1024"></rect>
            <path d="M254.934631,580.414163 C298.158214,605.738518 327.126259,652.243174 327.126259,705.41979 C327.126259,760.06371 296.537527,807.662391 251.324371,832.473061 C208.100788,807.148706 179.132743,760.64405 179.132743,707.467434 C179.132743,652.823514 209.721476,605.224833 254.934631,580.414163 Z" id="Combined-Shape-Copy" stroke="#E3E5E8" stroke-width="22.5" fill="#E3E5E8" transform="translate(253.129501, 706.443612) rotate(-109.000000) translate(-253.129501, -706.443612) "></path>
        </g>
        <g id="Group-Copy" transform="translate(1024.000000, 0.000000)">
            <rect id="Rectangle" x="0" y="0" width="1024" height="1024"></rect>
            <path d="M253.30677,564.811102 C296.530352,590.135457 325.498397,636.640113 325.498397,689.816729 C325.498397,744.460649 294.909665,792.05933 249.696509,816.87 C206.472926,791.545645 177.504882,745.040989 177.504882,691.864372 C177.504882,637.220453 208.093614,589.621772 253.30677,564.811102 Z" id="Combined-Shape-Copy" stroke="#E3E5E8" stroke-width="22.5" fill="#E3E5E8" transform="translate(251.501639, 690.840551) rotate(-104.000000) translate(-251.501639, -690.840551) "></path>
        </g>
        <g id="Group-Copy" transform="translate(2048.000000, 0.000000)">
            <rect id="Rectangle" x="0" y="0" width="1024" height="1024"></rect>
            <path d="M253.175235,549.136931 C296.398818,574.461286 325.366862,620.965942 325.366862,674.142559 C325.366862,728.786478 294.77813,776.385159 249.564974,801.195829 C206.341392,775.871474 177.373347,729.366818 177.373347,676.190202 C177.373347,621.546282 207.962079,573.947601 253.175235,549.136931 Z" id="Combined-Shape-Copy" stroke="#E3E5E8" stroke-width="22.5" fill="#E3E5E8" transform="translate(251.370105, 675.166380) rotate(-99.000000) translate(-251.370105, -675.166380) "></path>
        </g>
        <g id="Group-Copy" transform="translate(3072.000000, 0.000000)">
            <rect id="Rectangle" x="0" y="0" width="1024" height="1024"></rect>
            <path d="M253.372136,564.813956 C296.595719,590.138311 325.563764,636.642967 325.563764,689.819583 C325.563764,744.463503 294.975032,792.062184 249.761876,816.872854 C206.538293,791.548499 177.570248,745.043843 177.570248,691.867226 C177.570248,637.223307 208.158981,589.624626 253.372136,564.813956 Z" id="Combined-Shape-Copy" stroke="#E3E5E8" stroke-width="22.5" fill="#E3E5E8" transform="translate(251.567006, 690.843405) rotate(-104.000000) translate(-251.567006, -690.843405) "></path>
        </g>
        <g id="Group-Copy" transform="translate(4096.000000, 0.000000)">
            <rect id="Rectangle" x="0" y="0" width="1024" height="1024"></rect>
            <path d="M254.934631,580.414163 C298.158214,605.738518 327.126259,652.243174 327.126259,705.41979 C327.126259,760.06371 296.537527,807.662391 251.324371,832.473061 C208.100788,807.148706 179.132743,760.64405 179.132743,707.467434 C179.132743,652.823514 209.721476,605.224833 254.934631,580.414163 Z" id="Combined-Shape-Copy" stroke="#E3E5E8" stroke-width="22.5" fill="#E3E5E8" transform="translate(253.129501, 706.443612) rotate(-109.000000) translate(-253.129501, -706.443612) "></path>
        </g>
        <g id="Group-Copy" transform="translate(5120.000000, 0.000000)">
            <rect id="Rectangle" x="0" y="0" width="1024" height="1024"></rect>
            <path d="M257.850828,595.818827 C301.074411,621.143181 330.042456,667.647838 330.042456,720.824454 C330.042456,775.468374 299.453723,823.067055 254.240567,847.877725 C211.016985,822.55337 182.04894,776.048713 182.04894,722.872097 C182.04894,668.228177 212.637672,620.629496 257.850828,595.818827 Z" id="Combined-Shape-Copy" stroke="#E3E5E8" stroke-width="22.5" fill="#E3E5E8" transform="translate(256.045698, 721.848276) rotate(-114.000000) translate(-256.045698, -721.848276) "></path>
        </g>
        <g id="Group-Copy" transform="translate(6144.000000, 0.000000)">
            <rect id="Rectangle" x="0" y="0" width="1024" height="1024"></rect>
            <path d="M262.098533,610.910707 C305.322116,636.235062 334.29016,682.739719 334.29016,735.916335 C334.29016,790.560254 303.701428,838.158935 258.488272,862.969605 C215.264689,837.64525 186.296645,791.140594 186.296645,737.963978 C186.296645,683.320058 216.885377,635.721377 262.098533,610.910707 Z" id="Combined-Shape-Copy" stroke="#E3E5E8" stroke-width="22.5" fill="#E3E5E8" transform="translate(260.293403, 736.940156) rotate(-119.000000) translate(-260.293403, -736.940156) "></path>
        </g>
        <g id="Group-Copy" transform="translate(7168.000000, 0.000000)">
            <rect id="Rectangle" x="0" y="0" width="1024" height="1024"></rect>
            <path d="M257.981562,595.813119 C301.205145,621.137473 330.173189,667.64213 330.173189,720.818746 C330.173189,775.462666 299.584457,823.061347 254.371301,847.872017 C211.147718,822.547662 182.179674,776.043005 182.179674,722.866389 C182.179674,668.222469 212.768406,620.623788 257.981562,595.813119 Z" id="Combined-Shape-Copy" stroke="#E3E5E8" stroke-width="22.5" fill="#E3E5E8" transform="translate(256.176431, 721.842568) rotate(-114.000000) translate(-256.176431, -721.842568) "></path>
        </g>
    </g>
</svg>