<?xml version="1.0" encoding="UTF-8"?>
<svg width="8192px" height="1024px" viewBox="0 0 8192 1024" version="1.1" xmlns="http://www.w3.org/2000/svg" xmlns:xlink="http://www.w3.org/1999/xlink">
    <!-- Generator: Sketch 56.2 (81672) - https://sketch.com -->
    <title>LeftBigWingMove</title>
    <desc>Created with Sketch.</desc>
    <g id="LeftBigWingMove" stroke="none" stroke-width="1" fill="none" fill-rule="evenodd">
        <g id="Group-Copy">
            <rect id="Rectangle" x="12" y="0" width="1024" height="1024"></rect>
            <path d="M220.341929,364.427039 C287.751168,402.256021 333.210823,473.739157 333.210823,555.692623 C333.210823,636.823752 288.658893,707.693619 222.364469,745.809316 C154.95523,707.980333 109.495575,636.497197 109.495575,554.543731 C109.495575,473.412602 154.047505,402.542735 220.341929,364.427039 Z" id="Combined-Shape" stroke="#C7CBD1" stroke-width="22.5" fill="#C7CBD1" transform="translate(221.353199, 555.118177) rotate(-59.000000) translate(-221.353199, -555.118177) "></path>
        </g>
        <g id="Group-Copy" transform="translate(1024.000000, 0.000000)">
            <rect id="Rectangle" x="0" y="0" width="1024" height="1024"></rect>
            <path d="M220.06953,345.58446 C287.478769,383.413443 332.938424,454.896579 332.938424,536.850045 C332.938424,617.981174 288.386494,688.851041 222.09207,726.966737 C154.682831,689.137754 109.223176,617.654618 109.223176,535.701152 C109.223176,454.570024 153.775106,383.700156 220.06953,345.58446 Z" id="Combined-Shape" stroke="#C7CBD1" stroke-width="22.5" fill="#C7CBD1" transform="translate(221.080800, 536.275599) rotate(-54.000000) translate(-221.080800, -536.275599) "></path>
        </g>
        <g id="Group-Copy" transform="translate(2048.000000, 0.000000)">
            <rect id="Rectangle" x="0" y="0" width="1024" height="1024"></rect>
            <path d="M233.524979,327.847105 C300.934218,365.676088 346.393873,437.159224 346.393873,519.11269 C346.393873,600.243819 301.841943,671.113686 235.547519,709.229382 C168.13828,671.4004 122.678625,599.917264 122.678625,517.963797 C122.678625,436.832669 167.230555,365.962802 233.524979,327.847105 Z" id="Combined-Shape" stroke="#C7CBD1" stroke-width="22.5" fill="#C7CBD1" transform="translate(234.536249, 518.538244) rotate(-49.000000) translate(-234.536249, -518.538244) "></path>
        </g>
        <g id="Group-Copy" transform="translate(3072.000000, 0.000000)">
            <rect id="Rectangle" x="0" y="0" width="1024" height="1024"></rect>
            <path d="M220.134897,345.587314 C287.544136,383.416297 333.003791,454.899433 333.003791,536.852899 C333.003791,617.984028 288.451861,688.853895 222.157437,726.969591 C154.748198,689.140608 109.288543,617.657472 109.288543,535.704006 C109.288543,454.572878 153.840473,383.70301 220.134897,345.587314 Z" id="Combined-Shape" stroke="#C7CBD1" stroke-width="22.5" fill="#C7CBD1" transform="translate(221.146167, 536.278453) rotate(-54.000000) translate(-221.146167, -536.278453) "></path>
        </g>
        <g id="Group-Copy" transform="translate(4096.000000, 0.000000)">
            <rect id="Rectangle" x="12" y="0" width="1024" height="1024"></rect>
            <path d="M220.341929,364.427039 C287.751168,402.256021 333.210823,473.739157 333.210823,555.692623 C333.210823,636.823752 288.658893,707.693619 222.364469,745.809316 C154.95523,707.980333 109.495575,636.497197 109.495575,554.543731 C109.495575,473.412602 154.047505,402.542735 220.341929,364.427039 Z" id="Combined-Shape" stroke="#C7CBD1" stroke-width="22.5" fill="#C7CBD1" transform="translate(221.353199, 555.118177) rotate(-59.000000) translate(-221.353199, -555.118177) "></path>
        </g>
        <g id="Group-Copy" transform="translate(5120.000000, 0.000000)">
            <rect id="Rectangle" x="22" y="0" width="1024" height="1024"></rect>
            <path d="M220.235828,384.222897 C287.645066,422.05188 333.104721,493.535016 333.104721,575.488482 C333.104721,656.619611 288.552791,727.489478 222.258367,765.605174 C154.849128,727.776191 109.389473,656.293056 109.389473,574.339589 C109.389473,493.208461 153.941403,422.338594 220.235828,384.222897 Z" id="Combined-Shape" stroke="#C7CBD1" stroke-width="22.5" fill="#C7CBD1" transform="translate(221.247097, 574.914036) rotate(-64.000000) translate(-221.247097, -574.914036) "></path>
        </g>
        <g id="Group-Copy" transform="translate(6144.000000, 0.000000)">
            <rect id="Rectangle" x="28" y="0" width="1024" height="1024"></rect>
            <path d="M217.893505,404.824231 C285.302744,442.653214 330.762399,514.13635 330.762399,596.089816 C330.762399,677.220945 286.210469,748.090812 219.916045,786.206508 C152.506806,748.377526 107.047151,676.89439 107.047151,594.940924 C107.047151,513.809795 151.599081,442.939928 217.893505,404.824231 Z" id="Combined-Shape" stroke="#C7CBD1" stroke-width="22.5" fill="#C7CBD1" transform="translate(218.904775, 595.515370) rotate(-69.000000) translate(-218.904775, -595.515370) "></path>
        </g>
        <g id="Group-Copy" transform="translate(7138.000000, 0.000000)">
            <rect id="Rectangle" x="22" y="0" width="1024" height="1024"></rect>
            <path d="M220.366561,384.217189 C287.7758,422.046172 333.235455,493.529308 333.235455,575.482774 C333.235455,656.613903 288.683525,727.48377 222.389101,765.599466 C154.979862,727.770484 109.520207,656.287348 109.520207,574.333881 C109.520207,493.202753 154.072137,422.332886 220.366561,384.217189 Z" id="Combined-Shape" stroke="#C7CBD1" stroke-width="22.5" fill="#C7CBD1" transform="translate(221.377831, 574.908328) rotate(-64.000000) translate(-221.377831, -574.908328) "></path>
        </g>
    </g>
</svg>