<?xml version="1.0" encoding="UTF-8"?>
<svg width="8192px" height="1024px" viewBox="0 0 8192 1024" version="1.1" xmlns="http://www.w3.org/2000/svg" xmlns:xlink="http://www.w3.org/1999/xlink">
    <!-- Generator: Sketch 56.2 (81672) - https://sketch.com -->
    <title>RightSmallWingMove</title>
    <desc>Created with Sketch.</desc>
    <g id="RightSmallWingMove" stroke="none" stroke-width="1" fill="none" fill-rule="evenodd">
        <g id="Group-Copy">
            <rect id="Rectangle" x="0" y="0" width="1024" height="1024"></rect>
            <path d="M774.602949,577.032407 C819.321107,602.545666 849.290802,649.397218 849.290802,702.970498 C849.290802,758.022028 817.64438,805.975765 770.867853,830.971507 C726.149695,805.458248 696.18,758.606696 696.18,705.033416 C696.18,649.981887 727.826423,602.028149 774.602949,577.032407 Z" id="Combined-Shape-Copy-3" stroke="#E3E5E8" stroke-width="22.5" fill="#E3E5E8" transform="translate(772.735401, 704.001957) scale(-1, 1) rotate(-109.000000) translate(-772.735401, -704.001957) "></path>
        </g>
        <g id="Group-Copy" transform="translate(1024.000000, 0.000000)">
            <rect id="Rectangle" x="0" y="0" width="1024" height="1024"></rect>
            <path d="M775.880176,561.281808 C820.598334,586.795067 850.56803,633.646619 850.56803,687.219899 C850.56803,742.271428 818.921607,790.225166 772.145081,815.220908 C727.426923,789.707649 697.457227,742.856097 697.457227,689.282817 C697.457227,634.231287 729.10365,586.27755 775.880176,561.281808 Z" id="Combined-Shape-Copy-3" stroke="#E3E5E8" stroke-width="22.5" fill="#E3E5E8" transform="translate(774.012628, 688.251358) scale(-1, 1) rotate(-114.000000) translate(-774.012628, -688.251358) "></path>
        </g>
        <g id="Group-Copy" transform="translate(2048.000000, 0.000000)">
            <rect id="Rectangle" x="0" y="0" width="1024" height="1024"></rect>
            <path d="M775.649552,545.491221 C820.36771,571.00448 850.337405,617.856032 850.337405,671.429312 C850.337405,726.480842 818.690983,774.434579 771.914456,799.430321 C727.196298,773.917062 697.226603,727.06551 697.226603,673.49223 C697.226603,618.440701 728.873026,570.486963 775.649552,545.491221 Z" id="Combined-Shape-Copy-3" stroke="#E3E5E8" stroke-width="22.5" fill="#E3E5E8" transform="translate(773.782004, 672.460771) scale(-1, 1) rotate(-119.000000) translate(-773.782004, -672.460771) "></path>
        </g>
        <g id="Group-Copy" transform="translate(3072.000000, 0.000000)">
            <rect id="Rectangle" x="0" y="0" width="1024" height="1024"></rect>
            <path d="M775.945543,561.278954 C820.663701,586.792213 850.633396,633.643765 850.633396,687.217045 C850.633396,742.268574 818.986974,790.222312 772.210448,815.218054 C727.492289,789.704795 697.522594,742.853243 697.522594,689.279963 C697.522594,634.228433 729.169017,586.274696 775.945543,561.278954 Z" id="Combined-Shape-Copy-3" stroke="#E3E5E8" stroke-width="22.5" fill="#E3E5E8" transform="translate(774.077995, 688.248504) scale(-1, 1) rotate(-114.000000) translate(-774.077995, -688.248504) "></path>
        </g>
        <g id="Group-Copy" transform="translate(4096.000000, 0.000000)">
            <rect id="Rectangle" x="0" y="0" width="1024" height="1024"></rect>
            <path d="M774.602949,577.032407 C819.321107,602.545666 849.290802,649.397218 849.290802,702.970498 C849.290802,758.022028 817.64438,805.975765 770.867853,830.971507 C726.149695,805.458248 696.18,758.606696 696.18,705.033416 C696.18,649.981887 727.826423,602.028149 774.602949,577.032407 Z" id="Combined-Shape-Copy-3" stroke="#E3E5E8" stroke-width="22.5" fill="#E3E5E8" transform="translate(772.735401, 704.001957) scale(-1, 1) rotate(-109.000000) translate(-772.735401, -704.001957) "></path>
        </g>
        <g id="Group-Copy" transform="translate(5120.000000, 0.000000)">
            <rect id="Rectangle" x="0" y="0" width="1024" height="1024"></rect>
            <path d="M772.023193,592.614607 C816.741352,618.127866 846.711047,664.979417 846.711047,718.552698 C846.711047,773.604227 815.064624,821.557965 768.288098,846.553706 C723.56994,821.040448 693.600245,774.188896 693.600245,720.615615 C693.600245,665.564086 725.246667,617.610349 772.023193,592.614607 Z" id="Combined-Shape-Copy-3" stroke="#E3E5E8" stroke-width="22.5" fill="#E3E5E8" transform="translate(770.155646, 719.584157) scale(-1, 1) rotate(-104.000000) translate(-770.155646, -719.584157) "></path>
        </g>
        <g id="Group-Copy" transform="translate(6144.000000, 0.000000)">
            <rect id="Rectangle" x="0" y="0" width="1024" height="1024"></rect>
            <path d="M767.834704,607.889883 C812.552862,633.403141 842.522558,680.254693 842.522558,733.827974 C842.522558,788.879503 810.876135,836.83324 764.099609,861.828982 C719.381451,836.315724 689.411755,789.464172 689.411755,735.890891 C689.411755,680.839362 721.058178,632.885625 767.834704,607.889883 Z" id="Combined-Shape-Copy-3" stroke="#E3E5E8" stroke-width="22.5" fill="#E3E5E8" transform="translate(765.967157, 734.859432) scale(-1, 1) rotate(-99.000000) translate(-765.967157, -734.859432) "></path>
        </g>
        <g id="Group-Copy" transform="translate(7168.000000, 0.000000)">
            <rect id="Rectangle" x="0" y="0" width="1024" height="1024"></rect>
            <path d="M772.023193,592.614607 C816.741352,618.127866 846.711047,664.979417 846.711047,718.552698 C846.711047,773.604227 815.064624,821.557965 768.288098,846.553706 C723.56994,821.040448 693.600245,774.188896 693.600245,720.615615 C693.600245,665.564086 725.246667,617.610349 772.023193,592.614607 Z" id="Combined-Shape-Copy-3" stroke="#E3E5E8" stroke-width="22.5" fill="#E3E5E8" transform="translate(770.155646, 719.584157) scale(-1, 1) rotate(-104.000000) translate(-770.155646, -719.584157) "></path>
        </g>
    </g>
</svg>