<?xml version="1.0" encoding="UTF-8"?>
<svg width="8192px" height="1024px" viewBox="0 0 8192 1024" version="1.1" xmlns="http://www.w3.org/2000/svg" xmlns:xlink="http://www.w3.org/1999/xlink">
    <!-- Generator: Sketch 56.2 (81672) - https://sketch.com -->
    <title>RightBigWingMove</title>
    <desc>Created with Sketch.</desc>
    <g id="RightBigWingMove" stroke="none" stroke-width="1" fill="none" fill-rule="evenodd">
        <g id="Group-Copy">
            <rect id="Rectangle" x="0" y="0" width="1024" height="1024"></rect>
            <path d="M816.455801,367 C886.06006,405.088632 933,477.062413 933,559.578389 C933,641.266384 886.997343,712.622686 818.544199,751 C748.93994,712.911368 702,640.937587 702,558.421611 C702,476.733616 748.002657,405.377314 816.455801,367 Z" id="Combined-Shape-Copy-2" stroke="#C7CBD1" stroke-width="22.5" fill="#C7CBD1" transform="translate(817.500000, 559.000000) scale(-1, 1) rotate(-59.000000) translate(-817.500000, -559.000000) "></path>
        </g>
        <g id="Group-Copy" transform="translate(1024.000000, 0.000000)">
            <rect id="Rectangle" x="0" y="0" width="1036" height="1024"></rect>
            <path d="M811.559112,348.302532 C881.299212,386.413696 928.330761,458.430051 928.330761,540.994839 C928.330761,622.731155 882.238325,694.129667 813.651586,732.529682 C743.911486,694.418519 696.879937,622.402164 696.879937,539.837376 C696.879937,458.10106 742.972374,386.702548 811.559112,348.302532 Z" id="Combined-Shape-Copy-2" stroke="#C7CBD1" stroke-width="22.5" fill="#C7CBD1" transform="translate(812.605349, 540.416107) scale(-1, 1) rotate(-64.000000) translate(-812.605349, -540.416107) "></path>
        </g>
        <g id="Group-Copy" transform="translate(2048.000000, 0.000000)">
            <rect id="Rectangle" x="0" y="0" width="1024" height="1024"></rect>
            <path d="M792.319772,330.23386 C862.059872,368.345024 909.091421,440.361379 909.091421,522.926167 C909.091421,604.662483 862.998984,676.060995 794.412246,714.461011 C724.672146,676.349847 677.640597,604.333492 677.640597,521.768704 C677.640597,440.032388 723.733033,368.633876 792.319772,330.23386 Z" id="Combined-Shape-Copy-2" stroke="#C7CBD1" stroke-width="22.5" fill="#C7CBD1" transform="translate(793.366009, 522.347435) scale(-1, 1) rotate(-69.000000) translate(-793.366009, -522.347435) "></path>
        </g>
        <g id="Group-Copy" transform="translate(3072.000000, 0.000000)">
            <rect id="Rectangle" x="0" y="0" width="1024" height="1024"></rect>
            <path d="M805.624479,348.299678 C875.364579,386.410842 922.396128,458.427197 922.396128,540.991985 C922.396128,622.728301 876.303692,694.126813 807.716953,732.526828 C737.976853,694.415665 690.945304,622.39931 690.945304,539.834522 C690.945304,458.098206 737.037741,386.699694 805.624479,348.299678 Z" id="Combined-Shape-Copy-2" stroke="#C7CBD1" stroke-width="22.5" fill="#C7CBD1" transform="translate(806.670716, 540.413253) scale(-1, 1) rotate(-64.000000) translate(-806.670716, -540.413253) "></path>
        </g>
        <g id="Group-Copy" transform="translate(4096.000000, 0.000000)">
            <rect id="Rectangle" x="0" y="0" width="1024" height="1024"></rect>
            <path d="M817.042551,367.456332 C886.782651,405.567495 933.8142,477.583851 933.8142,560.148638 C933.8142,641.884955 887.721763,713.283466 819.135025,751.683482 C749.394925,713.572319 702.363376,641.555963 702.363376,558.991176 C702.363376,477.254859 748.455812,405.856347 817.042551,367.456332 Z" id="Combined-Shape-Copy-2" stroke="#C7CBD1" stroke-width="22.5" fill="#C7CBD1" transform="translate(818.088788, 559.569907) scale(-1, 1) rotate(-59.000000) translate(-818.088788, -559.569907) "></path>
        </g>
        <g id="Group-Copy" transform="translate(7138.000000, 0.000000)">
            <rect id="Rectangle" x="0" y="0" width="1024" height="1024"></rect>
            <path d="M826.878295,387.540947 C896.618395,425.65211 943.649944,497.668466 943.649944,580.233254 C943.649944,661.96957 897.557507,733.368082 828.970769,771.768097 C759.230669,733.656934 712.19912,661.640579 712.19912,579.075791 C712.19912,497.339475 758.291556,425.940963 826.878295,387.540947 Z" id="Combined-Shape-Copy-2" stroke="#C7CBD1" stroke-width="22.5" fill="#C7CBD1" transform="translate(827.924532, 579.654522) scale(-1, 1) rotate(-54.000000) translate(-827.924532, -579.654522) "></path>
        </g>
        <g id="Group-Copy" transform="translate(6144.000000, 0.000000)">
            <rect id="RightBigWing07" x="0" y="0" width="1024" height="1024"></rect>
            <path d="M834.665649,408.383588 C904.405749,446.494751 951.437298,518.511106 951.437298,601.075894 C951.437298,682.81221 905.344861,754.210722 836.758123,792.610738 C767.018023,754.499575 719.986474,682.483219 719.986474,599.918431 C719.986474,518.182115 766.07891,446.783603 834.665649,408.383588 Z" id="Combined-Shape-Copy-2" stroke="#C7CBD1" stroke-width="22.5" fill="#C7CBD1" transform="translate(835.711886, 600.497163) scale(-1, 1) rotate(-49.000000) translate(-835.711886, -600.497163) "></path>
        </g>
        <g id="Group-Copy" transform="translate(5120.000000, 0.000000)">
            <rect id="Rectangle" x="0" y="0" width="1024" height="1024"></rect>
            <path d="M826.878295,387.540947 C896.618395,425.65211 943.649944,497.668466 943.649944,580.233254 C943.649944,661.96957 897.557507,733.368082 828.970769,771.768097 C759.230669,733.656934 712.19912,661.640579 712.19912,579.075791 C712.19912,497.339475 758.291556,425.940963 826.878295,387.540947 Z" id="Combined-Shape-Copy-2" stroke="#C7CBD1" stroke-width="22.5" fill="#C7CBD1" transform="translate(827.924532, 579.654522) scale(-1, 1) rotate(-54.000000) translate(-827.924532, -579.654522) "></path>
        </g>
    </g>
</svg>