<?xml version="1.0" encoding="UTF-8"?>
<svg width="5120px" height="1024px" viewBox="0 0 5120 1024" version="1.1" xmlns="http://www.w3.org/2000/svg" xmlns:xlink="http://www.w3.org/1999/xlink">
    <!-- Generator: Sketch 56.2 (81672) - https://sketch.com -->
    <title>RightAntennaMove</title>
    <desc>Created with Sketch.</desc>
    <g id="RightAntennaMove" stroke="none" stroke-width="1" fill="none" fill-rule="evenodd">
        <g id="Group-Copy">
            <rect id="Rectangle" x="0" y="0" width="1024" height="1024"></rect>
            <path d="M735.526322,210.947034 C728.596173,170.355737 711.984144,133.258212 685.690234,99.6544609 C659.396323,66.0507096 626.508353,51.3903228 587.026322,55.6733005" id="Line-Copy" stroke="#17191C" stroke-width="22.5" stroke-linecap="round" transform="translate(661.276322, 132.947034) scale(-1, 1) rotate(-7.000000) translate(-661.276322, -132.947034) "></path>
        </g>
        <g id="Group-Copy" transform="translate(1024.000000, 0.000000)">
            <rect id="Rectangle" x="0" y="0" width="1024" height="1024"></rect>
            <path d="M737.314753,211.05642 C730.384604,170.465122 713.772575,133.367597 687.478665,99.7638461 C661.184755,66.1600947 627.466601,57.9606119 586.324203,75.1653976" id="Line-Copy" stroke="#17191C" stroke-width="22.5" stroke-linecap="round" transform="translate(661.819478, 138.741495) scale(-1, 1) rotate(-7.000000) translate(-661.819478, -138.741495) "></path>
        </g>
        <g id="Group-Copy" transform="translate(2048.000000, 0.000000)">
            <rect id="Rectangle" x="0" y="0" width="1024" height="1024"></rect>
            <path d="M725.391652,210.327171 C718.461503,169.735874 701.849474,132.638349 675.555564,99.034598 C649.261653,65.4308466 619.429752,61.7679498 586.059861,88.0459074" id="Line-Copy" stroke="#17191C" stroke-width="22.5" stroke-linecap="round" transform="translate(655.725756, 140.537850) scale(-1, 1) rotate(-7.000000) translate(-655.725756, -140.537850) "></path>
        </g>
        <g id="Group-Copy" transform="translate(3072.000000, 0.000000)">
            <rect id="Rectangle" x="0" y="0" width="1024" height="1024"></rect>
            <path d="M737.314753,211.05642 C730.384604,170.465122 713.772575,133.367597 687.478665,99.7638461 C661.184755,66.1600947 627.466601,57.9606119 586.324203,75.1653976" id="Line-Copy" stroke="#17191C" stroke-width="22.5" stroke-linecap="round" transform="translate(661.819478, 138.741495) scale(-1, 1) rotate(-7.000000) translate(-661.819478, -138.741495) "></path>
        </g>
        <g id="Group-Copy" transform="translate(4096.000000, 0.000000)">
            <rect id="Rectangle" x="0" y="0" width="1024" height="1024"></rect>
            <path d="M735.526322,210.947034 C728.596173,170.355737 711.984144,133.258212 685.690234,99.6544609 C659.396323,66.0507096 626.508353,51.3903228 587.026322,55.6733005" id="Line-Copy" stroke="#17191C" stroke-width="22.5" stroke-linecap="round" transform="translate(661.276322, 132.947034) scale(-1, 1) rotate(-7.000000) translate(-661.276322, -132.947034) "></path>
        </g>
    </g>
</svg>