<?xml version="1.0" encoding="UTF-8"?>
<svg width="4096px" height="1024px" viewBox="0 0 4096 1024" version="1.1" xmlns="http://www.w3.org/2000/svg" xmlns:xlink="http://www.w3.org/1999/xlink">
    <!-- Generator: Sketch 56.2 (81672) - https://sketch.com -->
    <title>SmileEyesBackToOpen</title>
    <desc>Created with Sketch.</desc>
    <g id="SmileEyesBackToOpen" stroke="none" stroke-width="1" fill="none" fill-rule="evenodd">
        <g id="Group-Copy-3">
            <rect id="Rectangle" x="0" y="0" width="1024" height="1024"></rect>
            <circle id="Oval" fill="#4AA810" cx="624.5" cy="386" r="105"></circle>
            <circle id="Oval-Copy-4" fill="#4AA810" cx="401" cy="386" r="105"></circle>
            <path d="M327.5,391.099786 C336.492066,372.337203 361.255317,362.646557 401.789754,362.027848 C442.324191,361.40914 467.06094,371.099786 476,391.099786" id="Line-3" stroke="#17191C" stroke-width="15" stroke-linecap="round"></path>
            <path d="M551,391.099786 C559.992066,372.337203 584.755317,362.646557 625.289754,362.027848 C665.824191,361.40914 690.56094,371.099786 699.5,391.099786" id="Line-3-Copy" stroke="#17191C" stroke-width="15" stroke-linecap="round"></path>
        </g>
        <g id="Group-Copy-3" transform="translate(1024.000000, 0.000000)">
            <rect id="Rectangle" x="0" y="0" width="1024" height="1024"></rect>
            <path d="M525.907428,395.042517 C545.656604,400.399274 582.415152,404 624.5,404 C666.584848,404 703.343396,400.399274 723.092572,395.042517 C718.52553,445.48071 676.127877,485 624.5,485 C572.872123,485 530.47447,445.48071 525.907428,395.042517 Z M525.907428,376.957483 C530.47447,326.51929 572.872123,287 624.5,287 C676.127877,287 718.52553,326.51929 723.092572,376.957483 C703.343396,371.600726 666.584848,368 624.5,368 C582.415152,368 545.656604,371.600726 525.907428,376.957483 Z" id="Combined-Shape" fill="#4AA810"></path>
            <path d="M301.913871,395.042517 C321.663048,400.399274 358.421596,404 400.506443,404 C442.591291,404 479.349839,400.399274 499.099016,395.042517 C494.531973,445.48071 452.134321,485 400.506443,485 C348.878566,485 306.480913,445.48071 301.913871,395.042517 Z M301.913871,376.957483 C306.480913,326.51929 348.878566,287 400.506443,287 C452.134321,287 494.531973,326.51929 499.099016,376.957483 C479.349839,371.600726 442.591291,368 400.506443,368 C358.421596,368 321.663048,371.600726 301.913871,376.957483 Z" id="Combined-Shape" fill="#4AA810"></path>
        </g>
        <g id="Group-Copy-3" transform="translate(2048.000000, 0.000000)">
            <rect id="Rectangle" x="0" y="0" width="1024" height="1024"></rect>
            <path d="M538.660894,435.355297 C559.557424,451.072757 590.266552,461 624.5,461 C658.733448,461 689.442576,451.072757 710.339106,435.355297 C693.24223,465.026246 661.203675,485 624.5,485 C587.796325,485 555.75777,465.026246 538.660894,435.355297 Z M538.660894,336.644703 C555.75777,306.973754 587.796325,287 624.5,287 C661.203675,287 693.24223,306.973754 710.339106,336.644703 C689.442576,320.927243 658.733448,311 624.5,311 C590.266552,311 559.557424,320.927243 538.660894,336.644703 Z" id="Combined-Shape" fill="#4AA810"></path>
            <path d="M314.667338,435.355297 C335.563868,451.072757 366.272995,461 400.506443,461 C434.739891,461 465.449019,451.072757 486.345549,435.355297 C469.248674,465.026246 437.210119,485 400.506443,485 C363.802768,485 331.764213,465.026246 314.667338,435.355297 Z M314.667338,336.644703 C331.764213,306.973754 363.802768,287 400.506443,287 C437.210119,287 469.248674,306.973754 486.345549,336.644703 C465.449019,320.927243 434.739891,311 400.506443,311 C366.272995,311 335.563868,320.927243 314.667338,336.644703 Z" id="Combined-Shape" fill="#4AA810"></path>
        </g>
        <g id="Group-Copy" transform="translate(3072.000000, 0.000000)">
            <rect id="Rectangle" x="0" y="0" width="1024" height="1024"></rect>
            <path d="M546.993557,447.599588 C567.33333,461.500987 594.569666,470 624.5,470 C654.430334,470 681.66667,461.500987 702.006443,447.599588 C683.869001,470.390314 655.890638,485 624.5,485 C593.109362,485 565.130999,470.390314 546.993557,447.599588 Z M546.993557,324.400412 C565.130999,301.609686 593.109362,287 624.5,287 C655.890638,287 683.869001,301.609686 702.006443,324.400412 C681.66667,310.499013 654.430334,302 624.5,302 C594.569666,302 567.33333,310.499013 546.993557,324.400412 Z" id="Combined-Shape" fill="#4AA810"></path>
            <path d="M323,447.599588 C343.339774,461.500987 370.57611,470 400.506443,470 C430.436777,470 457.673113,461.500987 478.012887,447.599588 C459.875445,470.390314 431.897081,485 400.506443,485 C369.115805,485 341.137442,470.390314 323,447.599588 Z M323,324.400412 C341.137442,301.609686 369.115805,287 400.506443,287 C431.897081,287 459.875445,301.609686 478.012887,324.400412 C457.673113,310.499013 430.436777,302 400.506443,302 C370.57611,302 343.339774,310.499013 323,324.400412 Z" id="Combined-Shape" fill="#4AA810"></path>
        </g>
    </g>
</svg>