<?xml version="1.0" encoding="UTF-8"?>
<svg width="7168px" height="1024px" viewBox="0 0 7168 1024" version="1.1" xmlns="http://www.w3.org/2000/svg" xmlns:xlink="http://www.w3.org/1999/xlink">
    <!-- Generator: Sketch 56.2 (81672) - https://sketch.com -->
    <title>Wink</title>
    <desc>Created with Sketch.</desc>
    <g id="Wink" stroke="none" stroke-width="1" fill="none" fill-rule="evenodd">
        <g id="Group">
            <rect id="Rectangle" x="0" y="0" width="1024" height="1024"></rect>
            <path d="M323,447.599588 C343.339774,461.500987 370.57611,470 400.506443,470 C430.436777,470 457.673113,461.500987 478.012887,447.599588 C459.875445,470.390314 431.897081,485 400.506443,485 C369.115805,485 341.137442,470.390314 323,447.599588 Z M323,324.400412 C341.137442,301.609686 369.115805,287 400.506443,287 C431.897081,287 459.875445,301.609686 478.012887,324.400412 C457.673113,310.499013 430.436777,302 400.506443,302 C370.57611,302 343.339774,310.499013 323,324.400412 Z" id="Combined-Shape" fill="#4AA810"></path>
        </g>
        <g id="Group-Copy-2" transform="translate(1024.000000, 0.000000)">
            <rect id="Rectangle" x="0" y="0" width="1024" height="1024"></rect>
            <path d="M314.667338,435.355297 C335.563868,451.072757 366.272995,461 400.506443,461 C434.739891,461 465.449019,451.072757 486.345549,435.355297 C469.248674,465.026246 437.210119,485 400.506443,485 C363.802768,485 331.764213,465.026246 314.667338,435.355297 Z M314.667338,336.644703 C331.764213,306.973754 363.802768,287 400.506443,287 C437.210119,287 469.248674,306.973754 486.345549,336.644703 C465.449019,320.927243 434.739891,311 400.506443,311 C366.272995,311 335.563868,320.927243 314.667338,336.644703 Z" id="Combined-Shape" fill="#4AA810"></path>
        </g>
        <g id="Group-Copy-2" transform="translate(2048.000000, 0.000000)">
            <rect id="Rectangle" x="0" y="0" width="1024" height="1024"></rect>
            <path d="M301.913871,395.042517 C321.663048,400.399274 358.421596,404 400.506443,404 C442.591291,404 479.349839,400.399274 499.099016,395.042517 C494.531973,445.48071 452.134321,485 400.506443,485 C348.878566,485 306.480913,445.48071 301.913871,395.042517 Z M301.913871,376.957483 C306.480913,326.51929 348.878566,287 400.506443,287 C452.134321,287 494.531973,326.51929 499.099016,376.957483 C479.349839,371.600726 442.591291,368 400.506443,368 C358.421596,368 321.663048,371.600726 301.913871,376.957483 Z" id="Combined-Shape" fill="#4AA810"></path>
        </g>
        <g id="Group-Copy-2" transform="translate(3072.000000, 0.000000)">
            <rect id="Rectangle" x="0" y="0" width="1024" height="1024"></rect>
            <circle id="Oval-Copy-4" fill="#4AA810" cx="401" cy="386" r="105"></circle>
            <path d="M327.5,391.099786 C336.492066,372.337203 361.255317,362.646557 401.789754,362.027848 C442.324191,361.40914 467.06094,371.099786 476,391.099786" id="Line-3" stroke="#17191C" stroke-width="15" stroke-linecap="round"></path>
        </g>
        <g id="Group-Copy-2" transform="translate(4096.000000, 0.000000)">
            <rect id="Rectangle" x="0" y="0" width="1024" height="1024"></rect>
            <path d="M301.913871,395.042517 C321.663048,400.399274 358.421596,404 400.506443,404 C442.591291,404 479.349839,400.399274 499.099016,395.042517 C494.531973,445.48071 452.134321,485 400.506443,485 C348.878566,485 306.480913,445.48071 301.913871,395.042517 Z M301.913871,376.957483 C306.480913,326.51929 348.878566,287 400.506443,287 C452.134321,287 494.531973,326.51929 499.099016,376.957483 C479.349839,371.600726 442.591291,368 400.506443,368 C358.421596,368 321.663048,371.600726 301.913871,376.957483 Z" id="Combined-Shape" fill="#4AA810"></path>
        </g>
        <g id="Group-Copy-2" transform="translate(5120.000000, 0.000000)">
            <rect id="Rectangle" x="0" y="0" width="1024" height="1024"></rect>
            <path d="M314.667338,435.355297 C335.563868,451.072757 366.272995,461 400.506443,461 C434.739891,461 465.449019,451.072757 486.345549,435.355297 C469.248674,465.026246 437.210119,485 400.506443,485 C363.802768,485 331.764213,465.026246 314.667338,435.355297 Z M314.667338,336.644703 C331.764213,306.973754 363.802768,287 400.506443,287 C437.210119,287 469.248674,306.973754 486.345549,336.644703 C465.449019,320.927243 434.739891,311 400.506443,311 C366.272995,311 335.563868,320.927243 314.667338,336.644703 Z" id="Combined-Shape" fill="#4AA810"></path>
        </g>
        <g id="Group-Copy-2" transform="translate(6144.000000, 0.000000)">
            <rect id="Rectangle" x="0" y="0" width="1024" height="1024"></rect>
            <path d="M323,447.599588 C343.339774,461.500987 370.57611,470 400.506443,470 C430.436777,470 457.673113,461.500987 478.012887,447.599588 C459.875445,470.390314 431.897081,485 400.506443,485 C369.115805,485 341.137442,470.390314 323,447.599588 Z M323,324.400412 C341.137442,301.609686 369.115805,287 400.506443,287 C431.897081,287 459.875445,301.609686 478.012887,324.400412 C457.673113,310.499013 430.436777,302 400.506443,302 C370.57611,302 343.339774,310.499013 323,324.400412 Z" id="Combined-Shape" fill="#4AA810"></path>
        </g>
    </g>
</svg>