<?xml version="1.0" encoding="UTF-8"?>
<svg width="35px" height="35px" viewBox="0 0 35 35" version="1.1" xmlns="http://www.w3.org/2000/svg" xmlns:xlink="http://www.w3.org/1999/xlink">
    <!-- Generator: Sketch 56.3 (81716) - https://sketch.com -->
    <title>lightbulb-solid</title>
    <desc>Created with Sketch.</desc>
    <g id="Style-Guide" stroke="none" stroke-width="1" fill="none" fill-rule="evenodd">
        <g id="CodingBlocks" transform="translate(-697.000000, -943.000000)" fill="#FFFFFF" fill-rule="nonzero">
            <g id="lightbulb-solid" transform="translate(697.000000, 943.000000)">
                <path d="M6.82244318,32.3401989 C6.82315341,32.7869318 6.95525568,33.2244318 7.203125,33.5965909 L8.41690341,35.4211648 C8.83803354,36.0546552 9.54825135,36.4353693 10.3089489,36.4353693 L14.6917614,36.4353693 C15.4524589,36.4353693 16.1626767,36.0546552 16.5838068,35.4211648 L17.7975852,33.5965909 C18.0453475,33.2243783 18.1777708,32.7873321 18.178267,32.3401989 L18.181108,29.6164773 L6.81889205,29.6164773 L6.82244318,32.3401989 Z M0,12.5710227 C0,15.7223011 1.16832386,18.5973011 3.09375,20.7940341 C4.26704545,22.1328125 6.10227273,24.9296875 6.80184659,27.2890625 C6.8046875,27.3075284 6.80681818,27.3259943 6.80965909,27.3444602 L18.1903409,27.3444602 C18.1931818,27.3259943 18.1953125,27.3082386 18.1981534,27.2890625 C18.8977273,24.9296875 20.7329545,22.1328125 21.90625,20.7940341 C23.8316761,18.5973011 25,15.7223011 25,12.5710227 C25,5.65411932 19.3828125,0.0497159091 12.4609375,0.0709621749 C5.21590909,0.0930397727 0,5.96377841 0,12.5710227 Z M12.5,6.88920455 C9.3671875,6.88920455 6.81818182,9.43821023 6.81818182,12.5710227 C6.81818182,13.1988636 6.30965909,13.7073864 5.68181818,13.7073864 C5.05397727,13.7073864 4.54545455,13.1988636 4.54545455,12.5710227 C4.54545455,8.18465909 8.11363636,4.61647727 12.5,4.61647727 C13.1278409,4.61647727 13.6363636,5.125 13.6363636,5.75284091 C13.6363636,6.38068182 13.1278409,6.88920455 12.5,6.88920455 Z" id="Shape"></path>
            </g>
        </g>
    </g>
</svg>