<?xml version="1.0" encoding="UTF-8"?>
<svg width="39px" height="26px" viewBox="0 0 39 26" version="1.1" xmlns="http://www.w3.org/2000/svg" xmlns:xlink="http://www.w3.org/1999/xlink">
    <!-- Generator: Sketch 56.3 (81716) - https://sketch.com -->
    <title>toggle-off-regular</title>
    <desc>Created with Sketch.</desc>
    <g id="Style-Guide" stroke="none" stroke-width="1" fill="none" fill-rule="evenodd">
        <g id="CodingBlocks" transform="translate(-690.000000, -1116.000000)" fill="#FFFFFF" fill-rule="nonzero">
            <g id="toggle-off-regular" transform="translate(690.000000, 1116.000000)">
                <path d="M26,0 L13,0 C5.82027604,0 0,5.82027604 0,13 C0,20.179724 5.82027604,26 13,26 L26,26 C33.179724,26 39,20.179724 39,13 C39,5.82027604 33.179724,0 26,0 Z M3.25,13 C3.25,7.61156771 7.6106875,3.25 13,3.25 C18.3883646,3.25 22.75,7.6106875 22.75,13 C22.75,18.3883646 18.3893125,22.75 13,22.75 C7.61163542,22.75 3.25,18.3893125 3.25,13 Z M26,22.75 L21.5976042,22.75 C27.4681875,17.5692969 27.4667656,8.42941667 21.5976042,3.25 L26,3.25 C31.3883646,3.25 35.75,7.6106875 35.75,13 C35.75,18.3883646 31.3893125,22.75 26,22.75 Z" id="Shape"></path>
            </g>
        </g>
    </g>
</svg>