<?xml version="1.0" encoding="UTF-8"?>
<svg width="3072px" height="1024px" viewBox="0 0 3072 1024" version="1.1" xmlns="http://www.w3.org/2000/svg" xmlns:xlink="http://www.w3.org/1999/xlink">
    <!-- Generator: Sketch 56.2 (81672) - https://sketch.com -->
    <title>GreenBlockLeftSide</title>
    <desc>Created with Sketch.</desc>
    <defs>
        <radialGradient cx="51.6223145%" cy="50%" fx="51.6223145%" fy="50%" r="56.3022823%" id="radialGradient-1">
            <stop stop-color="#7CD147" offset="0%"></stop>
            <stop stop-color="#4AA810" offset="100%"></stop>
        </radialGradient>
        <path d="M299.134664,174.901125 C386.070954,199.633708 457.026066,212 512,212 C567.222022,212 638.569788,199.521843 726.043297,174.565528 L726.043297,174.565527 C779.152587,159.413372 834.489422,190.18371 849.641577,243.293 C854.756961,261.222755 854.757758,280.225561 849.643877,298.155745 C824.547959,386.146535 812,457.427954 812,512 C812,566.477074 824.504322,637.605411 849.512967,725.385011 L849.512968,725.385011 C864.645539,778.499885 833.854798,833.82537 780.739924,848.957941 C762.824147,854.062194 743.838772,854.060596 725.923854,848.953328 C639.508984,824.317776 568.201033,812 512,812 C456.053832,812 385.13745,824.20631 299.250856,848.618931 L299.250856,848.618931 C246.12675,863.71906 190.820081,832.894536 175.719952,779.770431 C170.639428,761.896523 170.639557,742.960556 175.720325,725.086718 C199.906775,640.000225 212,568.971319 212,512 C212,454.926936 199.863542,383.74603 175.590626,298.457282 L175.590625,298.457282 C160.473078,245.338131 191.279465,190.021357 244.398616,174.90381 C262.28864,169.812364 281.24414,169.811434 299.134664,174.901125 Z" id="path-2"></path>
        <filter x="-1.3%" y="1.1%" width="102.7%" height="102.8%" filterUnits="objectBoundingBox" id="filter-3">
            <feOffset dx="0" dy="20" in="SourceAlpha" result="shadowOffsetOuter1"></feOffset>
            <feGaussianBlur stdDeviation="20" in="shadowOffsetOuter1" result="shadowBlurOuter1"></feGaussianBlur>
            <feColorMatrix values="0 0 0 0 0   0 0 0 0 0   0 0 0 0 0  0 0 0 0.5 0" type="matrix" in="shadowBlurOuter1"></feColorMatrix>
        </filter>
        <path d="M2347.13466,174.901125 C2434.07095,199.633708 2505.02607,212 2560,212 C2615.22202,212 2686.56979,199.521843 2774.0433,174.565528 L2774.0433,174.565527 C2827.15259,159.413372 2882.48942,190.18371 2897.64158,243.293 C2902.75696,261.222755 2902.75776,280.225561 2897.64388,298.155745 C2872.54796,386.146535 2860,457.427954 2860,512 C2860,566.477074 2872.50432,637.605411 2897.51297,725.385011 L2897.51297,725.385011 C2912.64554,778.499885 2881.8548,833.82537 2828.73992,848.957941 C2810.82415,854.062194 2791.83877,854.060596 2773.92385,848.953328 C2687.50898,824.317776 2616.20103,812 2560,812 C2504.05383,812 2433.13745,824.20631 2347.25086,848.618931 L2347.25086,848.618931 C2294.12675,863.71906 2238.82008,832.894536 2223.71995,779.770431 C2218.63943,761.896523 2218.63956,742.960556 2223.72032,725.086718 C2247.90677,640.000225 2260,568.971319 2260,512 C2260,454.926936 2247.86354,383.74603 2223.59063,298.457282 L2223.59063,298.457282 C2208.47308,245.338131 2239.27946,190.021357 2292.39862,174.90381 C2310.28864,169.812364 2329.24414,169.811434 2347.13466,174.901125 Z" id="path-4"></path>
        <filter x="-1.3%" y="1.1%" width="102.7%" height="102.8%" filterUnits="objectBoundingBox" id="filter-5">
            <feOffset dx="0" dy="20" in="SourceAlpha" result="shadowOffsetOuter1"></feOffset>
            <feGaussianBlur stdDeviation="20" in="shadowOffsetOuter1" result="shadowBlurOuter1"></feGaussianBlur>
            <feColorMatrix values="0 0 0 0 0   0 0 0 0 0   0 0 0 0 0  0 0 0 0.5 0" type="matrix" in="shadowBlurOuter1"></feColorMatrix>
        </filter>
        <linearGradient x1="51.6223145%" y1="50%" x2="51.6223145%" y2="106.302282%" id="linearGradient-6">
            <stop stop-color="#7CD147" offset="0%"></stop>
            <stop stop-color="#4AA810" offset="100%"></stop>
        </linearGradient>
        <path d="M187.134664,62.9011251 C274.070954,87.6337084 345.026066,100 400,100 C455.222022,100 526.569788,87.5218427 614.043297,62.5655281 L614.043297,62.5655267 C667.152587,47.4133718 722.489422,78.1837099 737.641577,131.293 C742.756961,149.222755 742.757758,168.225561 737.643877,186.155745 C712.547959,274.146535 700,345.427954 700,400 C700,454.477074 712.504322,525.605411 737.512967,613.385011 L737.512968,613.385011 C752.645539,666.499885 721.854798,721.82537 668.739924,736.957941 C650.824147,742.062194 631.838772,742.060596 613.923854,736.953328 C527.508984,712.317776 456.201033,700 400,700 C344.053832,700 273.13745,712.20631 187.250856,736.618931 L187.250856,736.618931 C134.12675,751.71906 78.8200811,720.894536 63.7199525,667.770431 C58.6394281,649.896523 58.639557,630.960556 63.7203248,613.086718 C87.9067749,528.000225 100,456.971319 100,400 C100,342.926936 87.863542,271.74603 63.590626,186.457282 L63.5906255,186.457282 C48.473078,133.338131 79.2794648,78.021357 132.398616,62.9038096 C150.28864,57.8123636 169.24414,57.8114339 187.134664,62.9011251 Z" id="path-7"></path>
        <filter x="-1.3%" y="1.1%" width="102.7%" height="102.8%" filterUnits="objectBoundingBox" id="filter-8">
            <feOffset dx="0" dy="20" in="SourceAlpha" result="shadowOffsetOuter1"></feOffset>
            <feGaussianBlur stdDeviation="20" in="shadowOffsetOuter1" result="shadowBlurOuter1"></feGaussianBlur>
            <feColorMatrix values="0 0 0 0 0   0 0 0 0 0   0 0 0 0 0  0 0 0 0.5 0" type="matrix" in="shadowBlurOuter1"></feColorMatrix>
        </filter>
    </defs>
    <g id="GreenBlockLeftSide" stroke="none" stroke-width="1" fill="none" fill-rule="evenodd">
        <rect id="Rectangle" x="0" y="0" width="1024" height="1024"></rect>
        <g id="GreenBlock">
            <use fill="black" fill-opacity="1" filter="url(#filter-3)" xlink:href="#path-2"></use>
            <use fill="url(#radialGradient-1)" fill-rule="evenodd" xlink:href="#path-2"></use>
        </g>
        <rect id="Rectangle-Copy" x="1024" y="0" width="1024" height="1024"></rect>
        <rect id="Rectangle-Copy-2" x="2048" y="0" width="1024" height="1024"></rect>
        <g id="GreenBlock-Copy">
            <use fill="black" fill-opacity="1" filter="url(#filter-5)" xlink:href="#path-4"></use>
            <use fill="url(#radialGradient-1)" fill-rule="evenodd" xlink:href="#path-4"></use>
        </g>
        <g id="GreenBlockMidStateLeft" transform="translate(1136.000000, 112.000000)">
            <g id="GreenKnob" transform="translate(20.000000, 243.000000)" fill="url(#linearGradient-6)">
                <g id="Group">
                    <g id="Group-2-Copy">
                        <g id="Group-4">
                            <g id="Group-3" transform="translate(0.000000, 0.181818)">
                                <path d="M40.9832957,133.591384 C18.2085636,132.289529 1.42108547e-14,102.892315 1.42108547e-14,66.8181818 C1.42108547e-14,30.7440488 18.2085636,1.34683435 40.9832957,0.0449800993 L40.983306,0 L223.831902,0 L223.831902,0.0449795085 C246.606644,1.34683435 264.815208,30.7440488 264.815208,66.8181818 C264.815208,102.892315 246.606644,132.289529 223.831912,133.591384 L223.831902,133.636364 L40.983306,133.636364 L40.983306,133.591384 Z" id="Combined-Shape"></path>
                            </g>
                        </g>
                    </g>
                    <g id="Group-2-Copy-2" transform="translate(0.000000, 170.000000)">
                        <g id="Group-4">
                            <g id="Group-3" transform="translate(0.000000, 0.181818)">
                                <path d="M40.9832957,133.591384 C18.2085636,132.289529 1.42108547e-14,102.892315 1.42108547e-14,66.8181818 C1.42108547e-14,30.7440488 18.2085636,1.34683435 40.9832957,0.0449800993 L40.983306,0 L223.831902,0 L223.831902,0.0449795085 C246.606644,1.34683435 264.815208,30.7440488 264.815208,66.8181818 C264.815208,102.892315 246.606644,132.289529 223.831912,133.591384 L223.831902,133.636364 L40.983306,133.636364 L40.983306,133.591384 Z" id="Combined-Shape"></path>
                            </g>
                        </g>
                    </g>
                </g>
            </g>
            <g id="GreenBlock">
                <use fill="black" fill-opacity="1" filter="url(#filter-8)" xlink:href="#path-7"></use>
                <use fill="url(#radialGradient-1)" fill-rule="evenodd" xlink:href="#path-7"></use>
            </g>
        </g>
    </g>
</svg>